<svg width="103" height="147" viewBox="0 0 103 147" fill="none" xmlns="http://www.w3.org/2000/svg">
<g clip-path="url(#clip0_97_1244)">
<path opacity="0.334" d="M49.4915 139.379C47.1004 137.741 44.4149 137.455 43.4933 138.741C42.5716 140.026 43.7628 142.396 46.1538 144.034C48.5449 145.672 51.2304 145.958 52.152 144.673C53.0737 143.387 51.8825 141.017 49.4915 139.379Z" fill="url(#paint0_linear_97_1244)"/>
<path d="M48.7542 115.259C48.7542 115.259 48.2676 113.666 48.176 113.625C48.7226 113.387 49.6421 113.021 49.4847 112.425C49.3273 111.828 49.4103 110.446 48.1001 109.665C46.79 108.885 45.2591 111.78 45.2591 111.78L46.3154 113.155L46.4679 114.707L47.7482 115.53L48.7542 115.259Z" fill="#95E3FF"/>
<path d="M47.2904 112.779C47.5755 113.152 47.2624 114.043 46.5926 114.164C45.4836 114.364 44.7954 112.678 44.6117 111.535C44.428 110.391 45.598 109.482 47.2483 109.283C49.9992 109.313 48.2813 110.714 47.7897 111.128C47.9323 112.144 47.6995 112.055 47.1103 111.83C46.8057 111.907 47.0046 112.405 47.2904 112.779Z" fill="#2A4F76"/>
<path d="M55.6899 118.571C55.6899 118.571 56.3396 117.798 56.3733 117.608C56.407 117.417 56.5245 116.289 57.26 116.172C57.9955 116.056 57.8117 117.437 57.6515 117.873C57.4914 118.309 55.4821 119.557 55.4821 119.557L55.6899 118.571Z" fill="#95E3FF"/>
<path d="M55.8322 117.919C56.2265 117.903 56.6893 119.4 56.0733 119.933C55.4573 120.467 53.6728 122.567 52.9868 122.079C52.3009 121.591 51.0293 120.385 50.7898 119.548C50.3702 119.974 50.896 122.884 51.0316 124.044C51.1672 125.205 50.6303 127.108 46.9723 126.484C43.3144 125.861 42.8215 125.606 43.5311 121.832C41.9097 121.728 41.3992 120.439 41.9309 119.12C42.4625 117.801 43.3138 113.773 45.4281 113.922C47.5424 114.07 48.4522 114.384 48.5299 114.837C49.2156 115.214 50.3796 115.531 51.1928 116.732C52.006 117.932 53.2614 119.625 53.3466 119.933C53.8426 119.407 55.4378 117.935 55.8322 117.919Z" fill="white"/>
<path d="M46.5254 138.542C47.2564 138.329 47.5976 138.628 47.4344 139.345C47.2712 140.061 45.9528 140.348 45.8576 140.906C45.6167 141.75 44.0997 141.055 44.4192 140.375C44.7386 139.695 44.6648 139.647 44.6648 139.647L46.5254 138.542Z" fill="#2A4F76"/>
<path d="M45.9539 137.912C45.9648 137.975 46.1413 139.54 46.1413 139.54C46.1413 139.54 45.4225 140.631 44.9235 140.217C44.718 140.047 44.9307 140.102 44.9235 139.603C44.9257 139.19 44.9599 138.777 45.0257 138.369L45.9539 137.912Z" fill="#95E3FF"/>
<path d="M49.4175 140.991C49.5285 141.286 49.6656 141.571 49.8271 141.842C49.958 141.989 49.43 142.904 48.3639 142.836C47.8462 142.242 48.4909 140.577 48.4909 140.577L49.4175 140.991Z" fill="#95E3FF"/>
<path d="M49.8564 141.363C49.408 141.955 47.5661 142.52 47.9284 141.363C47.8036 139.74 48.8165 129.985 47.4076 127.972C46.4109 127.921 46.7225 129.633 46.7225 129.633C46.7225 129.633 46.9208 137.414 46.4892 138.474C46.0575 139.534 44.4417 140.498 44.4983 139.596C44.5548 138.693 44.4704 129.224 44.1017 128.365C43.733 127.506 43.5904 125.697 43.6901 125.53C44.5943 126.247 49.0772 127.093 50.5899 125.903C50.7211 130.332 50.3086 139.688 49.8564 141.363Z" fill="#D5D6DB"/>
<path d="M49.8399 141.784C50.5624 142.099 51.3326 142.297 52.1202 142.369C52.7382 142.382 52.1305 143.478 51.0761 143.537C50.0218 143.597 49.5968 143.084 48.4609 143.537C47.4335 143.462 48.0409 142.102 48.0409 142.102C48.0409 142.102 49.3356 142.868 49.8399 141.784Z" fill="#2A4F76"/>
<path opacity="0.207" d="M41.6944 108.593C41.6944 115.278 32.3601 120.696 20.8462 120.696C9.33241 120.696 0 115.279 0 108.593C0 104.401 3.67132 100.708 9.24916 98.5371C16.7302 95.8098 24.9662 95.8098 32.4472 98.5371C38.0231 100.708 41.6944 104.402 41.6944 108.593Z" fill="#0053D8"/>
<path opacity="0.489" d="M39.1156 106.742C39.1156 112.603 30.9323 117.355 20.8343 117.355C10.7363 117.355 2.55484 112.603 2.55484 106.742C2.55484 103.435 5.15983 100.481 9.24386 98.5357C16.7204 95.81 24.9515 95.81 32.428 98.5357C36.512 100.483 39.1156 103.435 39.1156 106.742Z" fill="url(#paint1_linear_97_1244)"/>
<path opacity="0.484" d="M4.82646 53.5408V105.936C4.82646 111.069 11.9942 115.23 20.8354 115.23C29.6765 115.23 36.8442 111.069 36.8442 105.936V53.5408H4.82646Z" fill="url(#paint2_linear_97_1244)"/>
<path opacity="0.425" d="M65.6009 93.2497C67.2841 94.2841 96.6418 111.091 96.6418 111.091C96.7856 111.114 96.9331 111.091 97.0623 111.025L98.9724 109.97V109.968C99.2275 109.803 99.4943 109.418 99.5272 108.526C99.5781 107.165 99.5906 71.4608 99.5943 55.0929L99.672 43.022C99.672 43.022 100.043 42.2794 98.3611 41.2466C96.6793 40.2138 67.3206 23.4056 67.3206 23.4056C67.2271 23.3911 67.1315 23.3955 67.0398 23.4186C66.9481 23.4417 66.8622 23.4829 66.7875 23.5398L66.3233 23.7959L66.3186 23.793V23.7984L65.1124 24.4645C65.0569 24.4869 65.0045 24.5159 64.9562 24.5508L64.9122 24.575L64.9144 24.5832C64.7047 24.756 64.5042 25.0979 64.4474 25.7651L64.4416 25.7613V25.8411C64.4382 25.8824 64.436 25.9257 64.4349 25.9698C64.3689 27.7392 64.3369 71.2141 64.3369 71.2141L64.2909 91.474C64.2538 91.591 64.2451 91.7148 64.2656 91.8355C64.286 91.9563 64.335 92.0708 64.4087 92.1698C64.7093 92.62 65.1188 92.9909 65.6009 93.2497Z" fill="url(#paint3_linear_97_1244)"/>
<path opacity="0.57" d="M65.6007 93.3485C67.2836 94.3829 96.6419 111.191 96.6419 111.191C96.6419 111.191 97.6233 111.411 97.6887 109.641C97.7397 108.28 97.7519 72.5779 97.7558 56.2104L97.8332 44.137C97.8332 44.137 98.2053 43.3944 96.5227 42.3627C94.84 41.331 65.4818 24.5206 65.4818 24.5206C65.4818 24.5206 64.5004 24.3004 64.435 26.0703C64.3695 27.8402 64.3375 71.3146 64.3375 71.3146L64.2901 91.5745C64.2528 91.6914 64.244 91.8152 64.2644 91.936C64.2847 92.0568 64.3337 92.1712 64.4074 92.2703C64.7097 92.7191 65.1192 93.0891 65.6007 93.3485Z" fill="url(#paint4_linear_97_1244)"/>
<g opacity="0.351">
<g opacity="0.351">
<path opacity="0.351" d="M80.3311 97.0043C79.3391 97.0043 78.1569 96.238 77.3259 94.9581C76.8391 94.2406 76.5551 93.4101 76.5027 92.5507C76.4787 91.7316 76.7603 91.0979 77.2947 90.7658C78.3711 90.0986 80.0701 90.8932 81.1635 92.576C81.6503 93.2935 81.9343 94.124 81.9867 94.9834C82.0106 95.8025 81.7294 96.4362 81.1947 96.7683C80.9361 96.9264 80.6363 97.0084 80.3314 97.0043H80.3311ZM78.1511 91.0489C77.9491 91.0449 77.7502 91.0978 77.5782 91.2013C77.2067 91.4316 77.0123 91.9058 77.0307 92.5351C77.0802 93.3016 77.3357 94.0417 77.7715 94.6807C78.6749 96.0712 80.1125 96.8282 80.9117 96.3311C81.2829 96.1006 81.4773 95.6267 81.4589 94.9973C81.4095 94.2309 81.1541 93.4908 80.7185 92.8517C80.0036 91.752 78.954 91.0489 78.1511 91.0489Z" fill="#226FFF"/>
</g>
</g>
<g opacity="0.891">
<g opacity="0.891">
<path opacity="0.891" d="M78.7648 97.8383C77.7729 97.8383 76.591 97.0723 75.7597 95.7921C74.6666 94.1093 74.653 92.2675 75.7293 91.6001C76.8057 90.9326 78.5044 91.7272 79.5981 93.4105C80.0849 94.128 80.3689 94.9586 80.4213 95.818C80.445 96.6371 80.1637 97.2708 79.629 97.6029C79.3701 97.7608 79.07 97.8426 78.7648 97.8383ZM76.2052 95.5158C77.1089 96.9068 78.5482 97.6627 79.3457 97.1662C79.7173 96.9357 79.9117 96.4618 79.8933 95.8324C79.8437 95.066 79.5882 94.3259 79.1525 93.6868C78.2488 92.2964 76.8112 91.5394 76.012 92.0364C75.2127 92.5335 75.3016 94.1259 76.2052 95.5172V95.5158Z" fill="white"/>
</g>
</g>
<path opacity="0.36" d="M78.8188 39.0806C78.3351 39.3338 77.6241 38.9598 77.2314 38.2441C77.0386 37.9101 76.9552 37.5262 76.9925 37.1444L74.7763 35.8509C74.7508 35.9507 74.705 36.0444 74.6415 36.1265C74.5781 36.2086 74.4983 36.2773 74.407 36.3286C73.9233 36.5815 73.2123 36.2074 72.8197 35.4921C72.659 35.2075 72.5729 34.8885 72.569 34.5636L70.3843 33.2883C70.3225 33.4514 70.2032 33.5877 70.0479 33.6726C69.5625 33.9263 68.8526 33.552 68.4605 32.8364C68.0684 32.1207 68.1439 31.3357 68.6293 31.0828C69.1147 30.8299 69.8242 31.2034 70.2166 31.919C70.4203 32.2687 70.5013 32.6738 70.4475 33.0726L72.5938 34.3248C72.6101 34.2043 72.6541 34.089 72.7226 33.9876C72.7911 33.8862 72.8823 33.8013 72.9893 33.7393C73.473 33.4861 74.1845 33.8602 74.5766 34.5758C74.7596 34.8952 74.8446 35.2593 74.8214 35.6246L77.046 36.9228C77.1032 36.7399 77.23 36.5854 77.4002 36.4911C77.884 36.2379 78.5955 36.612 78.9876 37.3276C79.3797 38.0432 79.3034 38.8269 78.8188 39.0806Z" fill="#226FFF"/>
<path opacity="0.646" d="M75.5185 40.9317C75.0348 41.1848 74.3235 40.8108 73.9311 40.0952C73.7384 39.7611 73.6551 39.3772 73.6924 38.9954L71.4762 37.7019C71.4508 37.8017 71.405 37.8955 71.3415 37.9775C71.2781 38.0596 71.1983 38.1282 71.1069 38.1793C70.6232 38.4325 69.912 38.0585 69.5196 37.3428C69.3588 37.0583 69.2727 36.7393 69.2689 36.4143L67.0839 35.139C67.0223 35.3022 66.9031 35.4385 66.7478 35.5234C66.2624 35.7771 65.5525 35.4028 65.1604 34.6872C64.7683 33.9715 64.8438 33.1862 65.3292 32.9336C65.8146 32.681 66.5241 33.0542 66.9165 33.7698C67.1204 34.1193 67.2015 34.5246 67.1474 34.9234L69.2937 36.1756C69.31 36.0551 69.354 35.9399 69.4225 35.8385C69.4911 35.7371 69.5822 35.6523 69.6892 35.5904C70.1729 35.3372 70.8842 35.7109 71.2765 36.4269C71.4595 36.7462 71.5445 37.1104 71.5211 37.4757L73.7459 38.7739C73.8031 38.5909 73.9299 38.4364 74.1001 38.3421C74.5842 38.089 75.2954 38.463 75.6875 39.1786C76.0796 39.8943 76.0031 40.678 75.5185 40.9317Z" fill="white"/>
<path opacity="0.36" d="M80.4962 58.4115C80.8802 58.6407 95.385 66.85 95.385 66.85C95.385 66.85 95.6078 66.8971 95.6173 66.4962C95.6237 66.2335 95.5783 61.8484 95.5462 58.8544L95.5212 55.1773C95.5212 55.1773 95.6047 55.0078 95.219 54.7786C94.8333 54.5494 80.3299 46.34 80.3299 46.34C80.2898 46.3356 80.2494 46.3448 80.2155 46.3662C80.1815 46.3875 80.1562 46.4196 80.1436 46.457L80.104 46.4298L80.1054 46.5932C80.1007 46.6266 80.0981 46.6603 80.0974 46.6941C80.0885 47.048 80.1631 54.6898 80.1809 56.5338L80.1923 58.0132C80.1841 58.0398 80.1824 58.0678 80.1872 58.0951C80.192 58.1225 80.2033 58.1483 80.2202 58.1706C80.2907 58.2717 80.3855 58.3544 80.4962 58.4115Z" fill="#226FFF"/>
<path d="M75.5051 61.0291C75.8891 61.2583 90.3939 69.4676 90.3939 69.4676C90.3939 69.4676 90.6167 69.5145 90.6262 69.1138C90.6326 68.8511 90.5872 64.466 90.5549 61.472L90.529 57.7933C90.529 57.7933 90.6126 57.624 90.2269 57.3948C89.8412 57.1656 75.3378 48.9562 75.3378 48.9562C75.2977 48.9518 75.2573 48.961 75.2233 48.9824C75.1894 49.0037 75.164 49.0358 75.1514 49.0733L75.1119 49.046L75.1133 49.2094C75.1086 49.2428 75.1059 49.2766 75.1052 49.3103C75.0963 49.6642 75.1712 57.3058 75.1888 59.1497L75.2002 60.6295C75.192 60.656 75.1902 60.684 75.1951 60.7113C75.1999 60.7387 75.2112 60.7645 75.228 60.7868C75.2978 60.8879 75.3919 60.9708 75.5021 61.0282L75.5051 61.0291Z" fill="url(#paint5_linear_97_1244)"/>
<path d="M87.1295 64.2033C86.2431 64.1579 85.1982 63.4028 84.4775 62.1955C84.0587 61.5251 83.8201 60.762 83.784 59.9773C83.774 59.2262 84.0374 58.6592 84.5256 58.3808C85.0138 58.1023 85.6482 58.1567 86.3124 58.5346C86.9939 58.951 87.5566 59.5293 87.948 60.2155C88.8949 61.7992 88.8729 63.4752 87.8996 64.0302C87.6659 64.161 87.3979 64.2213 87.1292 64.2033H87.1295ZM85.2695 58.7229C85.1033 58.7104 84.9372 58.7463 84.7919 58.8261C84.4752 59.0071 84.3042 59.4135 84.312 59.9694C84.3467 60.6651 84.5604 61.341 84.9334 61.9345C85.7037 63.2245 86.9413 63.9788 87.6347 63.5841C88.3281 63.1894 88.2632 61.7641 87.4929 60.4743C87.1475 59.865 86.6504 59.3507 86.0476 58.9791C85.8124 58.835 85.5457 58.747 85.2692 58.7224L85.2695 58.7229Z" fill="#FF6767"/>
<path d="M82.6172 58.3107C82.5753 58.3084 82.5346 58.2965 82.4983 58.2759L76.86 55.0557C76.8015 55.0202 76.7595 54.9638 76.743 54.8985C76.7264 54.8332 76.7366 54.7642 76.7713 54.7061C76.8061 54.648 76.8627 54.6055 76.929 54.5876C76.9954 54.5697 77.0662 54.5779 77.1265 54.6103L82.7648 57.8303C82.816 57.8594 82.8557 57.9046 82.8774 57.9585C82.8992 58.0123 82.9018 58.0718 82.8847 58.1273C82.8677 58.1828 82.832 58.231 82.7835 58.2642C82.7349 58.2975 82.6763 58.3138 82.6172 58.3105V58.3107Z" fill="#FEC672"/>
<path d="M82.486 60.461C82.4441 60.4588 82.4033 60.4469 82.3671 60.4261L76.7291 57.2061C76.6706 57.1707 76.6286 57.1143 76.6121 57.049C76.5955 56.9837 76.6057 56.9147 76.6404 56.8566C76.6752 56.7985 76.7318 56.756 76.7981 56.7381C76.8645 56.7202 76.9353 56.7284 76.9956 56.7608L82.6336 59.9808C82.6848 60.0099 82.7245 60.0551 82.7463 60.1089C82.768 60.1628 82.7706 60.2223 82.7536 60.2778C82.7365 60.3333 82.7008 60.3815 82.6523 60.4147C82.6037 60.448 82.5452 60.4643 82.486 60.461Z" fill="#FEC672"/>
<path opacity="0.16" d="M77.1521 78.3899L77.1577 80.147C77.1583 80.33 77.2078 80.5097 77.3015 80.6682C77.3952 80.8266 77.5296 80.9583 77.6916 81.0502L85.3221 85.3814C85.3823 85.4155 85.4505 85.4335 85.52 85.4336C85.5895 85.4336 85.6578 85.4158 85.718 85.3818C85.7782 85.3478 85.8282 85.2988 85.8628 85.2399C85.8974 85.181 85.9156 85.1142 85.9153 85.0463L85.9097 83.2892C85.9091 83.1061 85.8594 82.9265 85.7657 82.768C85.672 82.6096 85.5375 82.4778 85.3756 82.386L77.745 78.0545C77.6849 78.0204 77.6167 78.0024 77.5472 78.0024C77.4776 78.0023 77.4093 78.0202 77.3492 78.0542C77.289 78.0882 77.239 78.1371 77.2044 78.196C77.1697 78.2549 77.1516 78.3217 77.1519 78.3896L77.1521 78.3899Z" fill="#226FFF"/>
<path opacity="0.29" d="M77.1588 74.0244L77.1644 75.7815C77.165 75.9645 77.2146 76.1442 77.3082 76.3027C77.4019 76.4611 77.5363 76.5928 77.6982 76.6847L85.3288 81.0159C85.3889 81.05 85.4572 81.068 85.5267 81.0681C85.5962 81.0682 85.6645 81.0503 85.7247 81.0163C85.7849 80.9823 85.8348 80.9334 85.8695 80.8745C85.9041 80.8156 85.9222 80.7488 85.922 80.6808L85.9161 78.9237C85.9156 78.7407 85.8661 78.561 85.7724 78.4025C85.6788 78.244 85.5442 78.1123 85.3823 78.0205L77.7517 73.6893C77.6916 73.6552 77.6233 73.6372 77.5538 73.6371C77.4843 73.637 77.416 73.6549 77.3558 73.6889C77.2957 73.7229 77.2457 73.7719 77.2111 73.8308C77.1764 73.8897 77.1583 73.9565 77.1585 74.0244H77.1588Z" fill="#226FFF"/>
<path opacity="0.36" d="M77.1457 69.7943L77.1513 71.5514C77.1519 71.7344 77.2015 71.9141 77.2951 72.0725C77.3888 72.231 77.5232 72.3627 77.6851 72.4546L85.3157 76.786C85.3758 76.8201 85.4441 76.8381 85.5136 76.8382C85.5831 76.8382 85.6515 76.8204 85.7117 76.7864C85.7719 76.7524 85.8218 76.7035 85.8565 76.6446C85.8912 76.5857 85.9093 76.5189 85.9092 76.4509L85.9036 74.6935C85.903 74.5105 85.8534 74.3308 85.7596 74.1724C85.6659 74.0139 85.5314 73.8822 85.3694 73.7903L77.7389 69.4592C77.6788 69.425 77.6105 69.4069 77.5409 69.4068C77.4714 69.4067 77.403 69.4246 77.3428 69.4586C77.2826 69.4926 77.2326 69.5415 77.1979 69.6005C77.1633 69.6594 77.1452 69.7263 77.1454 69.7943H77.1457Z" fill="#226FFF"/>
<path opacity="0.5" d="M73.4998 80.9234L73.5057 82.6805C73.5062 82.8635 73.5558 83.0432 73.6495 83.2016C73.7431 83.3601 73.8776 83.4918 74.0395 83.5837L81.6701 87.9149C81.7302 87.949 81.7985 87.967 81.868 87.967C81.9375 87.9671 82.0058 87.9492 82.066 87.9152C82.1262 87.8812 82.1761 87.8323 82.2108 87.7734C82.2454 87.7145 82.2635 87.6477 82.2633 87.5798L82.2575 85.8226C82.2568 85.6396 82.2072 85.46 82.1136 85.3016C82.0199 85.1431 81.8855 85.0114 81.7236 84.9194L74.0933 80.5894C74.0332 80.5552 73.9649 80.5371 73.8953 80.537C73.8258 80.5369 73.7574 80.5548 73.6972 80.5888C73.637 80.6228 73.587 80.6717 73.5523 80.7307C73.5177 80.7896 73.4996 80.8565 73.4998 80.9245V80.9234Z" fill="white"/>
<path opacity="0.7" d="M73.506 76.5579L73.5119 78.315C73.5125 78.498 73.562 78.6777 73.6557 78.8362C73.7493 78.9946 73.8838 79.1263 74.0457 79.2182L81.6763 83.5494C81.7364 83.5836 81.8047 83.6017 81.8743 83.6018C81.9438 83.6019 82.0121 83.584 82.0724 83.55C82.1326 83.516 82.1825 83.467 82.2171 83.4081C82.2518 83.3491 82.2698 83.2823 82.2695 83.2143L82.264 81.4572C82.2633 81.2742 82.2136 81.0946 82.1199 80.9362C82.0262 80.7778 81.8917 80.6461 81.7298 80.5542L74.0992 76.2234C74.0391 76.1892 73.9709 76.1711 73.9014 76.171C73.8319 76.1709 73.7636 76.1887 73.7034 76.2226C73.6432 76.2566 73.5932 76.3055 73.5585 76.3643C73.5238 76.4232 73.5056 76.49 73.5058 76.5579H73.506Z" fill="white"/>
<path d="M73.4936 72.328L73.4995 74.0851C73.5 74.2681 73.5496 74.4477 73.6433 74.6061C73.7369 74.7645 73.8714 74.8962 74.0333 74.988L81.6639 79.3192C81.724 79.3534 81.7923 79.3715 81.8619 79.3716C81.9314 79.3717 81.9998 79.3538 82.06 79.3198C82.1202 79.2858 82.1702 79.2368 82.2048 79.1779C82.2395 79.119 82.2576 79.0521 82.2573 78.9841L82.2515 77.227C82.2508 77.044 82.2012 76.8644 82.1076 76.7059C82.0139 76.5475 81.8795 76.4157 81.7176 76.3238L74.0871 71.9924C74.0269 71.9583 73.9586 71.9404 73.8891 71.9404C73.8196 71.9404 73.7514 71.9583 73.6912 71.9923C73.6311 72.0263 73.5811 72.0752 73.5465 72.1341C73.5118 72.193 73.4937 72.2598 73.4939 72.3277L73.4936 72.328Z" fill="white"/>
<path d="M91.2439 47.0978C91.202 47.0955 91.1613 47.0835 91.125 47.0629L80.7953 41.1979C80.7375 41.1621 80.6961 41.1059 80.6799 41.0409C80.6637 40.9759 80.6739 40.9073 80.7084 40.8496C80.7429 40.7918 80.7991 40.7494 80.8649 40.7313C80.9308 40.7132 81.0013 40.7208 81.0615 40.7526L91.391 46.6176C91.4422 46.6468 91.4819 46.6919 91.5036 46.7458C91.5254 46.7998 91.528 46.8593 91.5109 46.9147C91.4938 46.9702 91.4581 47.0185 91.4095 47.0517C91.3609 47.0849 91.3023 47.1012 91.2431 47.0978H91.2439Z" fill="white"/>
<g opacity="0.5">
<path opacity="0.5" d="M73.1714 51.0179C73.1295 51.0157 73.0888 51.0038 73.0525 50.9831L67.4142 47.7631C67.3538 47.7286 67.3099 47.672 67.2921 47.6059C67.2744 47.5397 67.2842 47.4694 67.3195 47.4103C67.3549 47.3513 67.4127 47.3083 67.4804 47.291C67.5481 47.2736 67.6201 47.2832 67.6805 47.3178L73.3185 50.5375C73.3697 50.5666 73.4094 50.6118 73.4312 50.6657C73.453 50.7196 73.4555 50.7791 73.4384 50.8346C73.4213 50.8901 73.3856 50.9383 73.337 50.9716C73.2884 51.0048 73.2298 51.021 73.1706 51.0176L73.1714 51.0179Z" fill="white"/>
</g>
<g opacity="0.5">
<path opacity="0.5" d="M73.1711 60.6548C73.1292 60.6526 73.0884 60.6407 73.0522 60.6199L67.4139 57.3994C67.3548 57.3642 67.3121 57.3078 67.2951 57.2422C67.2781 57.1766 67.2882 57.1072 67.3231 57.0487C67.358 56.9903 67.415 56.9476 67.4818 56.9299C67.5486 56.9121 67.6198 56.9207 67.6802 56.9538L73.3182 60.1738C73.3694 60.2029 73.4091 60.2481 73.4309 60.302C73.4527 60.3559 73.4552 60.4154 73.4381 60.4709C73.421 60.5264 73.3853 60.5746 73.3367 60.6079C73.2881 60.6411 73.2295 60.6573 73.1703 60.654L73.1711 60.6548Z" fill="white"/>
</g>
<g opacity="0.5">
<path opacity="0.5" d="M73.1711 63.5427C73.1292 63.5405 73.0885 63.5286 73.0522 63.5081L67.4139 60.2878C67.3548 60.2527 67.3121 60.1962 67.2951 60.1307C67.2781 60.0651 67.2882 59.9956 67.3231 59.9372C67.358 59.8787 67.415 59.836 67.4818 59.8183C67.5486 59.8005 67.6198 59.8091 67.6802 59.8422L73.3181 63.0622C73.3694 63.0913 73.4091 63.1365 73.4308 63.1904C73.4526 63.2442 73.4551 63.3037 73.4381 63.3592C73.421 63.4147 73.3854 63.4629 73.3368 63.4961C73.2883 63.5294 73.2297 63.5457 73.1705 63.5424L73.1711 63.5427Z" fill="white"/>
</g>
<path opacity="0.626" d="M98.1184 41.6269L86.1613 23.5978L86.8664 23.2142C86.926 23.1818 86.9761 23.1349 87.0118 23.0781C87.0476 23.0214 87.0678 22.9565 87.0706 22.8899C87.0734 22.8233 87.0586 22.7571 87.0278 22.6976C86.9969 22.6381 86.9509 22.5874 86.8942 22.5503L84.3433 20.8672C84.3759 20.8103 84.3932 20.7463 84.3937 20.681L84.7927 11.3896C84.79 11.2879 84.7468 11.1914 84.6723 11.1204C84.5978 11.0495 84.4978 11.0098 84.3938 11.0098C84.2898 11.0098 84.1899 11.0495 84.1154 11.1204C84.0409 11.1914 83.9976 11.2879 83.9949 11.3896L83.5958 20.374L81.542 19.0195C81.4708 18.9726 81.3861 18.9494 81.3004 18.9533C81.2147 18.9572 81.1326 18.988 81.0662 19.0412C80.9999 19.0943 80.9529 19.167 80.9321 19.2483C80.9113 19.3297 80.918 19.4154 80.951 19.4928L81.8617 21.6231L67.5195 23.8643C67.4672 23.8717 67.4169 23.8892 67.3715 23.9158C67.3262 23.9424 67.2866 23.9775 67.2553 24.0191C67.224 24.0608 67.2014 24.108 67.1889 24.1583C67.1764 24.2085 67.1743 24.2607 67.1826 24.3117C67.1909 24.3627 67.2096 24.4117 67.2374 24.4556C67.2653 24.4996 67.3017 24.5377 67.3448 24.5677C67.3878 24.5978 67.4365 24.6192 67.4881 24.6307C67.5396 24.6421 67.593 24.6435 67.6451 24.6346L82.1791 22.3638L83.1859 24.7188C83.2075 24.7694 83.2398 24.815 83.2807 24.8526C83.3216 24.8902 83.3702 24.919 83.4233 24.937C83.4763 24.955 83.5326 24.9618 83.5886 24.957C83.6445 24.9522 83.6988 24.936 83.7479 24.9093L85.4617 23.9778L97.4481 42.0526C97.5057 42.1395 97.5962 42.2003 97.6998 42.2219C97.8033 42.2435 97.9114 42.224 98.0002 42.1676C98.089 42.1113 98.1513 42.0229 98.1734 41.9217C98.1954 41.8204 98.1755 41.7148 98.1179 41.628L98.1184 41.6269ZM82.2028 20.3944L85.9106 22.8405L85.6655 22.9736C85.61 22.9505 85.5497 22.9401 85.4894 22.9432C85.4291 22.9463 85.3703 22.9628 85.3176 22.9915C85.2648 23.0202 85.2194 23.0604 85.185 23.1088C85.1505 23.1573 85.1278 23.2128 85.1186 23.2711L83.7507 24.0148L82.2028 20.3944Z" fill="url(#paint6_linear_97_1244)"/>
<path d="M31.9847 87.525L30.1814 85.5291L29.3793 87.9112L31.1824 89.9071L31.9847 87.525Z" fill="white"/>
<path d="M32.0053 87.5403L34.6795 86.9489L33.8775 89.3308L31.2032 89.9225L32.0053 87.5403Z" fill="#D3D3D3"/>
<path d="M34.6702 86.9555L32.8788 84.8874L30.1714 85.5424L31.9631 87.6105L34.6702 86.9555Z" fill="#E9E9E9"/>
<path d="M32.8549 84.907L31.0515 82.911L30.2494 85.2932L32.0525 87.2891L32.8549 84.907Z" fill="white"/>
<path d="M32.8754 84.9223L35.5496 84.3309L34.7477 86.7128L32.0734 87.3045L32.8754 84.9223Z" fill="#D3D3D3"/>
<path d="M35.5404 84.3375L33.749 82.2695L31.0415 82.9244L32.8332 84.9925L35.5404 84.3375Z" fill="#E9E9E9"/>
<path d="M9.7775 83.9135L7.88225 83.5328L8.4747 85.2006L10.37 85.5813L9.7775 83.9135Z" fill="white"/>
<path d="M9.78785 83.9054L11.0396 82.4745L11.632 84.1423L10.3803 85.5732L9.78785 83.9054Z" fill="#D3D3D3"/>
<path d="M11.0461 82.482L9.12864 82.0567L7.88812 83.5351L9.80551 83.9601L11.0461 82.482Z" fill="#E9E9E9"/>
<path d="M13.6219 69.0187L12.2132 68.8348L12.7346 70.028L14.1433 70.2119L13.6219 69.0187Z" fill="white"/>
<path d="M13.6294 69.0129L14.4716 67.9005L14.993 69.0936L14.1508 70.206L13.6294 69.0129Z" fill="#D3D3D3"/>
<path d="M14.4775 67.9059L13.0495 67.6897L12.218 68.8355L13.6462 69.0517L14.4775 67.9059Z" fill="#E9E9E9"/>
<path d="M27.8248 61.1246L26.4161 60.9407L26.9375 62.1338L28.3462 62.3177L27.8248 61.1246Z" fill="white"/>
<path d="M27.8323 61.1187L28.6745 60.0063L29.1959 61.1994L28.3537 62.3118L27.8323 61.1187Z" fill="#D3D3D3"/>
<path d="M28.6804 60.0118L27.2524 59.7955L26.4209 60.9413L27.8491 61.1575L28.6804 60.0118Z" fill="#E9E9E9"/>
<path d="M21.9438 74.0255L20.3109 71.7887L19.234 74.1395L20.8667 76.3761L21.9438 74.0255Z" fill="white"/>
<path d="M21.958 74.0372L24.7604 73.7204L23.6835 76.0712L20.8811 76.388L21.958 74.0372Z" fill="#D3D3D3"/>
<path d="M24.7531 73.7234L23.1431 71.4193L20.3033 71.7983L21.9137 74.1022L24.7531 73.7234Z" fill="#E9E9E9"/>
<path d="M23.7301 76.4806L22.0972 74.2438L21.0203 76.5946L22.653 78.8312L23.7301 76.4806Z" fill="white"/>
<path d="M23.7443 76.4923L26.5467 76.1755L25.4698 78.5262L22.6674 78.843L23.7443 76.4923Z" fill="#D3D3D3"/>
<path d="M26.5395 76.1785L24.9295 73.8744L22.0897 74.2534L23.7001 76.5573L26.5395 76.1785Z" fill="#E9E9E9"/>
<path d="M25.5166 78.9356L23.8836 76.6989L22.8068 79.0496L24.4394 81.2862L25.5166 78.9356Z" fill="white"/>
<path d="M25.5307 78.9474L28.3331 78.6306L27.2562 80.9813L24.4538 81.2981L25.5307 78.9474Z" fill="#D3D3D3"/>
<path d="M28.3259 78.6335L26.7158 76.3295L23.876 76.7084L25.4864 79.0123L28.3259 78.6335Z" fill="#E9E9E9"/>
<path d="M24.9076 73.8956L23.2747 71.6589L22.1978 74.0096L23.8305 76.2463L24.9076 73.8956Z" fill="white"/>
<path d="M24.9218 73.9074L27.7242 73.5906L26.6473 75.9413L23.8449 76.2581L24.9218 73.9074Z" fill="#D3D3D3"/>
<path d="M27.717 73.5936L26.107 71.2895L23.2672 71.6685L24.8776 73.9724L27.717 73.5936Z" fill="#E9E9E9"/>
<path d="M23.1423 102.454L15.3516 100.436L13.2874 92.8212L21.0781 94.8388L23.1423 102.454Z" fill="white"/>
<path d="M23.1165 102.429L21.0097 94.8243L26.7262 89.2696L28.8329 96.8745L23.1165 102.429Z" fill="#D3D3D3"/>
<path d="M26.7387 89.2853L21.0559 94.8729L13.2756 92.8136L18.9584 87.226L26.7387 89.2853Z" fill="#E9E9E9"/>
<path opacity="0.294" d="M17.1463 103.859L25.3734 104.07L28.8391 108.457L24.649 112.354L16.2306 112.034L12.6517 107.458L17.1463 103.859Z" fill="#1361DB"/>
<path opacity="0.158" d="M30.8709 101.466L33.1888 101.525L34.1652 102.761L32.9847 103.859L30.6128 103.769L29.6044 102.48L30.8709 101.466Z" fill="#1361DB"/>
<path opacity="0.158" d="M9.42735 99.2881L11.7453 99.3474L12.7216 100.584L11.5412 101.681L9.16926 101.591L8.16083 100.302L9.42735 99.2881Z" fill="#1361DB"/>
<path opacity="0.425" d="M65.8789 107.677C67.5621 108.711 96.9197 125.518 96.9197 125.518C97.0636 125.541 97.2111 125.518 97.3403 125.452L99.2504 124.397V124.396C99.5055 124.231 99.7723 123.845 99.8052 122.953C98.2598 121.979 73.2847 108.085 67.0856 104.427C66.9995 104.955 64.5705 105.131 64.5689 105.901C64.5318 106.018 64.5231 106.142 64.5435 106.262C64.564 106.383 64.613 106.498 64.6867 106.597C64.9873 107.047 65.3967 107.418 65.8789 107.677Z" fill="#1772EC"/>
<path d="M97.9738 131.21L103.001 128.344V133.621L97.9738 136.487V131.21Z" fill="white"/>
<path d="M97.9733 131.21L92.9463 128.344V133.621L97.9733 136.487V131.21Z" fill="#D3D3D3"/>
<path d="M92.9482 128.346L97.9749 125.344L103.002 128.346L97.9749 131.348L92.9482 128.346Z" fill="#E9E9E9"/>
<path d="M97.9738 125.386L103.001 122.52V127.797L97.9738 130.663V125.386Z" fill="white"/>
<path d="M97.9733 125.386L92.9463 122.52V127.797L97.9733 130.663V125.386Z" fill="#D3D3D3"/>
<path d="M92.9482 122.521L97.9749 119.519L103.002 122.521L97.9749 125.523L92.9482 122.521Z" fill="#E9E9E9"/>
<path d="M92.5116 134.365L97.5385 131.499V136.776L92.5116 139.642V134.365Z" fill="white"/>
<path d="M92.511 134.365L87.484 131.499V136.776L92.511 139.642V134.365Z" fill="#D3D3D3"/>
<path d="M87.4859 131.501L92.5127 128.499L97.5397 131.501L92.5127 134.503L87.4859 131.501Z" fill="#E9E9E9"/>
<path d="M87.0496 137.52L92.0766 134.654V139.931L87.0496 142.797V137.52Z" fill="white"/>
<path d="M87.049 137.52L82.022 134.654V139.931L87.049 142.797V137.52Z" fill="#D3D3D3"/>
<path d="M82.024 134.656L87.0507 131.654L92.0777 134.656L87.0507 137.657L82.024 134.656Z" fill="#E9E9E9"/>
</g>
<defs>
<linearGradient id="paint0_linear_97_1244" x1="51.6239" y1="144.311" x2="44.1365" y2="138.942" gradientUnits="userSpaceOnUse">
<stop stop-color="#0059E1"/>
<stop offset="1" stop-color="#015AE2"/>
</linearGradient>
<linearGradient id="paint1_linear_97_1244" x1="2.55484" y1="106.923" x2="39.1156" y2="106.923" gradientUnits="userSpaceOnUse">
<stop stop-color="white" stop-opacity="0.878"/>
<stop offset="1" stop-color="white" stop-opacity="0.231"/>
</linearGradient>
<linearGradient id="paint2_linear_97_1244" x1="20.8354" y1="114.119" x2="20.8354" y2="55.7616" gradientUnits="userSpaceOnUse">
<stop stop-color="white" stop-opacity="0.878"/>
<stop offset="1" stop-color="white" stop-opacity="0"/>
</linearGradient>
<linearGradient id="paint3_linear_97_1244" x1="-276.226" y1="136.007" x2="-276.375" y2="135.992" gradientUnits="userSpaceOnUse">
<stop stop-color="white" stop-opacity="0.678"/>
<stop offset="1" stop-color="white" stop-opacity="0.482"/>
</linearGradient>
<linearGradient id="paint4_linear_97_1244" x1="65.968" y1="28.8462" x2="111.322" y2="43.6192" gradientUnits="userSpaceOnUse">
<stop stop-color="white" stop-opacity="0.878"/>
<stop offset="1" stop-color="white" stop-opacity="0.141"/>
</linearGradient>
<linearGradient id="paint5_linear_97_1244" x1="75.7874" y1="52.4631" x2="93.6123" y2="62.2071" gradientUnits="userSpaceOnUse">
<stop stop-color="white" stop-opacity="0.867"/>
<stop offset="1" stop-color="white" stop-opacity="0.365"/>
</linearGradient>
<linearGradient id="paint6_linear_97_1244" x1="82.6799" y1="0.00979544" x2="82.6799" y2="42.2305" gradientUnits="userSpaceOnUse">
<stop stop-color="white" stop-opacity="0"/>
<stop offset="0.512" stop-color="white" stop-opacity="0.961"/>
<stop offset="1" stop-color="white"/>
</linearGradient>
<clipPath id="clip0_97_1244">
<rect width="103" height="147" fill="white"/>
</clipPath>
</defs>
</svg>
