<svg width="143" height="128" viewBox="0 0 143 128" fill="none" xmlns="http://www.w3.org/2000/svg">
<g clip-path="url(#clip0_97_974)">
<path d="M36.8215 84.7674L55.845 -3.05176e-05L132.989 64.137L40.8971 88.1885L36.8215 84.7674Z" fill="url(#paint0_linear_97_974)"/>
<path d="M58.1924 30.6579C60.9741 30.6579 63.2291 28.4664 63.2291 25.7629C63.2291 23.0596 60.9741 20.868 58.1924 20.868C55.4107 20.868 53.1557 23.0596 53.1557 25.7629C53.1557 28.4664 55.4107 30.6579 58.1924 30.6579Z" fill="url(#paint1_linear_97_974)"/>
<g opacity="0.5">
<path opacity="0.5" d="M118.574 35.6236C117.958 37.8133 115.112 39.1216 111.203 39.3296C108.457 39.4367 105.718 39.1318 103.08 38.4252C100.425 37.7786 97.8934 36.7351 95.5722 35.3307C92.3072 33.2876 90.529 30.796 91.1443 28.6062C91.7596 26.4165 94.6055 25.1082 98.504 24.8977C98.2858 25.0946 98.0671 25.292 97.8675 25.5056C94.5724 25.8019 92.1966 26.9313 91.6869 28.7451C91.1773 30.5589 92.6422 32.6711 95.3401 34.5006C97.3717 35.8833 100.117 37.0922 103.231 37.8889C106.357 38.6886 109.366 38.9522 111.85 38.7245C115.144 38.4285 117.521 37.2988 118.031 35.485C118.54 33.6712 117.075 31.5587 114.378 29.7295C114.314 29.447 114.232 29.1689 114.135 28.8965C117.411 30.9425 119.189 33.4341 118.574 35.6236Z" fill="url(#paint2_linear_97_974)"/>
</g>
<path d="M105.156 41.2415C110.569 41.2415 114.957 36.9769 114.957 31.7163C114.957 26.4556 110.569 22.191 105.156 22.191C99.7432 22.191 95.355 26.4556 95.355 31.7163C95.355 36.9769 99.7432 41.2415 105.156 41.2415Z" fill="url(#paint3_linear_97_974)"/>
<path d="M105.565 67.4361C106.843 67.4361 107.879 66.4884 107.879 65.3193C107.879 64.1503 106.843 63.2026 105.565 63.2026C104.287 63.2026 103.251 64.1503 103.251 65.3193C103.251 66.4884 104.287 67.4361 105.565 67.4361Z" fill="url(#paint4_linear_97_974)"/>
<path d="M58.1924 76.4322C59.0194 76.4322 59.6898 75.6029 59.6898 74.58C59.6898 73.5571 59.0194 72.7279 58.1924 72.7279C57.3654 72.7279 56.695 73.5571 56.695 74.58C56.695 75.6029 57.3654 76.4322 58.1924 76.4322Z" fill="url(#paint5_linear_97_974)"/>
<path d="M108.968 62.9378C109.118 62.9378 109.24 62.8193 109.24 62.6732C109.24 62.527 109.118 62.4086 108.968 62.4086C108.818 62.4086 108.696 62.527 108.696 62.6732C108.696 62.8193 108.818 62.9378 108.968 62.9378Z" fill="white"/>
<path d="M115.911 46.5331C115.986 46.5331 116.047 46.4147 116.047 46.2685C116.047 46.1224 115.986 46.0039 115.911 46.0039C115.835 46.0039 115.774 46.1224 115.774 46.2685C115.774 46.4147 115.835 46.5331 115.911 46.5331Z" fill="white"/>
<path d="M126.665 49.7085C126.815 49.7085 126.937 49.5308 126.937 49.3116C126.937 49.0924 126.815 48.9147 126.665 48.9147C126.514 48.9147 126.392 49.0924 126.392 49.3116C126.392 49.5308 126.514 49.7085 126.665 49.7085Z" fill="white"/>
<path d="M47.7106 63.9964C47.8609 63.9964 47.9828 63.8779 47.9828 63.7318C47.9828 63.5857 47.8609 63.4672 47.7106 63.4672C47.5602 63.4672 47.4383 63.5857 47.4383 63.7318C47.4383 63.8779 47.5602 63.9964 47.7106 63.9964Z" fill="white"/>
<path d="M87.596 22.9848C87.8215 22.9848 88.0044 22.8663 88.0044 22.7202C88.0044 22.574 87.8215 22.4556 87.596 22.4556C87.3704 22.4556 87.1876 22.574 87.1876 22.7202C87.1876 22.8663 87.3704 22.9848 87.596 22.9848Z" fill="white"/>
<path d="M101.617 16.1054C101.768 16.1054 101.889 15.9277 101.889 15.7085C101.889 15.4893 101.768 15.3116 101.617 15.3116C101.467 15.3116 101.345 15.4893 101.345 15.7085C101.345 15.9277 101.467 16.1054 101.617 16.1054Z" fill="white"/>
<path d="M130.204 35.9497C130.505 35.9497 130.749 35.772 130.749 35.5528C130.749 35.3336 130.505 35.1559 130.204 35.1559C129.903 35.1559 129.659 35.3336 129.659 35.5528C129.659 35.772 129.903 35.9497 130.204 35.9497Z" fill="white"/>
<path d="M59.1453 13.9887C59.2957 13.9887 59.4176 13.8702 59.4176 13.7241C59.4176 13.5779 59.2957 13.4595 59.1453 13.4595C58.995 13.4595 58.8731 13.5779 58.8731 13.7241C58.8731 13.8702 58.995 13.9887 59.1453 13.9887Z" fill="white"/>
<path d="M110.602 16.37C110.752 16.37 110.874 16.2515 110.874 16.1054C110.874 15.9593 110.752 15.8408 110.602 15.8408C110.451 15.8408 110.329 15.9593 110.329 16.1054C110.329 16.2515 110.451 16.37 110.602 16.37Z" fill="white"/>
<path d="M108.968 47.5917C109.118 47.5917 109.24 47.5325 109.24 47.4594C109.24 47.3864 109.118 47.3271 108.968 47.3271C108.818 47.3271 108.696 47.3864 108.696 47.4594C108.696 47.5325 108.818 47.5917 108.968 47.5917Z" fill="white"/>
<path d="M62.1398 47.3272C62.2902 47.3272 62.4121 47.2087 62.4121 47.0626C62.4121 46.9164 62.2902 46.798 62.1398 46.798C61.9895 46.798 61.8676 46.9164 61.8676 47.0626C61.8676 47.2087 61.9895 47.3272 62.1398 47.3272Z" fill="white"/>
<path d="M53.0196 82.7824C53.0947 82.7824 53.1557 82.7232 53.1557 82.6501C53.1557 82.5771 53.0947 82.5178 53.0196 82.5178C52.9444 82.5178 52.8834 82.5771 52.8834 82.6501C52.8834 82.7232 52.9444 82.7824 53.0196 82.7824Z" fill="white"/>
<path d="M53.0196 69.8174C53.0947 69.8174 53.1557 69.7582 53.1557 69.6851C53.1557 69.612 53.0947 69.5528 53.0196 69.5528C52.9444 69.5528 52.8834 69.612 52.8834 69.6851C52.8834 69.7582 52.9444 69.8174 53.0196 69.8174Z" fill="white"/>
<path d="M39.9513 80.9305C40.0265 80.9305 40.0874 80.8121 40.0874 80.6659C40.0874 80.5198 40.0265 80.4013 39.9513 80.4013C39.8761 80.4013 39.8152 80.5198 39.8152 80.6659C39.8152 80.8121 39.8761 80.9305 39.9513 80.9305Z" fill="white"/>
<path d="M74.1191 74.0509C74.4198 74.0509 74.6636 73.7547 74.6636 73.3894C74.6636 73.0241 74.4198 72.7279 74.1191 72.7279C73.8183 72.7279 73.5746 73.0241 73.5746 73.3894C73.5746 73.7547 73.8183 74.0509 74.1191 74.0509Z" fill="white"/>
<path d="M62.5482 53.4128C62.6234 53.4128 62.6844 53.3535 62.6844 53.2805C62.6844 53.2074 62.6234 53.1482 62.5482 53.1482C62.473 53.1482 62.4121 53.2074 62.4121 53.2805C62.4121 53.3535 62.473 53.4128 62.5482 53.4128Z" fill="white"/>
<path d="M68.5381 28.5412C68.6133 28.5412 68.6742 28.4819 68.6742 28.4089C68.6742 28.3358 68.6133 28.2766 68.5381 28.2766C68.4629 28.2766 68.402 28.3358 68.402 28.4089C68.402 28.4819 68.4629 28.5412 68.5381 28.5412Z" fill="white"/>
<path d="M68.6742 38.331C68.8246 38.331 68.9465 38.1533 68.9465 37.9342C68.9465 37.715 68.8246 37.5373 68.6742 37.5373C68.5239 37.5373 68.402 37.715 68.402 37.9342C68.402 38.1533 68.5239 38.331 68.6742 38.331Z" fill="white"/>
<path d="M53.9725 34.8914C54.1228 34.8914 54.2447 34.7729 54.2447 34.6268C54.2447 34.4806 54.1228 34.3622 53.9725 34.3622C53.8221 34.3622 53.7002 34.4806 53.7002 34.6268C53.7002 34.7729 53.8221 34.8914 53.9725 34.8914Z" fill="white"/>
<path d="M93.5856 41.5061C93.8112 41.5061 93.994 41.3877 93.994 41.2416C93.994 41.0954 93.8112 40.977 93.5856 40.977C93.3601 40.977 93.1773 41.0954 93.1773 41.2416C93.1773 41.3877 93.3601 41.5061 93.5856 41.5061Z" fill="white"/>
<path d="M99.4391 66.6423C99.5895 66.6423 99.7114 66.5239 99.7114 66.3777C99.7114 66.2316 99.5895 66.1131 99.4391 66.1131C99.2888 66.1131 99.1669 66.2316 99.1669 66.3777C99.1669 66.5239 99.2888 66.6423 99.4391 66.6423Z" fill="white"/>
<path d="M99.4391 57.9108C99.5895 57.9108 99.7114 57.7923 99.7114 57.6462C99.7114 57.5001 99.5895 57.3816 99.4391 57.3816C99.2888 57.3816 99.1669 57.5001 99.1669 57.6462C99.1669 57.7923 99.2888 57.9108 99.4391 57.9108Z" fill="white"/>
<path d="M84.8735 60.0275C84.9486 60.0275 85.0096 59.9683 85.0096 59.8952C85.0096 59.8222 84.9486 59.7629 84.8735 59.7629C84.7983 59.7629 84.7373 59.8222 84.7373 59.8952C84.7373 59.9683 84.7983 60.0275 84.8735 60.0275Z" fill="white"/>
<path d="M91.6798 25.6306C91.755 25.6306 91.816 25.5714 91.816 25.4984C91.816 25.4253 91.755 25.3661 91.6798 25.3661C91.6046 25.3661 91.5437 25.4253 91.5437 25.4984C91.5437 25.5714 91.6046 25.6306 91.6798 25.6306Z" fill="white"/>
<path d="M91.6798 16.3699C91.755 16.3699 91.816 16.3107 91.816 16.2376C91.816 16.1646 91.755 16.1053 91.6798 16.1053C91.6046 16.1053 91.5437 16.1646 91.5437 16.2376C91.5437 16.3107 91.6046 16.3699 91.6798 16.3699Z" fill="white"/>
<path d="M76.8416 19.2805C76.992 19.2805 77.1139 19.2212 77.1139 19.1482C77.1139 19.0751 76.992 19.0159 76.8416 19.0159C76.6913 19.0159 76.5694 19.0751 76.5694 19.1482C76.5694 19.2212 76.6913 19.2805 76.8416 19.2805Z" fill="white"/>
<path d="M124.759 37.0081C124.909 37.0081 125.031 36.8304 125.031 36.6112C125.031 36.392 124.909 36.2143 124.759 36.2143C124.609 36.2143 124.487 36.392 124.487 36.6112C124.487 36.8304 124.609 37.0081 124.759 37.0081Z" fill="white"/>
<path d="M85.3348 49.2218C85.475 49.2308 85.5971 49.1267 85.6076 48.9891C85.6182 48.8516 85.5131 48.7328 85.3729 48.7238C85.2328 48.7148 85.1106 48.819 85.1001 48.9565C85.0896 49.094 85.1947 49.2128 85.3348 49.2218Z" fill="white"/>
<path d="M85.5059 48.8459L68.8878 39.527L68.785 39.7001L85.4031 49.019L85.5059 48.8459Z" fill="url(#paint6_linear_97_974)"/>
<path d="M131.083 29.3513C131.223 29.3603 131.345 29.2561 131.356 29.1186C131.366 28.9811 131.261 28.8623 131.121 28.8533C130.981 28.8443 130.859 28.9485 130.848 29.086C130.837 29.2235 130.943 29.3423 131.083 29.3513Z" fill="white"/>
<path d="M131.254 28.9754L114.636 19.6564L114.533 19.8295L131.151 29.1485L131.254 28.9754Z" fill="url(#paint7_linear_97_974)"/>
<path opacity="0.277" d="M24.5799 115.338C23.0107 114.429 27.8415 107.296 31.3548 104.114C34.8681 100.933 35.3762 100.596 36.8992 102.185C38.4221 103.773 38.4411 105.475 34.9278 108.656C31.4145 111.837 26.1493 116.248 24.5799 115.338Z" fill="url(#paint8_linear_97_974)"/>
<path opacity="0.64" d="M35.2375 113.526L29.7229 102.988C29.7187 102.978 29.712 102.969 29.7033 102.961C29.6857 102.937 29.6621 102.917 29.6346 102.904C29.607 102.89 29.5765 102.884 29.5457 102.885V102.793C29.5458 102.775 29.5422 102.757 29.5351 102.74C29.528 102.723 29.5176 102.708 29.5044 102.695C29.4912 102.682 29.4755 102.672 29.4582 102.665C29.441 102.658 29.4225 102.655 29.4038 102.655H29.2898C29.2711 102.655 29.2526 102.658 29.2354 102.665C29.2181 102.672 29.2024 102.682 29.1892 102.695C29.176 102.708 29.1656 102.723 29.1585 102.74C29.1514 102.757 29.1478 102.775 29.1479 102.793V102.896C29.1225 102.887 29.0954 102.883 29.0683 102.884C29.0412 102.886 29.0146 102.892 28.9903 102.904C28.9513 102.922 28.9194 102.951 28.8996 102.988L23.3851 113.527C23.3729 113.549 23.3654 113.574 23.3632 113.599C23.3609 113.625 23.3639 113.65 23.372 113.674C23.3801 113.699 23.393 113.721 23.4102 113.74C23.4273 113.76 23.4482 113.776 23.4717 113.787C23.5193 113.811 23.5747 113.815 23.6258 113.799C23.6768 113.784 23.7193 113.749 23.7439 113.703L25.225 110.874L28.7306 109.457C28.7953 109.559 28.8855 109.643 28.9928 109.701C29.1001 109.759 29.221 109.79 29.3439 109.791C29.4669 109.791 29.5879 109.761 29.6956 109.703C29.8033 109.646 29.8941 109.562 29.9595 109.461L33.3864 110.843L34.8838 113.702C34.8949 113.726 34.9108 113.748 34.9307 113.765C34.9506 113.783 34.9739 113.797 34.9994 113.805C35.0248 113.814 35.0518 113.818 35.0787 113.816C35.1056 113.814 35.1319 113.807 35.1559 113.795C35.1799 113.783 35.2011 113.767 35.2184 113.746C35.2356 113.726 35.2484 113.703 35.2561 113.678C35.2637 113.653 35.2661 113.626 35.2629 113.6C35.2597 113.574 35.2512 113.549 35.2377 113.526H35.2375ZM29.1479 108.547C29.0061 108.58 28.8795 108.658 28.7876 108.768C28.6957 108.878 28.6438 109.014 28.6399 109.156C28.6413 109.197 28.6466 109.238 28.6557 109.278L25.3628 110.607L29.026 103.601L29.1479 103.372V108.547ZM30.0382 109.282C30.046 109.241 30.0499 109.198 30.0499 109.156C30.0468 109.015 29.9957 108.878 29.9045 108.768C29.8133 108.658 29.6871 108.581 29.5457 108.548V103.506L29.5969 103.602L33.2484 110.58L30.0382 109.282Z" fill="url(#paint9_linear_97_974)"/>
<path d="M32.8147 95.2047L28.4741 99.4461L26.9968 100.893L24.2555 103.573C24.0566 103.779 23.7817 103.901 23.4908 103.911C23.2 103.921 22.9169 103.818 22.7036 103.626C22.5445 103.484 22.4332 103.298 22.3846 103.094L22.4986 103.159C22.5912 103.213 22.6938 103.249 22.8008 103.265C22.9077 103.281 23.0169 103.276 23.1219 103.251C23.2269 103.226 23.3258 103.18 23.4128 103.118C23.4998 103.056 23.5733 102.977 23.629 102.887L23.6445 102.86C23.7564 102.678 23.7894 102.46 23.7363 102.254C23.6832 102.048 23.5483 101.871 23.3611 101.762L23.1011 101.613L30.5457 93.26L32.8147 95.2047Z" fill="url(#paint10_linear_97_974)"/>
<path d="M39.9472 87.576L37.4893 85.6008C38.0066 85.4706 38.9072 85.9223 39.2862 86.2594C39.6259 86.6315 39.8545 87.0868 39.9472 87.576V87.576Z" fill="url(#paint11_linear_97_974)"/>
<path d="M41.486 89.4813L37.3907 93.4849C37.2878 93.5851 37.1493 93.6434 37.0036 93.6478C36.8579 93.6522 36.716 93.6023 36.6069 93.5084L36.2614 93.2115L33.7294 95.6838C33.6613 95.7496 33.57 95.7879 33.474 95.7908C33.378 95.7937 33.2844 95.761 33.2122 95.6995L32.7539 95.3089L30.4398 93.3245L30.1063 93.0395C30.0311 92.975 29.9851 92.8842 29.9783 92.7869C29.9715 92.6897 30.0045 92.5937 30.0701 92.5199L32.4052 89.9031L31.9228 89.493C31.8105 89.3954 31.7421 89.2589 31.7323 89.1128C31.7225 88.9667 31.7721 88.8228 31.8705 88.7119L35.5277 84.607C35.6255 84.4974 35.7636 84.4294 35.9125 84.4177C36.0613 84.406 36.2089 84.4516 36.3235 84.5446L37.5252 85.5093L40.033 87.5247L41.4487 88.6624C41.5093 88.7121 41.5586 88.7734 41.5935 88.8425C41.6285 88.9116 41.6483 88.987 41.6518 89.0639C41.6553 89.1409 41.6424 89.2176 41.6139 89.2895C41.5853 89.3613 41.5418 89.4266 41.486 89.4813V89.4813Z" fill="url(#paint12_linear_97_974)"/>
<path d="M23.6443 102.861L23.6285 102.887C23.5728 102.977 23.4993 103.056 23.4123 103.118C23.3252 103.181 23.2264 103.226 23.1213 103.251C23.0163 103.276 22.9072 103.281 22.8003 103.265C22.6933 103.25 22.5906 103.213 22.4981 103.159L22.3837 103.094L20.8591 102.206C20.7661 102.237 20.6675 102.248 20.5697 102.239C20.4719 102.229 20.3773 102.2 20.292 102.153C19.9059 101.927 19.8311 101.357 20.1267 100.878C20.4224 100.399 20.9737 100.193 21.3595 100.415C21.494 100.495 21.5956 100.618 21.647 100.763L23.1003 101.613L23.3603 101.762C23.5475 101.872 23.6825 102.049 23.7358 102.254C23.789 102.46 23.7561 102.678 23.6443 102.861V102.861Z" fill="url(#paint13_linear_97_974)"/>
<path opacity="0.81" d="M30.1052 98.1263V101.916C30.1079 102.05 30.0716 102.182 30.0005 102.297C29.9294 102.413 29.8265 102.506 29.7033 102.567V102.961C29.6858 102.936 29.6621 102.916 29.6346 102.903C29.6071 102.89 29.5765 102.883 29.5457 102.884V102.792C29.5458 102.774 29.5422 102.756 29.5351 102.74C29.5279 102.723 29.5175 102.708 29.5043 102.695C29.4911 102.682 29.4755 102.672 29.4582 102.665C29.441 102.658 29.4225 102.654 29.4039 102.655H29.2895C29.2709 102.654 29.2524 102.658 29.2351 102.665C29.2179 102.672 29.2022 102.682 29.189 102.695C29.1758 102.707 29.1653 102.723 29.1583 102.739C29.1512 102.756 29.1476 102.774 29.1477 102.792V102.896C29.1223 102.886 29.0952 102.882 29.068 102.884C29.0409 102.885 29.0143 102.892 28.99 102.904V102.563C28.8679 102.501 28.7655 102.409 28.6939 102.294C28.6224 102.18 28.5845 102.049 28.5844 101.916V99.3358L30.0616 97.8887C30.0923 97.9643 30.1072 98.0451 30.1052 98.1263V98.1263Z" fill="url(#paint14_linear_97_974)"/>
<path opacity="0.635" d="M19.1003 121.381C17.0114 119.958 14.6652 119.709 13.8601 120.826C13.0549 121.942 14.0956 124.001 16.1846 125.424C18.2735 126.847 20.6196 127.095 21.4248 125.978C22.23 124.862 21.1893 122.803 19.1003 121.381Z" fill="url(#paint15_linear_97_974)"/>
<path d="M15.9152 102.348L15.4736 101.206L16.1343 100.113L16.1108 98.7138C16.1108 98.7138 18.5521 97.5239 19.0349 98.65C19.5177 99.7762 18.7811 100.648 18.5917 101.114C18.4023 101.581 17.6136 101.391 17.1342 101.293C17.1129 101.499 17.0633 101.702 16.9867 101.896L15.9152 102.348Z" fill="#95E3FF"/>
<path d="M17.2742 99.7139C17.5539 100.137 17.6634 100.305 18.07 99.5693C18.6005 99.5261 20.4265 99.4081 18.62 98.1009C17.4286 97.4596 16.2068 97.5131 15.7648 98.3513C15.3228 99.1895 14.9501 100.621 15.783 101.01C15.8276 101.028 15.8737 101.042 15.9208 101.052C16.0294 101.076 16.1417 101.078 16.2511 101.058C16.3606 101.039 16.4651 100.999 16.5586 100.941C16.6521 100.882 16.7327 100.806 16.796 100.718C16.8592 100.629 16.9037 100.528 16.927 100.423C16.9208 100.044 17.0342 99.6228 17.2742 99.7139Z" fill="#2A4F76"/>
<path d="M14.9455 121.698C14.9455 121.698 15.0056 121.737 14.7437 122.29C14.4818 122.843 15.7238 123.409 15.922 122.723C16.0015 122.269 17.0783 122.035 17.2125 121.453C17.3468 120.871 17.0691 120.626 16.4682 120.8L14.9455 121.698Z" fill="#2A4F76"/>
<path d="M15.2406 120.548C15.1861 120.881 15.158 121.217 15.1565 121.553C15.1619 121.96 14.9879 121.914 15.1565 122.053C15.5649 122.39 16.1535 121.501 16.1535 121.501C16.1535 121.501 16.0092 120.228 16.0007 120.177L15.2406 120.548Z" fill="#95E3FF"/>
<path d="M18.0769 122.345C18.0769 122.345 17.5493 123.7 17.9724 124.183C18.8472 124.24 19.2776 123.495 19.1703 123.375C19.0378 123.154 18.9253 122.922 18.8344 122.682L18.0769 122.345Z" fill="#95E3FF"/>
<path d="M19.796 110.402C18.5556 111.37 14.8872 110.681 14.1467 110.098C14.105 110.881 14.2197 111.664 14.4845 112.405C14.7854 113.105 14.8548 120.813 14.8085 121.547C14.7622 122.281 16.0859 121.496 16.4385 120.633C16.7911 119.77 16.6291 113.438 16.6291 113.438C16.6291 113.438 16.3734 112.044 17.1891 112.086C18.3424 113.724 17.5131 121.664 17.6157 122.985C17.3187 123.928 18.8264 123.468 19.1948 122.985C19.5656 121.62 19.9024 114.006 19.796 110.402Z" fill="#D5D6DB"/>
<path d="M17.7086 123.697C17.7086 123.697 17.2115 124.802 18.053 124.864C18.9833 124.495 19.3326 124.912 20.194 124.864C21.0554 124.815 21.5553 123.923 21.0484 123.913C20.4038 123.854 19.7734 123.693 19.1823 123.436C18.7685 124.319 17.7086 123.697 17.7086 123.697Z" fill="#2A4F76"/>
<path d="M17.1698 101.283C17.7298 101.146 18.885 101.665 19.3571 102.297C20.4077 104.155 21.176 106.731 20.4235 106.827C20.0198 106.88 19.6092 106.846 19.2201 106.729C19.0146 106.633 19.3691 105.913 19.87 108.827C20.371 111.741 18.3168 111.734 16.3895 111.481C14.4622 111.228 13.3487 110.714 13.7282 108.304C14.1077 105.893 13.7162 105.504 13.6283 103.707C13.5404 101.909 15.0639 100.864 15.4524 101.131C15.6841 101.861 16.6108 101.419 17.1698 101.283Z" fill="white"/>
<path d="M21.5492 103.85C21.6484 103.508 21.7105 103.157 21.7345 102.802C21.688 102.633 21.3394 101.664 21.9007 101.293C22.462 100.922 22.8544 102.125 22.8938 102.543C22.9332 102.96 21.7663 104.737 21.7663 104.737L21.5492 103.85Z" fill="#95E3FF"/>
<path d="M21.4871 103.081C21.78 102.934 22.6714 103.902 22.3973 104.515C22.1232 105.128 21.5311 107.322 20.8352 107.19C20.1392 107.058 18.7404 106.586 18.2564 106.037C18.0925 106.502 16.4949 103.155 17.5448 103.78C18.5947 104.405 20.1569 105.249 20.3323 105.451C20.5181 104.885 21.1944 103.229 21.4871 103.081Z" fill="white"/>
<path d="M123.244 43.6501C123.397 43.6501 123.522 43.529 123.522 43.3797C123.522 43.2303 123.397 43.1093 123.244 43.1093C123.09 43.1093 122.965 43.2303 122.965 43.3797C122.965 43.529 123.09 43.6501 123.244 43.6501Z" fill="white"/>
<path d="M118.797 55.6419C118.95 55.6419 119.075 55.5209 119.075 55.3715C119.075 55.2222 118.95 55.1011 118.797 55.1011C118.643 55.1011 118.519 55.2222 118.519 55.3715C118.519 55.5209 118.643 55.6419 118.797 55.6419Z" fill="white"/>
<path d="M123.244 29.1005C123.397 29.1005 123.522 28.9794 123.522 28.8301C123.522 28.6808 123.397 28.5597 123.244 28.5597C123.09 28.5597 122.965 28.6808 122.965 28.8301C122.965 28.9794 123.09 29.1005 123.244 29.1005Z" fill="white"/>
<path d="M127.565 46.0809C127.719 46.0809 127.843 45.9599 127.843 45.8105C127.843 45.6612 127.719 45.5401 127.565 45.5401C127.411 45.5401 127.287 45.6612 127.287 45.8105C127.287 45.9599 127.411 46.0809 127.565 46.0809Z" fill="white"/>
<path d="M131.897 48.4477C132.05 48.4477 132.175 48.3266 132.175 48.1773C132.175 48.0279 132.05 47.9069 131.897 47.9069C131.743 47.9069 131.618 48.0279 131.618 48.1773C131.618 48.3266 131.743 48.4477 131.897 48.4477Z" fill="white"/>
<path d="M131.897 62.6936C132.05 62.6936 132.175 62.5725 132.175 62.4232C132.175 62.2738 132.05 62.1527 131.897 62.1527C131.743 62.1527 131.618 62.2738 131.618 62.4232C131.618 62.5725 131.743 62.6936 131.897 62.6936Z" fill="white"/>
<path d="M136.18 36.3236C136.333 36.3236 136.458 36.2025 136.458 36.0532C136.458 35.9038 136.333 35.7828 136.18 35.7828C136.026 35.7828 135.902 35.9038 135.902 36.0532C135.902 36.2025 136.026 36.3236 136.18 36.3236Z" fill="white"/>
<g opacity="0.5">
<path opacity="0.5" d="M131.92 48.2358L131.876 48.2122L127.545 45.8452L123.282 43.2943V28.7608L136.229 36.0349L136.218 36.0659L131.92 48.2358ZM123.364 43.2501L127.587 45.7772L131.874 48.1196L136.13 36.072L123.364 28.9V43.2501Z" fill="white" stroke="white" stroke-width="0.5"/>
</g>
<g opacity="0.5">
<path opacity="0.5" d="M123.208 43.3673L118.755 55.357L118.832 55.3841L123.286 43.3945L123.208 43.3673Z" fill="white" stroke="white" stroke-width="0.5"/>
</g>
<g opacity="0.5">
<path opacity="0.5" d="M131.937 48.1773H131.856V62.4231H131.937V48.1773Z" fill="white" stroke="white" stroke-width="0.5"/>
</g>
<path d="M55.6459 41.1762C55.8343 41.1762 55.9871 41.0278 55.9871 40.8447C55.9871 40.6616 55.8343 40.5131 55.6459 40.5131C55.4575 40.5131 55.3048 40.6616 55.3048 40.8447C55.3048 41.0278 55.4575 41.1762 55.6459 41.1762Z" fill="white"/>
<path d="M66.0486 29.2526C66.237 29.2526 66.3897 29.1042 66.3897 28.9211C66.3897 28.738 66.237 28.5896 66.0486 28.5896C65.8601 28.5896 65.7074 28.738 65.7074 28.9211C65.7074 29.1042 65.8601 29.2526 66.0486 29.2526Z" fill="white"/>
<path d="M76.8969 23.1938C77.0853 23.1938 77.238 23.0454 77.238 22.8623C77.238 22.6792 77.0853 22.5307 76.8969 22.5307C76.7084 22.5307 76.5557 22.6792 76.5557 22.8623C76.5557 23.0454 76.7084 23.1938 76.8969 23.1938Z" fill="white"/>
<path d="M76.7703 35.2192C76.9587 35.2192 77.1114 35.0708 77.1114 34.8877C77.1114 34.7046 76.9587 34.5561 76.7703 34.5561C76.5819 34.5561 76.4291 34.7046 76.4291 34.8877C76.4291 35.0708 76.5819 35.2192 76.7703 35.2192Z" fill="white"/>
<path d="M87.2499 29.2526C87.4383 29.2526 87.5911 29.1042 87.5911 28.9211C87.5911 28.738 87.4383 28.5896 87.2499 28.5896C87.0615 28.5896 86.9088 28.738 86.9088 28.9211C86.9088 29.1042 87.0615 29.2526 87.2499 29.2526Z" fill="white"/>
<path d="M87.2499 17.4603C87.4383 17.4603 87.5911 17.3119 87.5911 17.1288C87.5911 16.9457 87.4383 16.7973 87.2499 16.7973C87.0615 16.7973 86.9088 16.9457 86.9088 17.1288C86.9088 17.3119 87.0615 17.4603 87.2499 17.4603Z" fill="white"/>
<path d="M97.8946 11.4152C98.083 11.4152 98.2357 11.2668 98.2357 11.0837C98.2357 10.9006 98.083 10.7522 97.8946 10.7522C97.7062 10.7522 97.5534 10.9006 97.5534 11.0837C97.5534 11.2668 97.7062 11.4152 97.8946 11.4152Z" fill="white"/>
<g opacity="0.5">
<path opacity="0.5" d="M55.3426 40.8769L55.2667 40.8124L66.0156 28.8827L66.023 28.8788L76.948 22.777V22.8625L76.8225 34.8014L87.2006 28.8928V17.1008L87.2257 17.0865L97.8709 11.0414L97.9215 11.1257L87.3 17.1563V28.9491L87.275 28.9634L76.7188 34.9734V34.8869L76.8443 22.9472L66.0799 28.9597L55.3426 40.8769Z" fill="white" stroke="white" stroke-width="0.5"/>
</g>
<path d="M51.3563 78.0838C51.565 78.0838 51.7342 77.9194 51.7342 77.7165C51.7342 77.5137 51.565 77.3493 51.3563 77.3493C51.1476 77.3493 50.9784 77.5137 50.9784 77.7165C50.9784 77.9194 51.1476 78.0838 51.3563 78.0838Z" fill="white"/>
<path d="M63.0399 58.3736C63.2486 58.3736 63.4178 58.2092 63.4178 58.0063C63.4178 57.8035 63.2486 57.6391 63.0399 57.6391C62.8312 57.6391 62.662 57.8035 62.662 58.0063C62.662 58.2092 62.8312 58.3736 63.0399 58.3736Z" fill="white"/>
<path d="M63.0399 71.3568C63.2486 71.3568 63.4178 71.1924 63.4178 70.9896C63.4178 70.7867 63.2486 70.6223 63.0399 70.6223C62.8312 70.6223 62.662 70.7867 62.662 70.9896C62.662 71.1924 62.8312 71.3568 63.0399 71.3568Z" fill="white"/>
<path d="M75.0009 51.5709C75.2096 51.5709 75.3788 51.4065 75.3788 51.2037C75.3788 51.0009 75.2096 50.8364 75.0009 50.8364C74.7922 50.8364 74.623 51.0009 74.623 51.2037C74.623 51.4065 74.7922 51.5709 75.0009 51.5709Z" fill="white"/>
<path d="M75.0009 64.8275C75.2096 64.8275 75.3788 64.6631 75.3788 64.4602C75.3788 64.2574 75.2096 64.093 75.0009 64.093C74.7922 64.093 74.623 64.2574 74.623 64.4602C74.623 64.6631 74.7922 64.8275 75.0009 64.8275Z" fill="white"/>
<g opacity="0.5">
<path opacity="0.5" d="M51.4045 77.7435L51.3078 77.6906L63.0965 57.8047V70.7914L75.0575 51.0055V64.461H74.9459V51.404L62.9849 71.1898V58.2092L51.4045 77.7435Z" fill="white" stroke="white" stroke-width="0.5"/>
</g>
<path d="M1.63027 76.1313L23.2022 64.1951C23.347 64.1144 23.5113 64.0725 23.6783 64.0736C23.8453 64.0748 24.0089 64.119 24.1526 64.2018C24.2962 64.2846 24.4147 64.4029 24.4958 64.5447C24.577 64.6865 24.618 64.8467 24.6146 65.009V84.476C24.6153 84.9439 24.4886 85.4037 24.2474 85.8087C24.0063 86.2136 23.6592 86.5494 23.2414 86.7819L1.41274 98.8473C1.26953 98.9271 1.1073 98.9689 0.942235 98.9687C0.777174 98.9684 0.615066 98.9261 0.472104 98.8459C0.329142 98.7658 0.210329 98.6505 0.127533 98.5118C0.0447372 98.373 0.000857275 98.2155 0.000274658 98.0551V78.8765C0.000741632 78.3202 0.151557 77.7739 0.437622 77.2921C0.723686 76.8103 1.13496 76.4101 1.63027 76.1313V76.1313Z" fill="url(#paint16_linear_97_974)"/>
<g opacity="0.8">
<path opacity="0.8" d="M5.63869 83.5751C5.60189 83.5758 5.56554 83.5671 5.53323 83.55C5.50091 83.5329 5.47373 83.5079 5.45437 83.4775C5.44029 83.4547 5.43099 83.4294 5.42702 83.4031C5.42306 83.3769 5.42449 83.3501 5.43126 83.3243C5.43802 83.2986 5.44997 83.2744 5.46641 83.2532C5.48286 83.232 5.50347 83.2141 5.52706 83.2007L10.5515 80.2653C10.5989 80.2461 10.6518 80.2443 10.7005 80.2602C10.7492 80.2761 10.7902 80.3085 10.8161 80.3516C10.842 80.3947 10.851 80.4454 10.8413 80.4944C10.8317 80.5434 10.8041 80.5873 10.7636 80.618L5.73915 83.5478C5.70799 83.5637 5.67377 83.5729 5.63869 83.5751V83.5751Z" fill="white"/>
</g>
<g opacity="0.8">
<path opacity="0.8" d="M2.88646 79.7327C2.8413 79.7311 2.79786 79.7154 2.76248 79.6881C2.72709 79.6608 2.70162 79.6232 2.68977 79.5808C2.67791 79.5384 2.6803 79.4935 2.69658 79.4525C2.71287 79.4115 2.74219 79.3767 2.78028 79.353L9.16386 75.7451C9.18731 75.7312 9.21335 75.7219 9.24049 75.7178C9.26764 75.7136 9.29535 75.7148 9.32204 75.7211C9.34874 75.7273 9.3739 75.7387 9.39609 75.7544C9.41828 75.7702 9.43706 75.79 9.45136 75.8128C9.46566 75.8356 9.4752 75.8609 9.47944 75.8873C9.48367 75.9136 9.48252 75.9406 9.47605 75.9665C9.46958 75.9925 9.45792 76.0169 9.44172 76.0385C9.42552 76.06 9.40512 76.0783 9.38166 76.0922L2.99809 79.701C2.96461 79.7215 2.92602 79.7327 2.88646 79.7335V79.7327Z" fill="white"/>
</g>
<g opacity="0.8">
<path opacity="0.8" d="M5.63868 91.5342C5.60144 91.5338 5.56494 91.5241 5.53267 91.506C5.5004 91.4879 5.47344 91.4621 5.45436 91.431C5.42735 91.3847 5.41983 91.33 5.43338 91.2784C5.44693 91.2268 5.4805 91.1824 5.52705 91.1543L10.5515 88.2245C10.575 88.2105 10.6011 88.2012 10.6283 88.1971C10.6555 88.193 10.6833 88.1941 10.71 88.2006C10.7367 88.207 10.7619 88.2185 10.784 88.2345C10.8061 88.2504 10.8247 88.2705 10.8388 88.2935C10.8528 88.3165 10.862 88.342 10.8659 88.3685C10.8697 88.395 10.8681 88.422 10.8611 88.4478C10.8541 88.4737 10.8419 88.498 10.8251 88.5192C10.8084 88.5405 10.7875 88.5583 10.7636 88.5716L5.73914 91.5017C5.70937 91.5213 5.67461 91.5326 5.63868 91.5342Z" fill="white"/>
</g>
<g opacity="0.8">
<path opacity="0.8" d="M3.37978 87.5067C3.34298 87.5073 3.30663 87.4987 3.27432 87.4816C3.242 87.4644 3.21482 87.4394 3.19546 87.409C3.18137 87.3862 3.17208 87.361 3.16811 87.3347C3.16414 87.3084 3.16558 87.2816 3.17234 87.2559C3.1791 87.2301 3.19106 87.206 3.2075 87.1847C3.22395 87.1635 3.24456 87.1457 3.26815 87.1323L10.805 82.7213C10.8524 82.6932 10.9093 82.6845 10.9632 82.6973C11.0171 82.71 11.0636 82.743 11.0925 82.789C11.1214 82.835 11.1303 82.8903 11.1172 82.9427C11.1041 82.9951 11.0702 83.0403 11.0228 83.0684L3.48595 87.4794C3.45399 87.4981 3.41707 87.5073 3.37978 87.5059V87.5067Z" fill="white"/>
</g>
<g opacity="0.8">
<path opacity="0.8" d="M13.5161 86.9822C13.4701 86.9821 13.4255 86.9674 13.389 86.9402C13.3525 86.913 13.3261 86.8749 13.3141 86.8317C13.302 86.7886 13.3049 86.7428 13.3222 86.7014C13.3395 86.66 13.3703 86.6253 13.41 86.6026L20.9468 82.1915C20.9702 82.1779 20.9962 82.1688 21.0233 82.165C21.0503 82.1611 21.0779 82.1625 21.1044 82.1691C21.1309 82.1757 21.1557 82.1873 21.1776 82.2032C21.1994 82.2192 21.2178 82.2393 21.2316 82.2622C21.2603 82.309 21.2688 82.3649 21.2551 82.4178C21.2415 82.4707 21.2069 82.5161 21.1589 82.5442L13.6278 86.95C13.5943 86.9705 13.5557 86.9817 13.5161 86.9825V86.9822Z" fill="white"/>
</g>
<path d="M3.26573 90.2224C3.21976 90.2222 3.17513 90.2073 3.13868 90.1801C3.10224 90.1529 3.07598 90.1148 3.06393 90.0717C3.05188 90.0286 3.05471 89.9828 3.07198 89.9414C3.08925 89.9 3.12001 89.8653 3.15955 89.8425L8.18429 86.9116C8.19786 86.9037 8.21229 86.8973 8.22731 86.8925L15.615 82.5009C15.6381 82.4864 15.6641 82.4767 15.6913 82.4724C15.7185 82.4681 15.7463 82.4693 15.773 82.4759C15.7997 82.4825 15.8247 82.4944 15.8464 82.5108C15.8682 82.5272 15.8862 82.5478 15.8995 82.5712C15.9138 82.5937 15.9235 82.6186 15.9279 82.6447C15.9323 82.6708 15.9314 82.6974 15.9252 82.7231C15.9189 82.7489 15.9075 82.7731 15.8916 82.7946C15.8757 82.816 15.8556 82.8341 15.8325 82.848L8.32342 87.3119C8.30623 87.3236 8.28719 87.3326 8.26706 87.3384L3.37762 90.1886C3.34651 90.2097 3.30944 90.2211 3.27144 90.2211L3.26573 90.2224Z" fill="#DDE9FF"/>
<g opacity="0.741">
<path opacity="0.5" d="M23.0415 67.7283L23.0375 68.5092C23.037 68.5905 23.0145 68.6703 22.9725 68.7407C22.9304 68.811 22.8702 68.8695 22.7977 68.9102L19.38 70.8287C19.3531 70.8438 19.3226 70.8517 19.2915 70.8517C19.2604 70.8517 19.2299 70.8438 19.2029 70.8286C19.176 70.8135 19.1537 70.7918 19.1381 70.7657C19.1226 70.7395 19.1143 70.7098 19.1143 70.6796L19.119 69.8986C19.1195 69.8172 19.1419 69.7374 19.184 69.667C19.226 69.5967 19.2863 69.5383 19.3588 69.4976L22.7768 67.5786C22.8037 67.5635 22.8342 67.5555 22.8653 67.5556C22.8964 67.5556 22.927 67.5637 22.9538 67.5789C22.9807 67.5941 23.003 67.6159 23.0183 67.6421C23.0337 67.6684 23.0417 67.6981 23.0415 67.7283V67.7283Z" fill="white"/>
<path opacity="0.7" d="M23.0437 65.7878L23.0392 66.569C23.0388 66.6504 23.0164 66.7302 22.9743 66.8006C22.9321 66.8709 22.8718 66.9293 22.7992 66.9699L19.3817 68.8879C19.3549 68.9031 19.3244 68.9112 19.2933 68.9112C19.2622 68.9113 19.2316 68.9034 19.2047 68.8883C19.1778 68.8732 19.1554 68.8514 19.1399 68.8252C19.1245 68.799 19.1164 68.7693 19.1165 68.7391L19.1212 67.9581C19.1214 67.8767 19.1435 67.7968 19.1854 67.7263C19.2273 67.6558 19.2874 67.5972 19.3598 67.5564L22.779 65.6381C22.8059 65.623 22.8364 65.615 22.8675 65.6151C22.8986 65.6151 22.9291 65.6231 22.956 65.6383C22.9829 65.6535 23.0051 65.6754 23.0205 65.7016C23.0359 65.7279 23.0439 65.7576 23.0437 65.7878V65.7878Z" fill="white"/>
<path opacity="0.741" d="M23.054 63.9074L23.0498 64.6887C23.0492 64.77 23.0268 64.8497 22.9848 64.9199C22.9428 64.9902 22.8826 65.0486 22.8102 65.0893L19.3926 67.0078C19.3656 67.0229 19.3351 67.0309 19.304 67.031C19.2728 67.031 19.2423 67.023 19.2153 67.0079C19.1884 66.9928 19.166 66.971 19.1505 66.9448C19.1349 66.9186 19.1268 66.8889 19.1268 66.8587L19.1315 66.0776C19.1319 65.9962 19.1542 65.9164 19.1963 65.846C19.2384 65.7756 19.2987 65.7172 19.3713 65.6766L22.7893 63.7577C22.8162 63.7425 22.8468 63.7346 22.8778 63.7346C22.9089 63.7347 22.9395 63.7427 22.9663 63.7579C22.9932 63.7731 23.0155 63.7949 23.0309 63.8212C23.0463 63.8474 23.0542 63.8772 23.054 63.9074V63.9074Z" fill="white"/>
</g>
</g>
<defs>
<linearGradient id="paint0_linear_97_974" x1="36.8215" y1="88.1885" x2="76.6168" y2="23.0942" gradientUnits="userSpaceOnUse">
<stop stop-color="white" stop-opacity="0.463"/>
<stop offset="1" stop-color="white" stop-opacity="0"/>
</linearGradient>
<linearGradient id="paint1_linear_97_974" x1="61.9397" y1="22.5812" x2="54.655" y2="29.2688" gradientUnits="userSpaceOnUse">
<stop stop-color="white" stop-opacity="0.788"/>
<stop offset="0.764" stop-color="white" stop-opacity="0.027"/>
<stop offset="1" stop-color="white" stop-opacity="0"/>
</linearGradient>
<linearGradient id="paint2_linear_97_974" x1="117.586" y1="32.5477" x2="103.681" y2="44.8059" gradientUnits="userSpaceOnUse">
<stop stop-color="white"/>
<stop offset="1" stop-color="white" stop-opacity="0.098"/>
</linearGradient>
<linearGradient id="paint3_linear_97_974" x1="112.448" y1="25.5248" x2="98.2726" y2="38.5385" gradientUnits="userSpaceOnUse">
<stop stop-color="white" stop-opacity="0.788"/>
<stop offset="0.764" stop-color="white" stop-opacity="0.027"/>
<stop offset="1" stop-color="white" stop-opacity="0"/>
</linearGradient>
<linearGradient id="paint4_linear_97_974" x1="107.287" y1="63.9435" x2="104.126" y2="67.0264" gradientUnits="userSpaceOnUse">
<stop stop-color="white" stop-opacity="0.788"/>
<stop offset="0.764" stop-color="white" stop-opacity="0.027"/>
<stop offset="1" stop-color="white" stop-opacity="0"/>
</linearGradient>
<linearGradient id="paint5_linear_97_974" x1="59.3065" y1="73.3762" x2="56.6813" y2="75.2697" gradientUnits="userSpaceOnUse">
<stop stop-color="white" stop-opacity="0.788"/>
<stop offset="0.764" stop-color="white" stop-opacity="0.027"/>
<stop offset="1" stop-color="white" stop-opacity="0"/>
</linearGradient>
<linearGradient id="paint6_linear_97_974" x1="85.4545" y1="48.9325" x2="69.8981" y2="39.6909" gradientUnits="userSpaceOnUse">
<stop stop-color="white"/>
<stop offset="1" stop-color="white" stop-opacity="0"/>
</linearGradient>
<linearGradient id="paint7_linear_97_974" x1="131.202" y1="29.0619" x2="115.646" y2="19.8204" gradientUnits="userSpaceOnUse">
<stop stop-color="white"/>
<stop offset="1" stop-color="white" stop-opacity="0"/>
</linearGradient>
<linearGradient id="paint8_linear_97_974" x1="32.3802" y1="110.488" x2="28.983" y2="106.736" gradientUnits="userSpaceOnUse">
<stop stop-color="#0059E1"/>
<stop offset="1" stop-color="#015AE2"/>
</linearGradient>
<linearGradient id="paint9_linear_97_974" x1="29.718" y1="115.446" x2="29.006" y2="102.817" gradientUnits="userSpaceOnUse">
<stop stop-color="white" stop-opacity="0.051"/>
<stop offset="0.636" stop-color="white"/>
<stop offset="1" stop-color="white"/>
</linearGradient>
<linearGradient id="paint10_linear_97_974" x1="28.6218" y1="100.237" x2="26.3248" y2="98.1331" gradientUnits="userSpaceOnUse">
<stop stop-color="white" stop-opacity="0.051"/>
<stop offset="0.999" stop-color="white"/>
</linearGradient>
<linearGradient id="paint11_linear_97_974" x1="40.0898" y1="86.7828" x2="37.4184" y2="86.0989" gradientUnits="userSpaceOnUse">
<stop stop-color="white" stop-opacity="0.051"/>
<stop offset="0.999" stop-color="white"/>
</linearGradient>
<linearGradient id="paint12_linear_97_974" x1="39.8544" y1="94.4487" x2="33.0116" y2="87.7643" gradientUnits="userSpaceOnUse">
<stop stop-color="white" stop-opacity="0.051"/>
<stop offset="1" stop-color="white"/>
</linearGradient>
<linearGradient id="paint13_linear_97_974" x1="24.3519" y1="103.05" x2="21.2289" y2="100.429" gradientUnits="userSpaceOnUse">
<stop stop-color="white" stop-opacity="0.051"/>
<stop offset="0.999" stop-color="white"/>
</linearGradient>
<linearGradient id="paint14_linear_97_974" x1="30.5845" y1="100.76" x2="28.8307" y2="100.705" gradientUnits="userSpaceOnUse">
<stop stop-color="white" stop-opacity="0.051"/>
<stop offset="0.994" stop-color="white"/>
</linearGradient>
<linearGradient id="paint15_linear_97_974" x1="20.9633" y1="125.664" x2="14.4477" y2="120.965" gradientUnits="userSpaceOnUse">
<stop stop-color="#0059E1"/>
<stop offset="1" stop-color="#015AE2"/>
</linearGradient>
<linearGradient id="paint16_linear_97_974" x1="1.18177" y1="81.2769" x2="23.9282" y2="81.52" gradientUnits="userSpaceOnUse">
<stop stop-color="white" stop-opacity="0.4"/>
<stop offset="1" stop-color="white" stop-opacity="0"/>
</linearGradient>
<clipPath id="clip0_97_974">
<rect width="143" height="128" fill="white"/>
</clipPath>
</defs>
</svg>
