<svg width="107" height="133" viewBox="0 0 107 133" fill="none" xmlns="http://www.w3.org/2000/svg">
<g clip-path="url(#clip0_97_700)">
<path d="M52.9281 111.393L52.9107 111.402V111.53L52.8238 111.488L51.0358 112.409L54.0046 113.946L50.8976 115.556C42.1149 120.155 20.476 131.481 18.3447 132.598C18.3142 132.618 18.2816 132.635 18.2474 132.65C18.2223 132.661 18.198 132.673 18.1745 132.686C17.9835 132.788 17.7786 132.867 17.5646 132.922C17.4649 132.949 17.3629 132.968 17.2597 132.98C17.2184 132.987 17.1766 132.991 17.1346 132.992C17.0771 133 17.0189 133.003 16.9608 133.002C16.912 133.002 16.8669 132.999 16.8184 132.995C16.7699 132.992 16.7174 132.986 16.669 132.98C16.5831 132.966 16.4986 132.947 16.4164 132.921C16.3741 132.908 16.3332 132.892 16.2926 132.876C16.2621 132.865 16.2344 132.852 16.206 132.838C16.1682 132.821 16.1274 132.808 16.0917 132.787C16.0886 132.785 16.0851 132.783 16.0813 132.781C16.0292 132.755 15.7962 132.635 15.4278 132.445L0.442801 124.667C0.435615 124.663 0.428683 124.659 0.422056 124.654C0.316542 124.563 0.229503 124.456 0.164674 124.339C-0.197005 123.709 0.0463537 122.798 0.807832 122.128H0.811182C0.925435 122.025 1.0512 121.932 1.18659 121.85L1.1936 121.844L1.6489 121.505L1.71141 121.471L6.17904 119.205L10.6433 116.939L15.1076 114.67H15.1109L19.5715 112.404L24.0358 110.136L28.5001 107.87H28.5034L32.2269 105.977H32.2303L37.209 103.448L51.7152 96.0863L52.9101 96.6992V111.386L52.9281 111.393Z" fill="#268EF7"/>
<path opacity="0.56" d="M77.1013 84.1154C77.1318 84.0666 77.1663 84.021 77.1986 83.973C77.1175 84.0953 77.0355 84.2144 76.9586 84.3447C77.0041 84.267 77.0528 84.1905 77.1013 84.1154Z" fill="white"/>
<path opacity="0.56" d="M77.1989 83.9717C77.2681 83.8665 77.3383 83.7617 77.4106 83.6613C77.3383 83.7619 77.2687 83.8671 77.1989 83.9717Z" fill="white"/>
<path opacity="0.56" d="M83.923 77.8943V78.0105L83.5997 78.1757C83.4468 78.3102 83.2943 78.4386 83.1423 78.5609C83.2917 78.4386 83.4378 78.3133 83.5872 78.1816C83.5982 78.1744 83.6084 78.1662 83.6177 78.1572L83.6317 78.1481C83.7284 78.0655 83.8257 77.9799 83.923 77.8943Z" fill="white"/>
<path opacity="0.56" d="M105.899 99.4881L102.906 98.199L96.676 86.9709V77.8916C102.557 83.0881 106.204 82.5396 105.899 99.4881Z" fill="white"/>
<path opacity="0.5" d="M106.083 83.4022L104.998 83.9435C103.74 81.5797 101.932 80.3687 99.7032 78.6225C100.263 76.002 100.847 72.9317 101.381 69.5312C104.458 70.0945 106.088 73.3131 106.084 74.7883C106.08 76.4087 106.083 83.4022 106.083 83.4022Z" fill="white"/>
<path opacity="0.5" d="M77.7631 81.1602C77.7554 81.1666 77.7484 81.1739 77.7424 81.1816L77.718 81.1907L74.4324 82.8757V82.8695L77.7387 81.1722L77.7631 81.1602Z" fill="white"/>
<path opacity="0.5" d="M80.2018 75.2218L75.1676 72.5155C75.2164 72.4329 75.2649 72.3473 75.317 72.2647C75.4248 72.0997 75.5395 71.9345 75.6613 71.7693V71.7663C75.8135 71.5648 75.9784 71.3708 76.1551 71.1854C76.3511 70.9844 76.56 70.7935 76.7808 70.6135H76.7842C77.4638 70.0583 78.3049 69.6794 79.2144 69.5189C79.5132 71.4332 79.8298 73.2434 80.146 74.9284C80.168 75.026 80.1854 75.1244 80.2018 75.2218Z" fill="white"/>
<path opacity="0.56" d="M77.1989 83.9717C77.2681 83.8665 77.3383 83.7617 77.4106 83.6613C77.3383 83.7619 77.2687 83.8671 77.1989 83.9717Z" fill="white"/>
<path opacity="0.56" d="M77.1013 84.1154C77.1318 84.0666 77.1663 84.021 77.1986 83.973C77.1175 84.0953 77.0355 84.2144 76.9586 84.3447C77.0041 84.267 77.0528 84.1905 77.1013 84.1154Z" fill="white"/>
<path opacity="0.56" d="M83.6311 78.1481L83.6006 78.1749C83.4475 78.3094 83.2951 78.4378 83.1432 78.5601C83.2926 78.4378 83.4387 78.3125 83.5881 78.1808L77.782 81.1581L77.8028 81.1398L83.6195 78.1553L83.6311 78.1481Z" fill="white"/>
<path opacity="0.9" d="M105.917 97.5753C105.917 98.1868 105.911 98.8238 105.899 99.4863L102.906 98.1959L97.3337 88.1568C97.306 88.2517 97.292 88.3005 97.292 88.3005C95.2391 89.5469 92.7979 90.2038 90.3035 90.181C89.534 90.1811 88.766 90.1197 88.0091 89.9976C86.8512 89.8114 85.7289 89.483 84.675 89.0221V77.6254L83.9239 78.0108L83.6006 78.1761L83.6311 78.1492C83.7284 78.0666 83.8257 77.9811 83.9232 77.8955V77.9996L84.6637 77.6203L80.2205 75.2332C79.8832 73.4656 79.5495 71.5513 79.233 69.5201C76.747 53.6128 75.447 30.4277 83.7076 11.3951C83.8223 11.1352 83.937 10.8753 84.0553 10.6154C84.2151 10.2638 84.3752 9.91509 84.5386 9.56936C84.6185 9.39501 84.7021 9.22389 84.7854 9.04955C84.8686 8.87521 84.9522 8.70703 85.0427 8.53269C85.2723 8.07404 85.5061 7.61804 85.7441 7.16475C85.9841 6.71226 86.2342 6.26274 86.4846 5.81615C86.6133 5.593 86.742 5.36957 86.8707 5.14963C87.0201 4.88678 87.1756 4.62688 87.3366 4.36992C87.4444 4.1895 87.5556 4.00906 87.6703 3.82864C87.806 3.61165 87.9447 3.3944 88.0841 3.17741C88.2234 2.96042 88.3656 2.74611 88.5049 2.53207C88.7727 2.13162 89.0404 1.73708 89.3149 1.34575C89.3356 1.31517 89.36 1.28458 89.3811 1.254C89.5335 1.04292 89.6836 0.832096 89.8364 0.623958C89.9891 0.41582 90.1389 0.211188 90.2938 0.00707317H90.2971C90.2971 0.00412276 90.3005 0.00410364 90.3005 0.00088501C90.4673 0.221093 90.6341 0.447202 90.7976 0.671433C90.9159 0.839606 91.0376 1.01102 91.1593 1.17919C91.2809 1.34736 91.3993 1.51874 91.5173 1.68691C91.5728 1.76738 91.6286 1.84785 91.6841 1.92832C91.7396 2.00878 91.7988 2.09354 91.8509 2.17293C91.9729 2.35344 92.0949 2.5337 92.2126 2.71421C92.8246 3.63474 93.3983 4.57028 93.9441 5.52138C94.2152 5.99854 94.483 6.47545 94.7437 6.95851C95.1365 7.68324 95.5097 8.41509 95.8632 9.15413C96.0753 9.59454 96.2804 10.0359 96.4786 10.4783C96.5204 10.5701 96.5622 10.6618 96.6006 10.7506C96.7016 10.9652 96.7955 11.1819 96.8891 11.3959L96.8858 11.3992C105.153 30.4347 103.857 53.626 101.371 69.5332C100.839 72.9337 100.255 76.0038 99.6935 78.6245C99.0781 78.1444 98.4313 77.6214 97.757 77.0251L96.6723 77.8936C97.3953 78.5296 98.0839 79.0832 98.7374 79.5909C98.8799 79.7041 99.0226 79.8141 99.1644 79.9243C99.2339 79.9793 99.3071 80.0316 99.3779 80.0852C99.4614 80.1496 99.5447 80.2137 99.6249 80.2778C99.7499 80.3725 99.8716 80.4675 99.9908 80.5592C100.165 80.6968 100.335 80.8314 100.502 80.9658C100.571 81.0208 100.641 81.079 100.711 81.134C100.85 81.2472 100.985 81.3604 101.121 81.4765L101.197 81.5438C101.222 81.5616 101.245 81.5811 101.267 81.602L101.329 81.657L101.421 81.7375C101.463 81.7742 101.501 81.8078 101.539 81.8448C101.661 81.9521 101.783 82.065 101.897 82.1781C101.96 82.2393 102.022 82.3005 102.08 82.3616C102.138 82.4228 102.202 82.4839 102.261 82.5451C102.32 82.6062 102.379 82.6703 102.438 82.7347C102.556 82.8632 102.667 82.9946 102.779 83.1293C102.828 83.1904 102.876 83.2486 102.925 83.3098C102.974 83.3709 103.022 83.4291 103.068 83.4932C103.078 83.5056 103.088 83.5201 103.098 83.5329C103.098 83.5359 103.101 83.5391 103.105 83.5421C103.136 83.5879 103.171 83.637 103.206 83.6829C103.241 83.7288 103.276 83.7808 103.307 83.8296C103.373 83.9213 103.436 84.0161 103.495 84.1139C103.502 84.123 103.505 84.1292 103.512 84.1383C103.578 84.2424 103.641 84.3462 103.703 84.4532C103.748 84.5297 103.794 84.6092 103.839 84.6917C103.842 84.6946 103.842 84.6978 103.846 84.7008C103.891 84.7834 103.938 84.8689 103.982 84.9545C103.987 84.9645 103.992 84.9747 103.996 84.9851C104.017 85.0248 104.038 85.0677 104.058 85.1103C104.086 85.1624 104.11 85.2176 104.138 85.2713C104.142 85.2775 104.142 85.2836 104.145 85.2895C104.176 85.3568 104.208 85.4236 104.239 85.4944C104.323 85.6809 104.403 85.8736 104.479 86.0724C104.521 86.1733 104.559 86.2774 104.594 86.3812C104.624 86.4638 104.656 86.5493 104.685 86.6381C104.765 86.8704 104.842 87.1153 104.911 87.3719C104.942 87.4881 104.974 87.6045 105.005 87.7268C105.023 87.7818 105.036 87.84 105.05 87.8982C105.05 87.9012 105.054 87.9073 105.054 87.9105C105.068 87.9717 105.081 88.0328 105.099 88.0983C105.123 88.1932 105.144 88.2941 105.165 88.395C105.175 88.447 105.186 88.499 105.2 88.5508C105.224 88.6581 105.245 88.7653 105.266 88.878C105.294 89.0121 105.318 89.1503 105.343 89.2908C105.345 89.2977 105.346 89.305 105.346 89.3122C105.355 89.3466 105.362 89.3814 105.367 89.4163V89.4225C105.375 89.4536 105.38 89.4855 105.381 89.5174C105.394 89.5668 105.403 89.6169 105.408 89.6674C105.419 89.7256 105.429 89.7835 105.436 89.8447C105.443 89.9058 105.457 89.9608 105.464 90.022C105.481 90.1319 105.499 90.2451 105.513 90.3583C105.52 90.3951 105.523 90.4318 105.527 90.4686C105.541 90.5694 105.554 90.6734 105.568 90.7805C105.572 90.8073 105.576 90.8387 105.579 90.8661C105.579 90.8814 105.582 90.8929 105.582 90.9087C105.586 90.9289 105.589 90.9493 105.589 90.9699C105.6 91.0503 105.61 91.1289 105.617 91.2083C105.652 91.4958 105.679 91.7954 105.708 92.1042C105.713 92.1357 105.715 92.1674 105.715 92.1991C105.74 92.4622 105.761 92.7355 105.778 93.0123C105.785 93.095 105.792 93.1776 105.795 93.2602C105.83 93.7966 105.858 94.3548 105.875 94.9451C105.882 95.1377 105.889 95.3335 105.893 95.5323V95.572C105.895 95.584 105.897 95.5964 105.896 95.6087C105.896 95.6975 105.899 95.786 105.899 95.8769V95.9595C105.903 95.9963 105.903 96.033 105.903 96.0695C105.903 96.1001 105.903 96.1307 105.906 96.1612C105.909 96.4547 105.913 96.7545 105.913 97.0633C105.917 97.2328 105.917 97.4012 105.917 97.5753Z" fill="url(#paint0_linear_97_700)"/>
<path opacity="0.56" d="M106.983 98.6186L105.899 99.4868C106.056 90.8544 105.186 86.7598 103.514 84.1361C102.447 82.4511 101.046 81.3715 99.38 80.0843C98.542 79.439 97.6381 78.7433 96.675 77.8919L97.7598 77.0234C98.4343 77.6197 99.0808 78.1427 99.6962 78.6228C101.925 80.3689 103.733 81.5799 104.991 83.9438C106.402 86.5916 107.125 90.6914 106.983 98.6186Z" fill="white"/>
<path opacity="0.25" d="M106.083 83.3931L104.998 83.9344C103.74 81.5706 101.932 80.3595 99.7032 78.6137C100.263 75.9929 100.847 72.9229 101.381 69.5224C104.458 70.0857 106.088 73.3043 106.084 74.7795C106.08 76.3996 106.083 83.3931 106.083 83.3931Z" fill="white"/>
<path opacity="0.51" d="M77.7378 81.1725C77.7327 81.18 77.7256 81.1862 77.7171 81.1907L74.4315 82.8757V82.8695L77.7378 81.1725Z" fill="white"/>
<path opacity="0.51" d="M80.2064 75.2247L80.2031 75.2218L75.1688 72.5155H75.1655C75.2143 72.4329 75.2627 72.3473 75.3179 72.2647C75.4257 72.0996 75.5405 71.9345 75.6623 71.7693V71.7661C75.8144 71.5645 75.9793 71.3706 76.156 71.1851C76.3483 70.9813 76.5575 70.7901 76.7817 70.6133H76.7851C77.4625 70.0535 78.3042 69.6712 79.2153 69.5093V69.5184C79.5142 71.4327 79.8307 73.2429 80.147 74.9278C80.1683 75.029 80.189 75.1268 80.2064 75.2247Z" fill="white"/>
<path d="M90.3026 0.00662231H90.2956C87.6275 3.57622 85.4182 7.39539 83.7086 11.3939C84.509 12.2505 85.5153 12.9404 86.6551 13.4141C87.7949 13.8878 89.0399 14.1335 90.3005 14.1335C91.5612 14.1335 92.8061 13.8878 93.9459 13.4141C95.0857 12.9404 96.092 12.2505 96.8925 11.3939C95.1819 7.39529 92.9717 3.57611 90.3026 0.00662231Z" fill="white"/>
<path opacity="0.48" d="M99.1281 38.0576L98.1184 37.9707C95.651 37.7578 93.3089 40.65 92.8875 44.4308C92.466 48.2116 94.1244 51.4488 96.5921 51.6612L97.6021 51.7483C100.069 51.961 102.412 49.0691 102.833 45.2883C103.254 41.5075 101.596 38.2703 99.1281 38.0576Z" fill="url(#paint1_linear_97_700)"/>
<path d="M101.94 45.2048C102.279 42.1818 100.954 39.5926 98.9808 39.4217C97.0079 39.2508 95.1341 41.5629 94.7956 44.5859C94.457 47.609 95.782 50.1982 97.7549 50.3691C99.7279 50.54 101.602 48.2279 101.94 45.2048Z" fill="url(#paint2_linear_97_700)"/>
<path d="M84.674 77.625V102.565L58.2648 116.115V91.1656L74.4318 82.8754L77.7174 81.1905L77.7418 81.1814L77.7799 81.1599L83.586 78.1827C83.4365 78.3141 83.2905 78.4396 83.141 78.5619C83.2939 78.4396 83.4464 78.3111 83.5985 78.1765L83.9217 78.0115L84.674 77.625Z" fill="url(#paint3_linear_97_700)"/>
<path d="M84.674 77.6159V77.625L83.923 78.0105L83.5997 78.1757C83.4468 78.3102 83.2943 78.4386 83.1423 78.5611C83.2917 78.4388 83.4378 78.3133 83.5872 78.1818L77.7811 81.1591L77.743 81.1806L77.7186 81.1897L74.433 82.8746L58.2645 91.1664L74.4315 82.8703L77.7378 81.1733L77.7622 81.161L77.8003 81.1427L83.6171 78.1577L83.6311 78.1486L83.9233 77.9987L84.6637 77.6194L84.674 77.6159Z" fill="url(#paint4_linear_97_700)"/>
<path d="M83.9234 77.9976V77.8935C83.8261 77.9791 83.7289 78.0647 83.6313 78.1473L83.6172 78.1564L77.8005 81.1409L77.7624 81.1591L77.738 81.1714L74.4316 82.8687L58.2646 91.1647L31.8657 77.6181L58.2646 63.4325L75.165 72.5144H75.1684L80.2026 75.2207L80.206 75.2237L80.22 75.2299L84.6632 77.617L83.9234 77.9976Z" fill="url(#paint5_linear_97_700)"/>
<path d="M31.8652 77.6191L58.2641 91.1658L31.8549 77.6253L31.8652 77.6191Z" fill="url(#paint6_linear_97_700)"/>
<path d="M84.674 77.6253L83.923 78.0107L83.5997 78.176L83.5857 78.1821L77.7796 81.1593L77.7415 81.1808L77.7171 81.1899L74.4315 82.8749L58.2645 91.1669L74.4315 82.8708L77.7378 81.1739L77.7622 81.1615L77.8003 81.1433L83.6171 78.1583L83.6311 78.1491C83.7284 78.0665 83.8257 77.981 83.9233 77.8954V77.9995L84.6637 77.6202L84.674 77.6253Z" fill="url(#paint7_linear_97_700)"/>
<path d="M31.8655 77.6189L31.8552 77.6159V77.625L58.2644 91.1655L31.8655 77.6189Z" fill="url(#paint8_linear_97_700)"/>
<path d="M32.2693 102.776L32.2311 102.755L37.2099 100.226V100.253L37.2239 100.259L33.0066 102.399L32.9926 102.408L32.2693 102.776Z" fill="url(#paint9_linear_97_700)"/>
<path d="M52.9292 108.175L52.9109 108.185V108.164L52.9292 108.175Z" fill="url(#paint10_linear_97_700)"/>
<path opacity="0.23" d="M52.928 108.174L52.9106 108.183V108.312L52.8237 108.269L49.2703 110.072L48.5018 110.463L47.8724 110.781L50.8973 112.335C42.1145 116.934 20.4757 128.261 18.3443 129.377C18.3138 129.397 18.2812 129.414 18.247 129.429C18.222 129.44 18.1976 129.452 18.1742 129.466C17.9832 129.567 17.7782 129.646 17.5642 129.701C17.4646 129.728 17.3626 129.747 17.2593 129.759C17.2181 129.766 17.1762 129.771 17.1343 129.772C17.0767 129.779 17.0186 129.782 16.9604 129.781C16.9116 129.781 16.8665 129.778 16.818 129.775C16.7695 129.771 16.7171 129.765 16.6686 129.759C16.5827 129.746 16.4983 129.726 16.4161 129.7C16.3737 129.687 16.3328 129.671 16.2923 129.656C16.2618 129.644 16.234 129.631 16.2057 129.617C16.1679 129.6 16.127 129.587 16.0913 129.567C16.0882 129.564 16.0847 129.562 16.0809 129.561C16.0288 129.534 15.7958 129.414 15.4274 129.224L0.442434 121.446C0.435249 121.442 0.428326 121.438 0.421699 121.434C0.316185 121.342 0.229137 121.236 0.164308 121.119C-0.197371 120.489 0.0459875 119.577 0.807465 118.908H0.810825C0.925078 118.804 1.05084 118.711 1.18622 118.63L1.19324 118.623L1.64854 118.284L1.71106 118.25L6.17868 115.984L10.6429 113.718L15.1072 111.45H15.1106L19.5712 109.184L24.0354 106.915L28.4997 104.649H28.5031L32.2266 102.756H32.2299L37.2087 100.227L51.7149 92.8655L52.9097 93.4784V108.166L52.928 108.174Z" fill="white"/>
<path opacity="0.53" d="M58.2644 91.1659V116.115L50.9494 112.363L50.8973 112.336L47.8724 110.783L48.5019 110.465L49.2703 110.073L52.8237 108.269L52.9106 108.312V108.184L52.928 108.175L52.9106 108.166V93.4784L51.7146 92.8669V92.8639L37.2096 85.4241V100.227L33.8892 101.912L32.5715 102.583L32.2309 102.757H32.2275L31.8555 102.568V77.6253L58.2644 91.1659Z" fill="url(#paint11_linear_97_700)"/>
<path opacity="0.48" d="M52.9279 108.174L52.9105 108.183L48.4636 110.443L43.9994 112.709L39.5351 114.978L35.0708 117.244L30.6066 119.513H30.6032L17.0802 126.38C17.0236 126.402 16.969 126.427 16.9167 126.456C16.8781 126.473 16.8409 126.493 16.8054 126.514L16.7603 126.487L16.7463 126.546C16.5712 126.644 16.409 126.758 16.2629 126.888C16.0853 127.041 15.9321 127.215 15.8076 127.405C15.3279 128.117 15.3313 128.931 15.8771 129.414C15.9399 129.469 16.0086 129.518 16.0824 129.561C16.0302 129.534 15.7972 129.414 15.4288 129.224C12.5153 127.722 1.00711 121.791 0.444155 121.446C0.436968 121.442 0.430036 121.438 0.423411 121.434C0.318973 121.341 0.23207 121.235 0.166029 121.119C-0.191991 120.489 0.0513657 119.577 0.812844 118.908L1.18825 118.63L1.19526 118.623L1.65056 118.287L1.71674 118.254L6.181 115.985H6.18436L10.645 113.719L15.1126 111.45L19.5732 109.184H19.5766L24.0408 106.918L28.5051 104.649L32.2323 102.756L37.211 100.227L51.7172 92.8658L52.9123 93.4787V108.166L52.9279 108.174Z" fill="white"/>
<g opacity="0.43">
<path opacity="0.43" d="M18.0622 126.788C18.281 126.78 18.4945 126.848 18.6563 126.978C18.746 127.07 18.811 127.179 18.8462 127.297C18.8815 127.414 18.8862 127.537 18.86 127.657C18.7874 128.031 18.5803 128.376 18.269 128.639C17.9309 128.956 17.4672 129.146 16.9741 129.17C16.7554 129.178 16.5419 129.109 16.3801 128.98C15.9733 128.622 16.1501 127.861 16.7674 127.318C17.1054 127.002 17.5691 126.812 18.0622 126.788ZM18.0622 126.176C17.3842 126.199 16.7431 126.454 16.2755 126.886C15.3756 127.678 15.2023 128.808 15.8885 129.412C16.0325 129.534 16.2027 129.629 16.3892 129.693C16.5756 129.756 16.7746 129.786 16.9745 129.781C17.6524 129.759 18.2935 129.504 18.7612 129.072C19.6611 128.28 19.8343 127.149 19.1482 126.546C19.0042 126.424 18.834 126.328 18.6476 126.265C18.4612 126.201 18.2623 126.171 18.0625 126.176H18.0622Z" fill="white"/>
</g>
<g opacity="0.74">
<path opacity="0.74" d="M10.5737 113.681L26.1253 121.77" stroke="white" stroke-width="0.5" stroke-miterlimit="10"/>
<path opacity="0.74" d="M6.09174 115.939L21.6433 124.028" stroke="white" stroke-width="0.5" stroke-miterlimit="10"/>
<path opacity="0.74" d="M1.6098 118.197L17.1614 126.286" stroke="white" stroke-width="0.5" stroke-miterlimit="10"/>
<path opacity="0.74" d="M15.0554 111.423L30.607 119.512" stroke="white" stroke-width="0.5" stroke-miterlimit="10"/>
<path opacity="0.74" d="M19.5373 109.164L35.0889 117.254" stroke="white" stroke-width="0.5" stroke-miterlimit="10"/>
<path opacity="0.74" d="M24.0193 106.906L39.5709 114.995" stroke="white" stroke-width="0.5" stroke-miterlimit="10"/>
<path opacity="0.74" d="M28.5012 104.648L44.0528 112.737" stroke="white" stroke-width="0.5" stroke-miterlimit="10"/>
<path opacity="0.74" d="M32.9828 102.389L48.5344 110.479" stroke="white" stroke-width="0.5" stroke-miterlimit="10"/>
<path opacity="0.74" d="M53.0142 108.22L52.928 108.174" stroke="white" stroke-width="0.5" stroke-miterlimit="10"/>
<path opacity="0.74" d="M52.9106 108.165L37.4633 100.132" stroke="white" stroke-width="0.5" stroke-miterlimit="10"/>
<path opacity="0.74" d="M52.8319 103.431L41.9837 97.7898" stroke="white" stroke-width="0.5" stroke-miterlimit="10"/>
<path opacity="0.74" d="M52.9106 97.9108L47.3665 95.0277" stroke="white" stroke-width="0.5" stroke-miterlimit="10"/>
</g>
<path opacity="0.53" d="M51.7146 92.8636L47.4068 95.0499L41.9968 97.7959L41.7675 97.9121L39.3754 96.6279L37.2102 97.793V85.4238L51.7146 92.8636Z" fill="url(#paint12_linear_97_700)"/>
<path opacity="0.39" d="M58.2645 82.0179C64.8111 82.0179 70.1181 79.5564 70.1181 76.52C70.1181 73.4836 64.8111 71.022 58.2645 71.022C51.7178 71.022 46.4108 73.4836 46.4108 76.52C46.4108 79.5564 51.7178 82.0179 58.2645 82.0179Z" fill="url(#paint13_linear_97_700)"/>
<path d="M58.2645 78.5289C62.3521 78.5289 65.6658 76.992 65.6658 75.096C65.6658 73.2 62.3521 71.6631 58.2645 71.6631C54.1768 71.6631 50.8632 73.2 50.8632 75.096C50.8632 76.992 54.1768 78.5289 58.2645 78.5289Z" fill="url(#paint14_linear_97_700)"/>
<path d="M58.2645 79.2494C63.2102 79.2494 67.2195 77.3899 67.2195 75.096C67.2195 72.8022 63.2102 70.9426 58.2645 70.9426C53.3187 70.9426 49.3094 72.8022 49.3094 75.096C49.3094 77.3899 53.3187 79.2494 58.2645 79.2494Z" fill="url(#paint15_linear_97_700)"/>
<path d="M50.8631 75.0963L44.4438 43.8876H72.1199L65.6657 75.0963H50.8631Z" fill="url(#paint16_linear_97_700)"/>
<path opacity="0.48" d="M58.2645 70.069C63.2102 70.069 67.2195 68.5241 67.2195 66.6184C67.2195 64.7127 63.2102 63.1678 58.2645 63.1678C53.3187 63.1678 49.3094 64.7127 49.3094 66.6184C49.3094 68.5241 53.3187 70.069 58.2645 70.069Z" fill="url(#paint17_radial_97_700)"/>
<path opacity="0.48" d="M58.2645 61C64.3846 61 69.346 59.0884 69.346 56.7302C69.346 54.3721 64.3846 52.4604 58.2645 52.4604C52.1443 52.4604 47.1829 54.3721 47.1829 56.7302C47.1829 59.0884 52.1443 61 58.2645 61Z" fill="url(#paint18_radial_97_700)"/>
<path opacity="0.537" d="M88.0081 89.9974L84.674 91.6671V89.0219C85.7279 89.4829 86.8503 89.8112 88.0081 89.9974Z" fill="white"/>
<path d="M28.1778 110.16L20.4691 106.017L12.7607 110.16H12.7585V117.444L20.4694 121.4L28.1802 117.444V110.16H28.1778Z" fill="#007EFF"/>
<path opacity="0.56" d="M20.469 114.113L12.7581 110.157V117.441L20.469 121.397V114.113Z" fill="url(#paint19_linear_97_700)"/>
<path opacity="0.56" d="M20.4689 114.113L28.1798 110.157V117.441L20.4689 121.397V114.113Z" fill="url(#paint20_linear_97_700)"/>
<path opacity="0.708" d="M28.1798 110.159L20.4689 106.016L12.7581 110.159L20.4689 114.113L28.1798 110.159Z" fill="url(#paint21_linear_97_700)"/>
<path opacity="0.655" d="M25.5409 114.518L25.5008 114.457C25.4214 114.337 25.2457 114.295 25.1083 114.365L23.692 115.084C23.5546 115.154 23.5075 115.308 23.5868 115.429L23.6269 115.49C23.7062 115.611 23.8819 115.653 24.0193 115.583L25.4357 114.864C25.5731 114.794 25.6202 114.639 25.5409 114.518Z" fill="white"/>
<path d="M28.1798 111.504L20.4644 115.461L12.7581 111.504" stroke="white" stroke-width="0.25" stroke-miterlimit="10"/>
<path d="M47.0851 100.772L39.3764 96.6297L31.668 100.772H31.6659V108.056L39.3767 112.012L47.0876 108.056V100.772H47.0851Z" fill="#007EFF"/>
<path opacity="0.56" d="M39.3763 104.725L31.6655 100.769V108.053L39.3763 112.01V104.725Z" fill="url(#paint22_linear_97_700)"/>
<path opacity="0.56" d="M39.3763 104.725L47.0871 100.769V108.053L39.3763 112.01V104.725Z" fill="url(#paint23_linear_97_700)"/>
<path opacity="0.708" d="M47.0871 100.771L39.3763 96.6278L31.6655 100.771L39.3763 104.725L47.0871 100.771Z" fill="url(#paint24_linear_97_700)"/>
<path opacity="0.652" d="M44.4482 105.131L44.4081 105.07C44.3288 104.949 44.1531 104.907 44.0157 104.977L42.5993 105.696C42.4619 105.766 42.4148 105.921 42.4942 106.042L42.5343 106.103C42.6136 106.224 42.7893 106.265 42.9267 106.195L44.3431 105.476C44.4805 105.406 44.5275 105.252 44.4482 105.131Z" fill="white"/>
<path d="M47.0871 102.116L39.3717 106.073L31.6655 102.116" stroke="white" stroke-width="0.25" stroke-miterlimit="10"/>
<path d="M79.3876 82.986L67.5248 89.2355C67.3311 89.3375 67.1708 89.4819 67.0595 89.6547C66.9481 89.8274 66.8896 90.0226 66.8896 90.2212V101.023C66.8897 101.204 66.9442 101.381 67.0475 101.537C67.1509 101.693 67.2995 101.822 67.4781 101.911C67.6567 102 67.8589 102.046 68.0641 102.044C68.2694 102.042 68.4703 101.992 68.6464 101.899L80.5093 95.6494C80.703 95.5473 80.8633 95.4028 80.9746 95.23C81.0859 95.0572 81.1444 94.862 81.1445 94.6634V83.8612C81.1443 83.6807 81.0898 83.5034 80.9864 83.3475C80.883 83.1916 80.7344 83.0625 80.5558 82.9736C80.3773 82.8846 80.175 82.8389 79.9698 82.8411C79.7646 82.8433 79.5637 82.8932 79.3876 82.986Z" fill="url(#paint25_linear_97_700)"/>
<path d="M76.3003 96.1571C76.1186 96.159 75.9396 96.1182 75.7819 96.0388C75.4052 95.8476 75.2025 95.4552 75.2107 94.9332C75.2389 94.3902 75.4211 93.8619 75.7407 93.3966C76.464 92.2948 77.6153 91.7285 78.3633 92.1073C79.1114 92.486 79.1288 93.6469 78.4048 94.7493C78.1067 95.2255 77.6777 95.6285 77.1569 95.9214C76.9006 96.0661 76.6047 96.1475 76.3003 96.1571ZM77.8425 92.3672C77.314 92.3672 76.5964 92.8537 76.1152 93.5862C75.8326 93.9955 75.6704 94.4603 75.6434 94.9386C75.5966 95.0838 75.6062 95.2385 75.6707 95.3784C75.7352 95.5182 75.8509 95.6351 75.9995 95.7105C76.1481 95.786 76.3211 95.8157 76.491 95.7949C76.6609 95.7741 76.8181 95.704 76.9377 95.5958C77.395 95.3357 77.7715 94.9795 78.0331 94.5594C78.6152 93.6721 78.6689 92.6987 78.149 92.4348C78.0554 92.3887 77.9497 92.3653 77.8425 92.3669V92.3672Z" fill="#4F9CFB"/>
<path d="M79.3611 97.7801C79.1794 97.782 79.0004 97.7412 78.8427 97.6618C78.4661 97.4708 78.2633 97.0782 78.2718 96.5562C78.3 96.0131 78.4822 95.4849 78.8018 95.0196C79.5252 93.9177 80.6764 93.3515 81.4244 93.73C82.1725 94.1084 82.1899 95.2695 81.4656 96.3719C81.1675 96.8481 80.7384 97.251 80.2177 97.5438C79.9615 97.6887 79.6656 97.7703 79.3611 97.7801ZM80.903 93.9901C80.3745 93.9901 79.6569 94.4767 79.1757 95.2092C78.8931 95.6185 78.731 96.0833 78.7039 96.5616C78.6568 96.7068 78.6662 96.8617 78.7307 97.0017C78.7951 97.1417 78.9108 97.2587 79.0595 97.3342C79.2083 97.4097 79.3814 97.4394 79.5515 97.4184C79.7215 97.3975 79.8787 97.3272 79.9982 97.2187C80.4555 96.9587 80.832 96.6025 81.0936 96.1823C81.6757 95.295 81.7294 94.3217 81.2095 94.058C81.116 94.0118 81.0102 93.9883 80.903 93.9899V93.9901Z" fill="white"/>
<g opacity="0.204">
<path opacity="0.204" d="M76.3003 90.8362C76.1185 90.838 75.9396 90.7971 75.7819 90.7177C75.4052 90.5267 75.2024 90.134 75.211 89.6121C75.2391 89.0691 75.4213 88.5409 75.741 88.0757C76.4643 86.9738 77.6156 86.409 78.3636 86.7856C79.1117 87.1621 79.1291 88.3259 78.4048 89.4281C78.1066 89.9042 77.6776 90.3072 77.1569 90.6002C76.9006 90.745 76.6047 90.8265 76.3003 90.8362ZM77.8421 87.0463C77.3137 87.0463 76.5961 87.5331 76.1148 88.2653C75.8322 88.6746 75.67 89.1394 75.6431 89.6177C75.5961 89.7629 75.6056 89.9178 75.67 90.0577C75.7345 90.1976 75.8503 90.3146 75.999 90.3901C76.1476 90.4655 76.3207 90.4951 76.4907 90.4742C76.6607 90.4533 76.8179 90.383 76.9373 90.2746C77.3946 90.0147 77.7711 89.6587 78.0327 89.2387C78.6149 88.3509 78.6686 87.3781 78.1486 87.1139C78.0551 87.0679 77.9493 87.0446 77.8421 87.0463Z" fill="#0E68EC"/>
</g>
<path d="M77.1109 91.371C76.9291 91.3728 76.7502 91.3319 76.5925 91.2525C76.2158 91.0615 76.013 90.6688 76.0216 90.1469C76.0497 89.6039 76.2319 89.0757 76.5516 88.6105C77.2749 87.5086 78.4262 86.9438 79.1742 87.3204C79.9223 87.6969 79.9397 88.8607 79.2154 89.9628C78.9172 90.439 78.4882 90.842 77.9675 91.135C77.7112 91.2798 77.4153 91.3613 77.1109 91.371ZM78.6528 87.5811C78.1243 87.5811 77.4067 88.0679 76.9255 88.8001C76.6428 89.2094 76.4806 89.6742 76.4537 90.1525C76.4067 90.2977 76.4162 90.4526 76.4806 90.5925C76.5451 90.7324 76.6609 90.8494 76.8096 90.9249C76.9582 91.0003 77.1313 91.0299 77.3013 91.009C77.4713 90.9881 77.6285 90.9178 77.7479 90.8093C78.2052 90.5495 78.5817 90.1935 78.8433 89.7735C79.4255 88.8857 79.4792 87.9129 78.9592 87.6487C78.8657 87.6027 78.7599 87.5794 78.6528 87.5811Z" fill="white"/>
<path d="M70.1389 92.7379C70.0916 92.7379 70.0456 92.7243 70.0079 92.699C69.9703 92.6738 69.9432 92.6384 69.9307 92.5983C69.9182 92.5581 69.921 92.5155 69.9388 92.4769C69.9566 92.4384 69.9884 92.406 70.0291 92.3849L72.8076 90.9397C72.8567 90.9157 72.9146 90.9095 72.9688 90.9224C73.0231 90.9353 73.0694 90.9664 73.098 91.009C73.1266 91.0515 73.1352 91.1023 73.1219 91.1503C73.1086 91.1983 73.0745 91.2399 73.0268 91.2661L70.249 92.7118C70.2156 92.729 70.1776 92.738 70.1389 92.7379Z" fill="white"/>
<path d="M70.1389 96.2244C70.0916 96.2245 70.0456 96.2108 70.0079 96.1856C69.9703 96.1604 69.9432 96.125 69.9307 96.0848C69.9182 96.0447 69.921 96.0021 69.9388 95.9635C69.9566 95.9249 69.9884 95.8926 70.0291 95.8715L72.8076 94.426C72.8567 94.402 72.9146 94.3958 72.9688 94.4087C73.0231 94.4216 73.0694 94.4527 73.098 94.4953C73.1266 94.5378 73.1352 94.5885 73.1219 94.6366C73.1086 94.6846 73.0745 94.7262 73.0268 94.7525L70.249 96.1981C70.2157 96.2154 70.1776 96.2245 70.1389 96.2244Z" fill="white"/>
<path d="M70.1389 97.3241C70.0918 97.324 70.046 97.3103 70.0086 97.2851C69.9712 97.2599 69.9442 97.2246 69.9317 97.1846C69.9193 97.1446 69.922 97.1022 69.9396 97.0637C69.9572 97.0253 69.9887 96.9929 70.0291 96.9717L72.8076 95.526C72.8567 95.502 72.9146 95.4957 72.9689 95.5087C73.0231 95.5216 73.0695 95.5527 73.0981 95.5952C73.1267 95.6378 73.1352 95.6885 73.1219 95.7366C73.1086 95.7846 73.0745 95.8262 73.0268 95.8524L70.249 97.2978C70.2157 97.3151 70.1776 97.3242 70.1389 97.3241Z" fill="white"/>
<path opacity="0.5" d="M65.8312 94.2141L65.8071 94.9084C65.8049 94.979 65.7819 95.0489 65.7405 95.1111C65.699 95.1732 65.6406 95.2254 65.571 95.2624L62.2274 97.0428C62.2009 97.0571 62.1711 97.065 62.1409 97.0659C62.1108 97.0667 62.0813 97.0603 62.0556 97.0475C62.0299 97.0347 62.0089 97.0158 61.9946 96.9928C61.9803 96.9697 61.9734 96.9434 61.9744 96.9165L62.0023 96.2231C62.0045 96.1525 62.0275 96.0826 62.0689 96.0204C62.1104 95.9583 62.1688 95.9061 62.2384 95.8691L65.5854 94.0913C65.6113 94.0788 65.6399 94.0721 65.6687 94.0719C65.6974 94.0718 65.7254 94.0781 65.7499 94.0903C65.7744 94.1026 65.7947 94.1204 65.809 94.142C65.8232 94.1636 65.8308 94.1884 65.8312 94.2141Z" fill="white"/>
<path opacity="0.7" d="M65.8293 92.4953L65.8037 93.1851C65.8015 93.2557 65.7785 93.3256 65.7371 93.3878C65.6957 93.4499 65.6372 93.5021 65.5677 93.5391L62.2225 95.3141C62.1965 95.3287 62.167 95.337 62.1371 95.3381C62.1071 95.3392 62.0778 95.333 62.0523 95.3203C62.0268 95.3075 62.006 95.2886 61.9921 95.2656C61.9782 95.2427 61.9717 95.2164 61.9734 95.1896L61.9989 94.4998C62.0011 94.4292 62.0241 94.3593 62.0656 94.2971C62.107 94.235 62.1654 94.1828 62.235 94.1458L65.5763 92.3689C65.6028 92.3547 65.6326 92.3467 65.6628 92.3459C65.6929 92.3451 65.7224 92.3514 65.7481 92.3642C65.7738 92.3771 65.7948 92.396 65.8091 92.419C65.8233 92.442 65.8303 92.4683 65.8293 92.4953Z" fill="white"/>
<path d="M65.8405 90.8301L65.8144 91.5197C65.8122 91.5903 65.7892 91.6602 65.7478 91.7224C65.7063 91.7845 65.6479 91.8367 65.5783 91.8737L62.236 93.6454C62.21 93.66 62.1805 93.6683 62.1505 93.6694C62.1206 93.6705 62.0913 93.6643 62.0658 93.6516C62.0403 93.6388 62.0195 93.62 62.0056 93.597C61.9917 93.574 61.9852 93.5477 61.9869 93.5209L62.0086 92.8292C62.0108 92.7586 62.0338 92.6887 62.0752 92.6265C62.1167 92.5644 62.1751 92.5122 62.2447 92.4752L65.586 90.6983C65.6129 90.6836 65.6434 90.6755 65.6741 90.6748C65.7048 90.6741 65.7348 90.6809 65.7607 90.6943C65.7867 90.7078 65.8077 90.7274 65.8215 90.7512C65.8354 90.7751 65.8416 90.8021 65.8395 90.8296L65.8405 90.8301Z" fill="white"/>
<path opacity="0.52" d="M91.6062 126.559C94.4932 124.78 95.9314 122.205 94.8186 120.808C93.7059 119.412 90.4634 119.722 87.5764 121.502C84.6894 123.282 83.2512 125.856 84.364 127.253C85.4767 128.649 88.7192 128.339 91.6062 126.559Z" fill="url(#paint26_linear_97_700)"/>
<path d="M91.635 97.6415L92.7633 96.4849L92.4358 94.9241L93.147 93.288C93.147 93.288 90.5548 90.874 89.3808 91.9976C88.2067 93.1212 88.7385 94.4516 88.7577 95.0784C88.7769 95.7052 89.8937 95.8098 90.564 95.894C90.491 96.1451 90.4565 96.4036 90.4615 96.6627L91.635 97.6415Z" fill="#95E3FF"/>
<path d="M91.1514 93.9821C90.582 94.3636 90.3585 94.5156 90.188 93.4814C89.5202 93.2102 87.2061 92.3122 90.188 91.5269C92.0483 91.268 93.6075 91.8375 93.7737 93.0066C93.9399 94.1758 93.7277 96.0131 92.4572 96.1244C92.3906 96.1268 92.3239 96.1241 92.2578 96.1164C92.1057 96.0983 91.9592 96.054 91.8266 95.986C91.694 95.9181 91.5779 95.8278 91.485 95.7204C91.3921 95.613 91.3241 95.4906 91.285 95.3601C91.246 95.2296 91.2365 95.0935 91.2572 94.9598C91.4496 94.5156 91.5073 93.9733 91.1514 93.9821Z" fill="#2A4F76"/>
<path d="M93.3187 121.899C93.3187 121.899 93.2354 121.947 93.5977 122.639C93.96 123.331 92.2428 124.039 91.9692 123.18C91.8591 122.613 90.3716 122.322 90.1859 121.591C90.0001 120.859 90.3841 120.557 91.2145 120.774L93.3187 121.899Z" fill="#2A4F76"/>
<path d="M92.9104 120.461C92.9856 120.877 93.0245 121.297 93.0268 121.718C93.0192 122.228 93.2595 122.169 93.0268 122.342C92.4615 122.764 91.649 121.652 91.649 121.652C91.649 121.652 91.8485 120.061 91.8601 119.996L92.9104 120.461Z" fill="#95E3FF"/>
<path d="M88.9911 122.709C88.9911 122.709 89.7202 124.404 89.1356 125.008C87.9268 125.079 87.3318 124.146 87.4791 123.997C87.6624 123.721 87.8178 123.431 87.9435 123.13L88.9911 122.709Z" fill="#95E3FF"/>
<path d="M86.6151 107.77C88.3293 108.982 93.3992 108.12 94.422 107.39C94.4797 108.369 94.3211 109.349 93.9551 110.276C93.5395 111.151 93.4434 120.791 93.5075 121.71C93.5715 122.628 91.7421 121.645 91.2547 120.566C90.7674 119.487 90.99 111.567 90.99 111.567C90.99 111.567 91.3432 109.824 90.2161 109.876C88.622 111.925 89.7684 121.856 89.6263 123.509C90.037 124.689 87.953 124.112 87.4452 123.509C86.9335 121.803 86.4681 112.278 86.6151 107.77Z" fill="#D5D6DB"/>
<path d="M89.4997 124.399C89.4997 124.399 90.1868 125.782 89.0237 125.859C87.738 125.398 87.2571 125.919 86.0656 125.859C84.8741 125.798 84.1825 124.683 84.8848 124.669C85.7756 124.596 86.6468 124.395 87.4638 124.074C88.035 125.178 89.4997 124.399 89.4997 124.399Z" fill="#2A4F76"/>
<path d="M90.2444 96.3653C89.4704 96.1942 87.8725 96.8435 87.2214 97.6334C85.7695 99.9581 84.7076 103.179 85.7478 103.3C86.3057 103.366 86.8732 103.324 87.4108 103.177C87.6947 103.057 87.2049 102.157 86.5127 105.801C85.8204 109.446 88.6593 109.437 91.3228 109.12C93.9863 108.804 95.5251 108.159 95.0006 105.146C94.476 102.133 95.0173 101.645 95.1387 99.3964C95.2601 97.1482 93.1546 95.8409 92.6185 96.1751C92.2977 97.0889 91.0172 96.5353 90.2444 96.3653Z" fill="white"/>
<path opacity="0.19" d="M67.2084 30.5544C64.7631 23.7786 59.1577 19.2306 54.5854 20.3213L54.4806 20.3495L54.3759 20.3776C54.3625 20.3721 54.348 20.3689 54.3332 20.3683L51.9129 21.0345L52.1168 21.5892C49.279 24.1149 48.5119 29.5516 50.5314 35.1678C52.5508 40.7841 56.7308 44.8548 60.7004 45.482L60.8979 46.0359L63.3684 45.3522C67.9696 44.0917 69.6588 37.4734 67.2084 30.5544Z" fill="url(#paint27_linear_97_700)"/>
<path d="M61.3308 46.1659C65.9402 44.8867 67.6681 38.2499 65.19 31.342C62.712 24.4342 56.9664 19.8713 52.357 21.1504C47.7475 22.4295 46.0197 29.0664 48.4977 35.9742C50.9757 42.882 56.7213 47.445 61.3308 46.1659Z" fill="url(#paint28_linear_97_700)"/>
<g opacity="0.85">
<path opacity="0.85" d="M52.4341 33.3474L53.4089 32.2471C53.4211 32.2326 53.437 32.2208 53.4555 32.2129C53.474 32.2049 53.4945 32.2009 53.5153 32.2012C53.5362 32.2015 53.5568 32.2061 53.5756 32.2145C53.5943 32.223 53.6107 32.2352 53.6234 32.25L55.9609 34.619C55.9917 34.6511 56.0097 34.6909 56.0123 34.7323C56.0149 34.7737 56.0018 34.8142 55.9751 34.8475L54.9996 35.9473C54.9874 35.9619 54.9714 35.9736 54.953 35.9815C54.9345 35.9895 54.914 35.9935 54.8932 35.9932C54.8723 35.9929 54.8517 35.9883 54.8329 35.9799C54.8142 35.9714 54.7978 35.9592 54.7851 35.9444L52.4493 33.5754C52.4186 33.5435 52.4004 33.5038 52.3976 33.4625C52.3949 33.4213 52.4077 33.3808 52.4341 33.3474Z" fill="white"/>
<path opacity="0.85" d="M54.3152 35.2569L58.2336 30.9267C58.2441 30.9127 58.2583 30.9011 58.2751 30.893C58.2918 30.8848 58.3105 30.8803 58.3299 30.8797C58.3492 30.8791 58.3685 30.8825 58.3864 30.8896C58.4042 30.8967 58.4201 30.9073 58.4326 30.9206L59.8546 32.3909C59.8814 32.4219 59.8962 32.4594 59.8966 32.4977C59.8969 32.536 59.8829 32.573 59.8567 32.6029L55.9385 36.9326C55.9279 36.9467 55.9137 36.9584 55.8969 36.9666C55.8801 36.9749 55.8613 36.9795 55.8418 36.9801C55.8223 36.9807 55.8029 36.9772 55.7849 36.97C55.767 36.9628 55.7511 36.9521 55.7386 36.9387L54.3166 35.4695C54.2897 35.4384 54.275 35.4007 54.2747 35.3623C54.2745 35.3238 54.2887 35.2868 54.3152 35.2569Z" fill="white"/>
</g>
</g>
<defs>
<linearGradient id="paint0_linear_97_700" x1="77.3487" y1="49.7436" x2="105.917" y2="49.7436" gradientUnits="userSpaceOnUse">
<stop stop-color="white" stop-opacity="0.788"/>
<stop offset="1" stop-color="white" stop-opacity="0.263"/>
</linearGradient>
<linearGradient id="paint1_linear_97_700" x1="92.822" y1="44.8595" x2="102.898" y2="44.8595" gradientUnits="userSpaceOnUse">
<stop stop-color="white"/>
<stop offset="1" stop-color="white" stop-opacity="0.6"/>
</linearGradient>
<linearGradient id="paint2_linear_97_700" x1="207.371" y1="-11.8617" x2="207.897" y2="-17.9397" gradientUnits="userSpaceOnUse">
<stop stop-color="white"/>
<stop offset="1" stop-color="white"/>
</linearGradient>
<linearGradient id="paint3_linear_97_700" x1="85.0438" y1="102.528" x2="59.9787" y2="97.6009" gradientUnits="userSpaceOnUse">
<stop stop-color="white" stop-opacity="0.2"/>
<stop offset="0.997" stop-color="white" stop-opacity="0.502"/>
</linearGradient>
<linearGradient id="paint4_linear_97_700" x1="65.2366" y1="81.2339" x2="70.2994" y2="90.9933" gradientUnits="userSpaceOnUse">
<stop stop-color="white" stop-opacity="0.898"/>
<stop offset="1" stop-color="white" stop-opacity="0.502"/>
</linearGradient>
<linearGradient id="paint5_linear_97_700" x1="1.40156" y1="35.0347" x2="26.064" y2="102.245" gradientUnits="userSpaceOnUse">
<stop stop-color="white" stop-opacity="0.898"/>
<stop offset="1" stop-color="white" stop-opacity="0.502"/>
</linearGradient>
<linearGradient id="paint6_linear_97_700" x1="31.8549" y1="84.3924" x2="58.2641" y2="84.3924" gradientUnits="userSpaceOnUse">
<stop stop-color="white" stop-opacity="0.898"/>
<stop offset="1" stop-color="white" stop-opacity="0.502"/>
</linearGradient>
<linearGradient id="paint7_linear_97_700" x1="58.2645" y1="84.3935" x2="84.674" y2="84.3935" gradientUnits="userSpaceOnUse">
<stop stop-color="white" stop-opacity="0.898"/>
<stop offset="1" stop-color="white" stop-opacity="0.502"/>
</linearGradient>
<linearGradient id="paint8_linear_97_700" x1="51.266" y1="81.2743" x2="46.5402" y2="90.2898" gradientUnits="userSpaceOnUse">
<stop stop-color="white" stop-opacity="0.898"/>
<stop offset="1" stop-color="white" stop-opacity="0.502"/>
</linearGradient>
<linearGradient id="paint9_linear_97_700" x1="37.2289" y1="100.254" x2="35.1371" y2="104.271" gradientUnits="userSpaceOnUse">
<stop stop-color="white" stop-opacity="0.898"/>
<stop offset="1" stop-color="white" stop-opacity="0.502"/>
</linearGradient>
<linearGradient id="paint10_linear_97_700" x1="52.9247" y1="108.167" x2="52.9055" y2="108.175" gradientUnits="userSpaceOnUse">
<stop stop-color="white" stop-opacity="0.898"/>
<stop offset="1" stop-color="white" stop-opacity="0.502"/>
</linearGradient>
<linearGradient id="paint11_linear_97_700" x1="57.8155" y1="90.481" x2="30.7937" y2="96.8531" gradientUnits="userSpaceOnUse">
<stop stop-color="white" stop-opacity="0.898"/>
<stop offset="1" stop-color="white" stop-opacity="0.502"/>
</linearGradient>
<linearGradient id="paint12_linear_97_700" x1="37.2102" y1="91.6679" x2="51.7146" y2="91.6679" gradientUnits="userSpaceOnUse">
<stop stop-color="white" stop-opacity="0.898"/>
<stop offset="1" stop-color="white" stop-opacity="0.502"/>
</linearGradient>
<linearGradient id="paint13_linear_97_700" x1="46.4108" y1="76.52" x2="70.1181" y2="76.52" gradientUnits="userSpaceOnUse">
<stop stop-color="white" stop-opacity="0.898"/>
<stop offset="1" stop-color="white" stop-opacity="0.502"/>
</linearGradient>
<linearGradient id="paint14_linear_97_700" x1="50.8632" y1="75.096" x2="65.6658" y2="75.096" gradientUnits="userSpaceOnUse">
<stop stop-color="white" stop-opacity="0.898"/>
<stop offset="1" stop-color="white" stop-opacity="0.502"/>
</linearGradient>
<linearGradient id="paint15_linear_97_700" x1="49.3094" y1="75.096" x2="67.2195" y2="75.096" gradientUnits="userSpaceOnUse">
<stop stop-color="white" stop-opacity="0.898"/>
<stop offset="1" stop-color="white" stop-opacity="0.502"/>
</linearGradient>
<linearGradient id="paint16_linear_97_700" x1="58.2818" y1="43.7316" x2="58.1762" y2="75.5643" gradientUnits="userSpaceOnUse">
<stop stop-color="white" stop-opacity="0"/>
<stop offset="0.997" stop-color="white" stop-opacity="0.302"/>
</linearGradient>
<radialGradient id="paint17_radial_97_700" cx="0" cy="0" r="1" gradientUnits="userSpaceOnUse" gradientTransform="translate(58.2288 66.5768) rotate(-0.345156) scale(8.98135 3.44471)">
<stop stop-color="white" stop-opacity="0"/>
<stop offset="0.426" stop-color="white" stop-opacity="0.01"/>
<stop offset="0.607" stop-color="white" stop-opacity="0.035"/>
<stop offset="0.742" stop-color="white" stop-opacity="0.086"/>
<stop offset="0.853" stop-color="white" stop-opacity="0.153"/>
<stop offset="0.95" stop-color="white" stop-opacity="0.243"/>
<stop offset="0.997" stop-color="white" stop-opacity="0.302"/>
</radialGradient>
<radialGradient id="paint18_radial_97_700" cx="0" cy="0" r="1" gradientUnits="userSpaceOnUse" gradientTransform="translate(404.951 79.4276) rotate(-0.345157) scale(807.73 135.716)">
<stop stop-color="white" stop-opacity="0"/>
<stop offset="0.426" stop-color="white" stop-opacity="0.01"/>
<stop offset="0.607" stop-color="white" stop-opacity="0.035"/>
<stop offset="0.742" stop-color="white" stop-opacity="0.086"/>
<stop offset="0.853" stop-color="white" stop-opacity="0.153"/>
<stop offset="0.95" stop-color="white" stop-opacity="0.243"/>
<stop offset="0.997" stop-color="white" stop-opacity="0.302"/>
</radialGradient>
<linearGradient id="paint19_linear_97_700" x1="16.2974" y1="112.427" x2="14.3101" y2="118.943" gradientUnits="userSpaceOnUse">
<stop stop-color="white" stop-opacity="0.898"/>
<stop offset="1" stop-color="white" stop-opacity="0.502"/>
</linearGradient>
<linearGradient id="paint20_linear_97_700" x1="20.4689" y1="117.845" x2="28.5035" y2="116.264" gradientUnits="userSpaceOnUse">
<stop stop-color="white" stop-opacity="0.898"/>
<stop offset="1" stop-color="white" stop-opacity="0.502"/>
</linearGradient>
<linearGradient id="paint21_linear_97_700" x1="18.788" y1="107.878" x2="20.3935" y2="113.266" gradientUnits="userSpaceOnUse">
<stop stop-color="white" stop-opacity="0.898"/>
<stop offset="1" stop-color="white" stop-opacity="0.502"/>
</linearGradient>
<linearGradient id="paint22_linear_97_700" x1="35.2047" y1="103.04" x2="33.2175" y2="109.555" gradientUnits="userSpaceOnUse">
<stop stop-color="white" stop-opacity="0.898"/>
<stop offset="1" stop-color="white" stop-opacity="0.502"/>
</linearGradient>
<linearGradient id="paint23_linear_97_700" x1="39.3763" y1="108.458" x2="47.4108" y2="106.876" gradientUnits="userSpaceOnUse">
<stop stop-color="white" stop-opacity="0.898"/>
<stop offset="1" stop-color="white" stop-opacity="0.502"/>
</linearGradient>
<linearGradient id="paint24_linear_97_700" x1="37.6953" y1="98.4902" x2="39.3009" y2="103.878" gradientUnits="userSpaceOnUse">
<stop stop-color="white" stop-opacity="0.898"/>
<stop offset="1" stop-color="white" stop-opacity="0.502"/>
</linearGradient>
<linearGradient id="paint25_linear_97_700" x1="68.6002" y1="89.6772" x2="88.6938" y2="91.2082" gradientUnits="userSpaceOnUse">
<stop stop-color="white" stop-opacity="0.659"/>
<stop offset="1" stop-color="white" stop-opacity="0"/>
</linearGradient>
<linearGradient id="paint26_linear_97_700" x1="85.0017" y1="126.86" x2="93.3737" y2="120.188" gradientUnits="userSpaceOnUse">
<stop stop-color="#0059E1" stop-opacity="0.475"/>
<stop offset="1" stop-color="#226FFF" stop-opacity="0.537"/>
</linearGradient>
<linearGradient id="paint27_linear_97_700" x1="67.193" y1="31.1694" x2="40.9986" y2="33.1437" gradientUnits="userSpaceOnUse">
<stop stop-color="white" stop-opacity="0.8"/>
<stop offset="1" stop-color="white" stop-opacity="0.102"/>
</linearGradient>
<linearGradient id="paint28_linear_97_700" x1="46.5447" y1="36.5162" x2="66.6113" y2="29.3177" gradientUnits="userSpaceOnUse">
<stop stop-color="white" stop-opacity="0.8"/>
<stop offset="0.04" stop-color="white" stop-opacity="0.761"/>
<stop offset="0.21" stop-color="white" stop-opacity="0.561"/>
<stop offset="0.39" stop-color="white" stop-opacity="0.388"/>
<stop offset="0.56" stop-color="white" stop-opacity="0.271"/>
<stop offset="0.72" stop-color="white" stop-opacity="0.169"/>
<stop offset="0.87" stop-color="white" stop-opacity="0.122"/>
<stop offset="1" stop-color="white" stop-opacity="0.102"/>
</linearGradient>
<clipPath id="clip0_97_700">
<rect width="107" height="133" fill="white"/>
</clipPath>
</defs>
</svg>
