<svg width="122" height="123" viewBox="0 0 122 123" fill="none" xmlns="http://www.w3.org/2000/svg">
<g clip-path="url(#clip0_97_813)">
<path d="M5.80455 88.4506L60.5101 119.698C64.2838 121.854 68.5816 122.997 72.9613 123.007C77.341 123.018 81.6447 121.897 85.4297 119.76L109.271 105.905C110.52 105.2 111.556 104.19 112.277 102.977C112.998 101.763 113.38 100.388 113.384 98.9867C113.387 97.5859 113.013 96.2086 112.298 94.9915C111.583 93.7745 110.552 92.76 109.307 92.049L54.6014 60.8008C50.8275 58.6453 46.5299 57.5035 42.1503 57.4927C37.7706 57.4819 33.467 58.6025 29.6819 60.7392L5.84012 74.5948C4.59183 75.2996 3.55542 76.309 2.83391 77.5226C2.1124 78.7363 1.73091 80.1119 1.72731 81.5128C1.72372 82.9137 2.09814 84.2911 2.81341 85.5082C3.52868 86.7253 4.55988 87.7397 5.80455 88.4506Z" fill="#0E68EC"/>
<g opacity="0.912">
<g opacity="0.912">
<path opacity="0.912" d="M17.4213 88.042C17.6455 88.3321 17.8952 88.6028 18.1677 88.8511C18.3629 88.9706 18.089 90.1529 16.8753 90.4214C16.0965 89.9327 16.248 87.8849 16.248 87.8849L17.4213 88.042Z" fill="#95E3FF"/>
<path opacity="0.912" d="M18.2089 88.9309C19.1212 89.0457 20.0467 89.0154 20.949 88.8413C21.6452 88.6566 21.3376 90.0634 20.1836 90.4692C19.0296 90.875 18.3816 90.4464 17.2695 91.3134C16.0987 91.5616 16.3133 89.8635 16.3133 89.8635C16.3133 89.8635 18.0153 90.293 18.2089 88.9309Z" fill="#2A4F76"/>
</g>
<path opacity="0.912" d="M7.80744 85.3349C12.5694 85.104 15.7108 82.7485 16.1387 82.2867C16.1387 84.5491 15.3168 89.6403 16.4562 89.3342C17.6823 89.006 18.1007 89.1412 18.2804 88.5663C18.6347 87.4332 20.0055 81.5369 19.5877 78.5201C19.1699 75.5033 9.90083 78.9151 9.56781 79.1926" fill="#C1C3CA"/>
<g opacity="0.912">
<path opacity="0.912" d="M10.351 89.7222L16.7788 86.0859V92.7815L10.351 96.4177V89.7222Z" fill="white"/>
<path opacity="0.912" d="M10.3503 89.7222L3.92261 86.0859V92.7815L10.3503 96.4177V89.7222Z" fill="#D3D3D3"/>
<path opacity="0.912" d="M3.92453 86.088L10.352 82.2793L16.7797 86.088L10.352 89.8964L3.92453 86.088Z" fill="#E9E9E9"/>
</g>
<g opacity="0.912">
<path opacity="0.912" d="M22.4414 89.9974C22.6653 90.2876 22.9148 90.5583 23.1871 90.8066C23.3833 90.926 23.1091 92.1081 21.8947 92.3769C21.1169 91.8876 21.2684 89.8398 21.2684 89.8398L22.4414 89.9974Z" fill="#95E3FF"/>
<path opacity="0.912" d="M23.2287 90.8863C24.1408 91.0012 25.0661 90.9711 25.9682 90.7971C26.6644 90.6123 26.3574 92.0188 25.2034 92.4246C24.0494 92.8304 23.4014 92.4018 22.2897 93.2689C21.1189 93.5177 21.3331 91.819 21.3331 91.819C21.3331 91.819 23.0357 92.2473 23.2287 90.8863Z" fill="#2A4F76"/>
</g>
<path opacity="0.912" d="M6.38074 81.9335C6.43471 83.267 6.13442 86.6426 10.0551 87.4905C11.5474 87.7924 13.0998 87.6308 14.492 87.0287C18.254 85.4528 20.8353 84.0759 21.2138 83.6683C21.2138 85.9307 21.0001 92.505 22.0148 91.2909C23.1878 91.4449 23.3745 90.7623 23.5249 90.6065C23.9532 89.498 25.2224 84.2683 24.8046 81.2515C24.3869 78.2347 15.0457 81.2401 14.7124 81.5172" fill="#D5D6DB"/>
<g opacity="0.912">
<path opacity="0.912" d="M96.5512 108.289C96.327 108.58 96.0773 108.85 95.8049 109.099C95.6093 109.218 95.8836 110.4 97.0969 110.669C97.8757 110.18 97.7243 108.132 97.7243 108.132L96.5512 108.289Z" fill="#95E3FF"/>
<path opacity="0.912" d="M95.7642 109.178C94.8519 109.293 93.9264 109.263 93.0242 109.088C92.328 108.904 92.6356 110.311 93.7896 110.716C94.9436 111.122 95.5915 110.694 96.7033 111.561C97.8741 111.809 97.6598 110.111 97.6598 110.111C97.6598 110.111 95.9569 110.54 95.7642 109.178Z" fill="#2A4F76"/>
</g>
<path opacity="0.912" d="M106.166 105.582C101.404 105.351 98.263 102.996 97.835 102.534C97.835 104.796 98.657 109.887 97.5176 109.581C96.2918 109.253 95.8731 109.388 95.6934 108.813C95.3391 107.68 93.9683 101.784 94.3861 98.7676C94.8039 95.7508 104.073 99.1627 104.406 99.4401" fill="#C1C3CA"/>
<g opacity="0.912">
<path opacity="0.912" d="M103.622 109.969L97.1944 106.333V113.028L103.622 116.665V109.969Z" fill="white"/>
<path opacity="0.912" d="M103.623 109.969L110.051 106.333V113.028L103.623 116.665V109.969Z" fill="#D3D3D3"/>
<path opacity="0.912" d="M110.051 106.335L103.623 102.527L97.1954 106.335L103.623 110.144L110.051 106.335Z" fill="#E9E9E9"/>
</g>
<g opacity="0.912">
<path opacity="0.912" d="M91.5311 110.244C91.3071 110.535 91.0575 110.805 90.7851 111.053C90.5889 111.173 90.8631 112.355 92.0774 112.624C92.8552 112.135 92.7038 110.087 92.7038 110.087L91.5311 110.244Z" fill="#95E3FF"/>
<path opacity="0.912" d="M90.7441 111.133C89.832 111.248 88.9067 111.218 88.0047 111.044C87.3085 110.859 87.6155 112.265 88.7695 112.671C89.9235 113.077 90.5714 112.648 91.6832 113.515C92.854 113.764 92.6397 112.066 92.6397 112.066C92.6397 112.066 90.9368 112.494 90.7441 111.133Z" fill="#2A4F76"/>
</g>
<path opacity="0.912" d="M107.591 102.181C107.537 103.514 107.837 106.89 103.916 107.738C102.424 108.04 100.872 107.878 99.4795 107.276C95.7175 105.7 93.1362 104.323 92.7575 103.916C92.7575 106.178 92.9715 112.752 91.9565 111.538C90.7835 111.692 90.5968 111.01 90.4463 110.854C90.018 109.746 88.7488 104.516 89.1666 101.499C89.5844 98.482 98.9258 101.487 99.2589 101.764" fill="#D5D6DB"/>
<path opacity="0.912" d="M5.84042 59.9911L30.3686 46.1803C34.1539 44.0432 38.4578 42.9224 42.8378 42.9332C47.2177 42.9441 51.5157 44.0861 55.2897 46.2419L109.995 77.4909C111.199 78.1721 112.204 79.1403 112.915 80.3038C113.625 81.4673 114.017 82.7874 114.054 84.1391H114.071V87.1913H114.041C113.974 88.5156 113.564 89.8022 112.851 90.9334C112.138 92.0646 111.143 93.0042 109.959 93.6662L85.4291 107.477C81.6441 109.614 77.3405 110.735 72.9609 110.724C68.5812 110.713 64.2835 109.571 60.5098 107.415L5.80423 76.167C4.5749 75.473 3.55317 74.4804 2.83968 73.2869C2.12619 72.0935 1.74554 70.7403 1.73525 69.3608H1.72668V66.95H1.72924C1.71764 65.5409 2.09218 64.154 2.81453 62.9313C3.53688 61.7087 4.58109 60.694 5.84042 59.9911Z" fill="url(#paint0_linear_97_813)"/>
<path opacity="0.912" d="M5.80549 73.9339L60.5111 105.182C64.2849 107.338 68.5826 108.479 72.9623 108.49C77.342 108.501 81.6456 107.38 85.4307 105.243L109.9 91.262C111.148 90.5569 112.184 89.5475 112.905 88.3339C113.627 87.1204 114.008 85.7449 114.012 84.3442C114.015 82.9434 113.641 81.5661 112.926 80.3491C112.211 79.132 111.18 78.1176 109.936 77.4065L55.2294 46.1583C51.4555 44.0028 47.1579 42.861 42.7782 42.8501C38.3986 42.8393 34.095 43.9599 30.3098 46.0967L5.84168 60.0781C4.59336 60.7829 3.55692 61.7923 2.83536 63.0059C2.11379 64.2195 1.73222 65.5951 1.72857 66.996C1.72491 68.3969 2.09929 69.7744 2.81451 70.9915C3.52973 72.2086 4.56086 73.223 5.80549 73.9339Z" fill="url(#paint1_linear_97_813)"/>
<path opacity="0.912" d="M20.1366 72.3153C21.4249 71.9172 22.0376 71.1791 22.8414 71.4532C23.6452 71.7272 24.5726 73.239 23.79 72.9896C23.0075 72.7402 23.1989 72.2885 20.1652 72.7377C19.689 72.4342 20.1366 72.3153 20.1366 72.3153Z" fill="#FFE5D4"/>
<path opacity="0.912" d="M25.2075 76.7657C26.7066 76.0883 27.3326 75.1002 28.3504 75.3121C29.3682 75.5239 30.7378 77.2174 29.7473 77.0339C28.7568 76.8504 28.9175 76.2715 25.3091 77.2738C24.6843 76.9775 25.2075 76.7657 25.2075 76.7657Z" fill="#FFE5D4"/>
<path opacity="0.912" d="M13.5358 69.3398C13.7709 69.1977 14.045 69.1283 14.3218 69.1409C14.5985 69.1535 14.8647 69.2475 15.0851 69.4103C17.4375 71.1373 21.8633 76.0388 24.2916 76.3112C27.0466 76.621 26.0609 77.6044 24.2916 77.6352C22.5376 77.6632 16.9362 77.2762 14.0692 73.2138C14.0195 73.1426 13.9761 73.0675 13.9393 72.9893L13.0129 71.016C12.8752 70.723 12.8522 70.3915 12.9483 70.0833C13.0445 69.7751 13.2531 69.5114 13.5352 69.3416L13.5358 69.3398Z" fill="white"/>
<path opacity="0.912" d="M19.8102 71.932C16.8895 72.4296 12.7577 71.7399 12.7577 71.7399L12.8371 74.2954C12.8371 74.2954 19.909 73.4308 20.6023 73.018C21.2957 72.6051 20.0385 71.8929 19.8102 71.932Z" fill="white"/>
<path opacity="0.912" d="M15.6076 74.7092C14.7628 78.9355 17.6791 82.4203 17.0045 83.0099C16.3298 83.5995 11.211 87.637 6.09695 83.1805C6.46903 74.7268 8.18715 66.7592 11.2609 66.8245C14.3346 66.8898 11.5986 67.0865 11.4637 67.512C11.3481 67.8766 11.9596 69.2671 13.432 69.1224C13.7304 69.0852 14.0335 69.135 14.3026 69.2654C14.5717 69.3959 14.7947 69.6011 14.9432 69.8549C16.1607 72.0514 12.7342 71.5545 15.6076 74.7092Z" fill="white"/>
<path opacity="0.912" d="M13.7076 69.1298C13.7845 68.8534 13.822 68.5681 13.819 68.2818C14.5057 68.3924 15.6368 68.6147 15.8762 67.9432C16.1156 67.2716 17.1061 65.9938 16.3505 64.4269C15.5949 62.86 12.2059 64.6902 12.2059 64.6902L12.326 66.6706L11.4961 67.4791L11.4697 67.7596C11.6143 68.2084 11.9188 68.5927 12.3288 68.8437C12.7387 69.0947 13.2273 69.1962 13.7072 69.1298H13.7076Z" fill="#95E3FF"/>
<path opacity="0.912" d="M13.512 66.9338C13.4852 67.0846 13.4281 67.2287 13.3438 67.358C13.2595 67.4873 13.1498 67.5993 13.0209 67.6874C12.892 67.7756 12.7464 67.8383 12.5925 67.8718C12.4386 67.9054 12.2794 67.9092 12.124 67.8831C12.0565 67.8721 11.9901 67.8552 11.9256 67.8329C10.7211 67.3304 11.1605 65.2823 11.7351 64.0685C12.3097 62.8548 14.0396 62.7082 15.7698 63.5451C18.4153 65.2903 15.8308 65.5649 15.0816 65.6573C14.5511 66.7236 14.3851 66.4926 13.9612 65.9095C13.6158 65.7931 13.4812 66.3969 13.512 66.9338Z" fill="#2A4F76"/>
<g opacity="0.912">
<path opacity="0.912" d="M93.8359 92.5622C92.5476 92.1638 91.9349 91.4258 91.1311 91.7001C90.3273 91.9744 89.3999 93.4859 90.1828 93.2365C90.9657 92.9871 90.7739 92.5354 93.8077 92.9847C94.2832 92.6811 93.8359 92.5622 93.8359 92.5622Z" fill="#FFE5D4"/>
<path opacity="0.912" d="M88.765 97.0129C87.2659 96.3355 86.6399 95.3474 85.6221 95.5593C84.6043 95.7711 83.2347 97.4646 84.2252 97.2811C85.2157 97.0976 85.0551 96.5187 88.6634 97.5209C89.2872 97.225 88.765 97.0129 88.765 97.0129Z" fill="#FFE5D4"/>
<path opacity="0.912" d="M100.437 89.5867C100.202 89.4446 99.9275 89.3752 99.6508 89.3878C99.374 89.4004 99.1078 89.4944 98.8875 89.6572C96.535 91.3845 92.1092 96.2856 89.6809 96.5581C86.9259 96.8679 87.9117 97.8513 89.6809 97.8821C91.4349 97.9101 97.0363 97.5231 99.9034 93.4603C99.953 93.3892 99.9965 93.3141 100.033 93.2359L100.96 91.2623C101.097 90.9693 101.12 90.6377 101.024 90.3295C100.928 90.0213 100.719 89.7577 100.437 89.5879L100.437 89.5867Z" fill="white"/>
<path opacity="0.912" d="M94.162 92.1789C97.0826 92.6765 101.214 91.9868 101.214 91.9868L101.135 94.5423C101.135 94.5423 94.0629 93.6777 93.3699 93.2649C92.6768 92.852 93.934 92.1398 94.162 92.1789Z" fill="white"/>
<path opacity="0.912" d="M98.3649 94.9561C99.21 99.1824 96.2934 102.667 96.968 103.257C97.6427 103.847 102.762 107.884 107.876 103.428C107.504 94.974 105.786 87.0065 102.712 87.0717C99.6376 87.137 102.374 87.3337 102.509 87.7593C102.624 88.1238 102.013 89.5143 100.541 89.3696C100.242 89.3324 99.9391 89.3822 99.67 89.5126C99.4009 89.6429 99.1779 89.8481 99.0294 90.1018C97.8119 92.2983 101.238 91.8014 98.3649 94.9561Z" fill="white"/>
<path opacity="0.912" d="M100.265 89.3767C100.188 89.1003 100.151 88.815 100.154 88.5287C99.4672 88.6393 98.336 88.8616 98.0966 88.19C97.8572 87.5185 96.8668 86.2407 97.6224 84.6735C98.3779 83.1063 101.767 84.9367 101.767 84.9367L101.647 86.9172L102.477 87.7257L102.503 88.0065C102.358 88.4553 102.054 88.8396 101.644 89.0906C101.234 89.3416 100.746 89.443 100.266 89.3767H100.265Z" fill="#95E3FF"/>
<path opacity="0.912" d="M100.461 87.1807C100.487 87.3315 100.544 87.4756 100.629 87.6049C100.713 87.7342 100.823 87.8462 100.952 87.9343C101.081 88.0225 101.226 88.0852 101.38 88.1187C101.534 88.1523 101.693 88.1561 101.848 88.13C101.916 88.1189 101.982 88.1021 102.047 88.0798C103.251 87.5773 102.812 85.5292 102.237 84.3154C101.663 83.1017 99.9329 82.9551 98.2027 83.792C95.5572 85.5372 98.1417 85.8118 98.891 85.9042C99.4215 86.9704 99.5875 86.7395 100.011 86.1563C100.356 86.04 100.491 86.6438 100.461 87.1807Z" fill="#2A4F76"/>
</g>
<path opacity="0.468" d="M83.2049 94.6947L67.3719 85.8278C67.2715 85.7717 67.1882 85.6909 67.1303 85.5936C67.0723 85.4963 67.0418 85.386 67.0418 85.2736C67.0418 85.1613 67.0723 85.0509 67.1303 84.9536C67.1882 84.8563 67.2715 84.7755 67.3719 84.7194L74.6736 80.6302C74.723 80.6023 74.7639 80.5624 74.7924 80.5144C74.8208 80.4664 74.8358 80.412 74.8358 80.3566C74.8358 80.3012 74.8208 80.2468 74.7924 80.1988C74.7639 80.1508 74.723 80.1109 74.6736 80.083L67.6224 76.1336C67.3465 75.9798 67.0339 75.8989 66.7157 75.8989C66.3975 75.8989 66.0849 75.9798 65.809 76.1336L62.1308 78.1934C62.0771 78.3315 61.9755 78.4471 61.8435 78.5204L54.7916 82.4699C54.465 82.6523 54.0947 82.7483 53.7178 82.7483C53.3409 82.7483 52.9706 82.6523 52.644 82.4699L47.6067 79.6489C47.382 79.6042 47.1662 79.5246 46.9676 79.4133L39.9154 75.4642C39.8348 75.4196 39.765 75.3588 39.7105 75.2859C39.6561 75.213 39.6184 75.1297 39.5999 75.0415L35.8849 77.1226C35.5582 77.3047 35.188 77.4005 34.8112 77.4005C34.4344 77.4005 34.0642 77.3047 33.7375 77.1226L26.685 73.1725C26.5841 73.117 26.5004 73.0363 26.4424 72.9389C26.3844 72.8414 26.3543 72.7308 26.3551 72.6183C26.3551 72.5719 26.3601 72.5257 26.3701 72.4804L21.7804 75.0507C21.7421 75.0717 21.6968 75.0771 21.6544 75.0659C21.6119 75.0546 21.5758 75.0276 21.5538 74.9906C21.5318 74.9537 21.5257 74.9098 21.5369 74.8685C21.548 74.8272 21.5756 74.7919 21.6135 74.7702L29.6568 70.2666C29.7063 70.2388 29.7474 70.1989 29.776 70.1508C29.8046 70.1028 29.8196 70.0483 29.8196 69.9928C29.8196 69.9374 29.8046 69.8829 29.776 69.8348C29.7474 69.7868 29.7063 69.7469 29.6568 69.7191L22.3522 65.6296C22.2519 65.5734 22.1685 65.4927 22.1106 65.3954C22.0526 65.2981 22.0221 65.1877 22.0221 65.0754C22.0221 64.963 22.0526 64.8526 22.1106 64.7553C22.1685 64.6581 22.2519 64.5773 22.3522 64.5211L29.4044 60.572C29.7312 60.3899 30.1014 60.2941 30.4782 60.2941C30.8551 60.2941 31.2253 60.3899 31.5521 60.572L47.3857 69.4395C47.4865 69.4952 47.5702 69.5758 47.6281 69.6732C47.686 69.7707 47.7161 69.8813 47.7153 69.9938C47.7154 70.0403 47.7104 70.0868 47.7004 70.1323L51.5509 67.977C51.6004 67.9492 51.6415 67.9093 51.6701 67.8612C51.6986 67.8131 51.7137 67.7586 51.7137 67.7031C51.7137 67.6476 51.6986 67.5931 51.6701 67.5451C51.6415 67.497 51.6004 67.4571 51.5509 67.4293L44.2492 63.34C44.1489 63.2838 44.0657 63.203 44.0078 63.1057C43.9499 63.0085 43.9194 62.8981 43.9194 62.7858C43.9194 62.6735 43.9499 62.5632 44.0078 62.4659C44.0657 62.3686 44.1489 62.2878 44.2492 62.2316L51.3004 58.2791C51.627 58.0967 51.9972 58.0007 52.3741 58.0007C52.751 58.0007 53.1212 58.0967 53.4478 58.2791L61.2394 62.6423C61.259 62.6526 61.2763 62.6667 61.2902 62.6836C61.3042 62.7005 61.3145 62.72 61.3205 62.7408C61.3266 62.7616 61.3282 62.7834 61.3255 62.8049C61.3227 62.8264 61.3155 62.8471 61.3043 62.8659C61.2931 62.8846 61.2781 62.901 61.2603 62.914C61.2425 62.927 61.2222 62.9365 61.2005 62.9418C61.1789 62.947 61.1563 62.9481 61.1343 62.9448C61.1122 62.9415 61.0911 62.9339 61.0721 62.9225L53.2808 58.5608C53.0049 58.407 52.6923 58.3261 52.3741 58.3261C52.0559 58.3261 51.7433 58.407 51.4674 58.5608L44.4152 62.5102C44.3659 62.538 44.3249 62.5779 44.2964 62.6259C44.2679 62.6739 44.253 62.7283 44.253 62.7837C44.253 62.839 44.2679 62.8934 44.2964 62.9414C44.3249 62.9894 44.3659 63.0293 44.4152 63.0571L51.7189 67.1466C51.8192 67.2027 51.9025 67.2835 51.9605 67.3808C52.0184 67.4781 52.0489 67.5885 52.0489 67.7008C52.0489 67.8132 52.0184 67.9235 51.9605 68.0208C51.9025 68.1181 51.8192 68.1989 51.7189 68.255L39.924 74.8601C39.9213 74.8767 39.9199 74.8935 39.9199 74.9103C39.9196 74.9657 39.9346 75.0202 39.9631 75.0681C39.9917 75.1161 40.0328 75.1559 40.0824 75.1834L44.8289 77.8415C44.8552 77.8203 44.8875 77.8075 44.9216 77.8047C44.9557 77.8019 44.9898 77.8094 45.0193 77.8261L47.7242 79.3394C48.1447 79.4116 48.5781 79.3381 48.9483 79.1316L56.5993 74.8478L54.3745 73.602C54.2742 73.5458 54.1909 73.465 54.1331 73.3678C54.0752 73.2705 54.0447 73.1601 54.0447 73.0478C54.0447 72.9355 54.0752 72.8252 54.1331 72.7279C54.1909 72.6306 54.2742 72.5498 54.3745 72.4936L70.2081 63.6261C70.5349 63.444 70.9051 63.3481 71.282 63.3481C71.6588 63.3481 72.0291 63.444 72.3558 63.6261L79.4067 67.5777C79.5072 67.6337 79.5906 67.7145 79.6486 67.8118C79.7066 67.9091 79.7371 68.0195 79.7371 68.1319C79.7371 68.2443 79.7066 68.3547 79.6486 68.452C79.5906 68.5493 79.5072 68.63 79.4067 68.6861L72.1021 72.7753C72.0526 72.8031 72.0116 72.8431 71.983 72.8911C71.9544 72.9392 71.9394 72.9937 71.9394 73.0492C71.9394 73.1047 71.9544 73.1592 71.983 73.2073C72.0116 73.2553 72.0526 73.2953 72.1021 73.3231L80.1445 77.8264C80.1645 77.8366 80.1821 77.8505 80.1964 77.8674C80.2106 77.8843 80.2212 77.9038 80.2275 77.9248C80.2337 77.9458 80.2356 77.9678 80.2328 77.9894C80.2301 78.0111 80.2229 78.032 80.2116 78.0509C80.2004 78.0699 80.1853 78.0864 80.1673 78.0995C80.1493 78.1126 80.1287 78.122 80.1068 78.1272C80.085 78.1324 80.0622 78.1333 80.04 78.1297C80.0178 78.1262 79.9965 78.1183 79.9775 78.1066L71.9361 73.6033C71.8358 73.5471 71.7526 73.4663 71.6947 73.369C71.6368 73.2717 71.6064 73.1614 71.6064 73.049C71.6064 72.9367 71.6368 72.8264 71.6947 72.7291C71.7526 72.6318 71.8358 72.551 71.9361 72.4948L79.2394 68.405C79.2889 68.3773 79.3301 68.3374 79.3586 68.2894C79.3872 68.2413 79.4023 68.1869 79.4023 68.1314C79.4023 68.076 79.3872 68.0215 79.3586 67.9735C79.3301 67.9255 79.2889 67.8856 79.2394 67.8578L72.1872 63.909C71.9114 63.7552 71.5987 63.6743 71.2805 63.6743C70.9623 63.6743 70.6497 63.7552 70.3738 63.909L54.5402 72.7766C54.4907 72.8044 54.4496 72.8443 54.421 72.8924C54.3925 72.9404 54.3774 72.9949 54.3774 73.0504C54.3774 73.1059 54.3925 73.1604 54.421 73.2085C54.4496 73.2566 54.4907 73.2965 54.5402 73.3243L61.8435 77.4135C61.9199 77.4557 61.9867 77.5125 62.0398 77.5804C62.0929 77.6483 62.1314 77.7259 62.1527 77.8086L65.642 75.8546C65.9685 75.6721 66.3388 75.5759 66.7157 75.5759C67.0926 75.5759 67.4628 75.6721 67.7893 75.8546L74.8419 79.8013C74.9421 79.8575 75.0254 79.9383 75.0833 80.0356C75.1412 80.1329 75.1716 80.2432 75.1716 80.3555C75.1716 80.4678 75.1412 80.5782 75.0833 80.6755C75.0254 80.7727 74.9421 80.8535 74.8419 80.9097L67.5386 84.9999C67.4891 85.0277 67.448 85.0676 67.4194 85.1157C67.3908 85.1638 67.3758 85.2183 67.3758 85.2738C67.3758 85.3292 67.3908 85.3837 67.4194 85.4318C67.448 85.4799 67.4891 85.5198 67.5386 85.5476L83.3719 94.4152C83.6478 94.5689 83.9605 94.6499 84.2787 94.6499C84.597 94.6499 84.9097 94.5689 85.1856 94.4152L92.2378 90.4663C92.2873 90.4386 92.3284 90.3987 92.357 90.3507C92.3856 90.3027 92.4006 90.2482 92.4006 90.1928C92.4006 90.1373 92.3856 90.0829 92.357 90.0348C92.3284 89.9868 92.2873 89.9469 92.2378 89.9192L84.9342 85.8278C84.8338 85.7717 84.7505 85.6909 84.6925 85.5936C84.6346 85.4963 84.6041 85.386 84.6041 85.2736C84.6041 85.1613 84.6346 85.0509 84.6925 84.9536C84.7505 84.8563 84.8338 84.7755 84.9342 84.7194L92.9765 80.216C92.9955 80.2047 93.0167 80.1971 93.0388 80.1938C93.0608 80.1905 93.0833 80.1915 93.105 80.1968C93.1266 80.2021 93.147 80.2115 93.1648 80.2245C93.1826 80.2376 93.1976 80.2539 93.2088 80.2727C93.22 80.2914 93.2271 80.3121 93.2299 80.3336C93.2327 80.3551 93.231 80.3769 93.225 80.3978C93.2189 80.4186 93.2086 80.438 93.1947 80.455C93.1808 80.4719 93.1635 80.4859 93.1439 80.4962L85.1015 84.9999C85.052 85.0277 85.0109 85.0676 84.9823 85.1157C84.9537 85.1638 84.9387 85.2183 84.9387 85.2738C84.9387 85.3292 84.9537 85.3837 84.9823 85.4318C85.0109 85.4799 85.052 85.5198 85.1015 85.5476L92.4048 89.6372C92.5051 89.6933 92.5885 89.7741 92.6464 89.8714C92.7043 89.9687 92.7348 90.079 92.7348 90.1914C92.7348 90.3037 92.7043 90.4141 92.6464 90.5114C92.5885 90.6087 92.5051 90.6895 92.4048 90.7456L85.3523 94.6947C85.0256 94.877 84.6554 94.9729 84.2786 94.9729C83.9018 94.9729 83.5315 94.877 83.2049 94.6947ZM52.8109 82.1891C53.0868 82.3428 53.3994 82.4238 53.7176 82.4238C54.0358 82.4238 54.3484 82.3428 54.6243 82.1891L57.7812 80.4211C57.7648 80.3847 57.7628 80.3436 57.7756 80.3058C57.7885 80.2681 57.8152 80.2362 57.8507 80.2163L61.8384 77.9847C61.8384 77.9791 61.8384 77.9735 61.8384 77.9678C61.8387 77.9122 61.8239 77.8576 61.7953 77.8095C61.7668 77.7613 61.7255 77.7214 61.6759 77.6937L56.9288 75.0359C56.9216 75.0417 56.914 75.0468 56.9059 75.0513L49.115 79.4133C48.8707 79.5501 48.601 79.6388 48.3213 79.6741L52.8109 82.1891ZM34.1556 67.1466C34.256 67.2027 34.3393 67.2835 34.3972 67.3808C34.4552 67.4781 34.4857 67.5885 34.4857 67.7008C34.4857 67.8132 34.4552 67.9235 34.3972 68.0208C34.3393 68.1181 34.256 68.1989 34.1556 68.255L26.852 72.3452C26.8025 72.3729 26.7614 72.4128 26.7328 72.4608C26.7042 72.5088 26.6891 72.5633 26.6891 72.6188C26.6891 72.6742 26.7042 72.7287 26.7328 72.7767C26.7614 72.8247 26.8025 72.8646 26.852 72.8923L33.9045 76.8411C34.1804 76.9949 34.4931 77.0759 34.8114 77.0759C35.1296 77.0759 35.4423 76.9949 35.7182 76.8411L39.6459 74.6418C39.7029 74.5217 39.7971 74.4218 39.9154 74.3561L47.2188 70.2666C47.2683 70.2388 47.3094 70.1989 47.3379 70.1508C47.3665 70.1028 47.3816 70.0483 47.3816 69.9928C47.3816 69.9374 47.3665 69.8829 47.3379 69.8348C47.3094 69.7868 47.2683 69.7469 47.2188 69.7191L31.3854 60.8531C31.1095 60.6993 30.7968 60.6184 30.4786 60.6184C30.1603 60.6184 29.8476 60.6993 29.5717 60.8531L26.2437 62.7165L34.1556 67.1466ZM22.5195 64.8016C22.47 64.8294 22.4289 64.8692 22.4003 64.9173C22.3717 64.9653 22.3567 65.0198 22.3567 65.0752C22.3567 65.1306 22.3717 65.1851 22.4003 65.2331C22.4289 65.2812 22.47 65.321 22.5195 65.3488L29.8228 69.4386C29.9236 69.4943 30.0072 69.575 30.0651 69.6724C30.123 69.7698 30.1531 69.8804 30.1524 69.9928C30.1525 70.0394 30.1475 70.0858 30.1374 70.1314L33.9883 67.9761C34.0378 67.9483 34.0789 67.9083 34.1075 67.8603C34.136 67.8122 34.1511 67.7577 34.1511 67.7022C34.1511 67.6467 34.136 67.5922 34.1075 67.5442C34.0789 67.4961 34.0378 67.4561 33.9883 67.4283L25.9462 62.9237C25.9348 62.9174 25.9241 62.9097 25.9145 62.901L22.5195 64.8016Z" fill="#6698E0"/>
<g opacity="0.912">
<g opacity="0.332">
<path opacity="0.672" d="M52.6198 63.7926C53.7772 63.7927 54.9139 63.4952 55.9142 62.9305L59.4565 60.9292C59.8209 60.7233 60.1235 60.4285 60.3342 60.0741C60.5448 59.7197 60.6561 59.3181 60.6572 58.909C60.6583 58.5 60.549 58.0978 60.3402 57.7423C60.1314 57.3869 59.8303 57.0907 59.4669 56.8831L45.6701 49.003C44.6676 48.4316 43.5265 48.1289 42.3636 48.1258C41.2008 48.1228 40.058 48.4196 39.0523 48.9857L35.5106 50.9871C35.1462 51.193 34.8436 51.4879 34.633 51.8423C34.4224 52.1967 34.311 52.5984 34.3099 53.0075C34.3089 53.4166 34.4182 53.8189 34.6269 54.1743C34.8357 54.5298 35.1368 54.8261 35.5001 55.0338L49.2969 62.9139C50.3038 63.4892 51.4512 63.7926 52.6198 63.7926ZM42.3469 48.7671C43.3979 48.7665 44.4298 49.0389 45.3356 49.5559L59.1317 57.4367C59.396 57.5875 59.615 57.8029 59.7668 58.0613C59.9187 58.3197 59.9982 58.6121 59.9974 58.9096C59.9966 59.207 59.9155 59.499 59.7623 59.7566C59.609 60.0143 59.3889 60.2285 59.1238 60.378L55.5815 62.3794C54.6775 62.889 53.65 63.1563 52.6044 63.1537C51.5588 63.1511 50.5328 62.8788 49.6315 62.3646L35.835 54.4839C35.5708 54.3329 35.3518 54.1175 35.1999 53.8591C35.0481 53.6006 34.9686 53.3081 34.9694 53.0107C34.9702 52.7132 35.0513 52.4211 35.2045 52.1635C35.3578 51.9058 35.5779 51.6915 35.843 51.5419L39.3846 49.5421C40.2841 49.0343 41.3062 48.7669 42.3469 48.7671Z" fill="#276AC6"/>
</g>
<g opacity="0.912">
<path opacity="0.912" d="M52.6198 61.0846C53.7772 61.0847 54.9139 60.7872 55.9142 60.2225L59.4565 58.2212C59.8209 58.0153 60.1235 57.7205 60.3342 57.3661C60.5448 57.0117 60.6561 56.6101 60.6572 56.201C60.6583 55.792 60.549 55.3898 60.3402 55.0343C60.1314 54.6789 59.8303 54.3827 59.4669 54.1751L45.6701 46.295C44.6676 45.7236 43.5265 45.4209 42.3636 45.4178C41.2008 45.4148 40.058 45.7116 39.0523 46.2777L35.5106 48.2791C35.1462 48.485 34.8436 48.7799 34.633 49.1343C34.4224 49.4887 34.311 49.8904 34.3099 50.2995C34.3089 50.7086 34.4182 51.1109 34.6269 51.4663C34.8357 51.8218 35.1368 52.118 35.5001 52.3258L49.2969 60.2059C50.3038 60.7812 51.4512 61.0846 52.6198 61.0846ZM42.3469 46.0591C43.3979 46.0585 44.4298 46.3309 45.3356 46.8479L59.1317 54.7287C59.396 54.8795 59.615 55.0949 59.7668 55.3533C59.9187 55.6117 59.9982 55.9041 59.9974 56.2016C59.9966 56.499 59.9155 56.791 59.7623 57.0486C59.609 57.3062 59.3889 57.5205 59.1238 57.67L55.5815 59.6714C54.6775 60.181 53.65 60.4483 52.6044 60.4457C51.5588 60.4431 50.5328 60.1708 49.6315 59.6566L35.835 51.7759C35.5708 51.6249 35.3518 51.4095 35.1999 51.1511C35.0481 50.8926 34.9686 50.6001 34.9694 50.3027C34.9702 50.0052 35.0513 49.7131 35.2045 49.4555C35.3578 49.1978 35.5779 48.9835 35.843 48.8339L39.3846 46.8341C40.2841 46.3263 41.3062 46.0589 42.3469 46.0591Z" fill="white"/>
</g>
</g>
<g opacity="0.912">
<path opacity="0.443" d="M79.481 89.7191C81.7156 89.7191 83.5271 88.7031 83.5271 87.4498C83.5271 86.1966 81.7156 85.1806 79.481 85.1806C77.2464 85.1806 75.4349 86.1966 75.4349 87.4498C75.4349 88.7031 77.2464 89.7191 79.481 89.7191Z" fill="url(#paint2_linear_97_813)"/>
<path opacity="0.912" d="M83.8678 87.4498C83.8818 86.8825 83.7788 86.3181 83.5646 85.7899C83.3505 85.2617 83.0296 84.7804 82.6208 84.3743C82.212 83.9682 81.7237 83.6455 81.1844 83.4252C80.6451 83.2048 80.0659 83.0913 79.4807 83.0913C78.8955 83.0913 78.3163 83.2048 77.777 83.4252C77.2377 83.6455 76.7493 83.9682 76.3406 84.3743C75.9318 84.7804 75.6109 85.2617 75.3967 85.7899C75.1826 86.3181 75.0795 86.8825 75.0936 87.4498H83.8678Z" fill="url(#paint3_linear_97_813)"/>
<path opacity="0.912" d="M83.5284 87.4498C83.5379 86.9285 83.4403 86.4104 83.2411 85.9261C83.042 85.4417 82.7454 85.0006 82.3685 84.6286C81.9917 84.2567 81.5423 83.9612 81.0465 83.7595C80.5506 83.5578 80.0184 83.4539 79.4807 83.4539C78.943 83.4539 78.4107 83.5578 77.9149 83.7595C77.4191 83.9612 76.9697 84.2567 76.5928 84.6286C76.216 85.0006 75.9194 85.4417 75.7203 85.9261C75.5211 86.4104 75.4235 86.9285 75.433 87.4498H83.5284Z" fill="url(#paint4_linear_97_813)"/>
</g>
</g>
<path opacity="0.334" d="M46.7352 113.722C44.0095 111.87 40.9481 111.546 39.8975 113C38.8468 114.454 40.2047 117.135 42.9304 118.988C45.6561 120.84 48.7175 121.164 49.7682 119.71C50.8188 118.256 49.4609 115.575 46.7352 113.722Z" fill="url(#paint5_linear_97_813)"/>
<path d="M45.553 85.684C45.553 85.684 45.539 84.902 45.4502 84.8293C46.1257 84.7369 47.2508 84.6196 47.2702 83.9229C47.2896 83.2261 47.8261 81.7488 46.6413 80.5009C45.4565 79.2529 42.8482 81.9347 42.8482 81.9347L43.5638 83.7514L43.232 85.4851L44.3704 86.77L45.553 85.684Z" fill="#95E3FF"/>
<path d="M44.7527 83.6399C44.9451 84.1325 44.3159 85.0051 43.5428 84.9331C42.2634 84.8121 42.051 82.7698 42.2174 81.4704C42.3838 80.1711 43.9581 79.539 45.8305 79.8256C48.835 80.6973 46.5022 81.6967 45.8305 81.9973C45.6603 83.1445 45.4337 82.9776 44.8603 82.5536C44.5019 82.5438 44.5597 83.1463 44.7527 83.6399Z" fill="#2A4F76"/>
<path d="M53.8011 90.1859C53.8011 90.1859 54.5418 89.312 54.5802 89.0965C54.6186 88.881 54.7526 87.6044 55.591 87.4726C56.4294 87.3409 56.2199 88.9032 56.0374 89.3964C55.8548 89.8897 53.5643 91.3014 53.5643 91.3014L53.8011 90.1859Z" fill="#95E3FF"/>
<path d="M53.9633 89.4487C54.4129 89.4303 54.9405 91.124 54.2383 91.7272C53.536 92.3304 51.5017 94.7061 50.7198 94.1544C49.9379 93.6026 48.4883 92.2374 48.2153 91.2909C47.7369 91.7731 48.3362 95.0648 48.4909 96.3771C48.6455 97.6894 48.0334 99.8419 43.8635 99.1368C39.6935 98.4317 39.1316 98.1432 39.9405 93.8751C38.0922 93.7566 37.5103 92.299 38.1164 90.8069C38.7224 89.3148 39.6929 84.7591 42.1031 84.9272C44.5133 85.0953 45.5505 85.4507 45.639 85.9621C46.4207 86.3894 47.7477 86.7478 48.6747 88.1057C49.6017 89.4635 51.0328 91.3787 51.13 91.7263C51.6954 91.1314 53.5138 89.4666 53.9633 89.4487Z" fill="white"/>
<path d="M43.3539 112.775C44.1873 112.535 44.5762 112.873 44.3901 113.683C44.2041 114.494 42.7012 114.819 42.5926 115.449C42.318 116.404 40.5888 115.618 40.9529 114.849C41.3171 114.08 41.2329 114.026 41.2329 114.026L43.3539 112.775Z" fill="#2A4F76"/>
<path d="M42.7025 112.063C42.7149 112.135 42.9161 113.904 42.9161 113.904C42.9161 113.904 42.0968 115.138 41.5279 114.67C41.2936 114.478 41.5361 114.54 41.5279 113.976C41.5304 113.508 41.5693 113.041 41.6444 112.579L42.7025 112.063Z" fill="#95E3FF"/>
<path d="M46.6508 115.545C46.7774 115.879 46.9337 116.201 47.1178 116.509C47.267 116.674 46.6651 117.709 45.4498 117.632C44.8597 116.96 45.5946 115.078 45.5946 115.078L46.6508 115.545Z" fill="#95E3FF"/>
<path d="M47.1511 115.967C46.64 116.636 44.5403 117.275 44.9533 115.967C44.8111 114.13 45.9657 103.096 44.3597 100.82C43.2234 100.762 43.5787 102.699 43.5787 102.699C43.5787 102.699 43.8047 111.499 43.3127 112.698C42.8206 113.898 40.9786 114.988 41.0431 113.967C41.1075 112.947 41.0113 102.236 40.591 101.264C40.1707 100.292 40.0081 98.2464 40.1218 98.057C41.1526 98.8684 46.2629 99.8259 47.9874 98.4795C48.1369 103.489 47.6667 114.072 47.1511 115.967Z" fill="#D5D6DB"/>
<path d="M47.1324 116.442C47.956 116.799 48.834 117.022 49.7318 117.104C50.4363 117.119 49.7436 118.358 48.5417 118.426C47.3397 118.493 46.8553 117.913 45.5603 118.426C44.3892 118.34 45.0816 116.803 45.0816 116.803C45.0816 116.803 46.5575 117.668 47.1324 116.442Z" fill="#2A4F76"/>
<path opacity="0.5" d="M8.30275 52.4685L8.28741 53.9589C8.28638 54.1103 8.24445 54.2592 8.16583 54.3908C8.08721 54.5223 7.97467 54.6319 7.83953 54.7084L1.34307 58.3923C1.29165 58.4218 1.23332 58.4376 1.17399 58.4382C1.11466 58.4387 1.05644 58.424 1.00526 58.3954C0.954074 58.3669 0.911741 58.3255 0.88256 58.2756C0.853378 58.2257 0.838387 58.169 0.839108 58.1112L0.861606 56.6259C0.862639 56.4745 0.904573 56.3256 0.983193 56.194C1.06181 56.0624 1.17435 55.9529 1.30949 55.8763L7.81434 52.196C7.86461 52.1704 7.92053 52.1575 7.97693 52.1584C8.03334 52.1592 8.08842 52.1739 8.1371 52.2011C8.18578 52.2283 8.2265 52.267 8.25549 52.3137C8.28449 52.3605 8.30084 52.4138 8.30302 52.4686L8.30275 52.4685Z" fill="white"/>
<path opacity="0.7" d="M8.29981 48.7864L8.28179 50.2643C8.28075 50.4156 8.23882 50.5646 8.1602 50.6961C8.08158 50.8277 7.96904 50.9373 7.8339 51.0138L1.3338 54.6868C1.28336 54.717 1.22565 54.7336 1.16674 54.7347C1.10783 54.7359 1.04992 54.7215 0.999097 54.6932C0.948278 54.6648 0.90644 54.6235 0.877994 54.5737C0.849548 54.5238 0.835549 54.4673 0.837474 54.4099L0.855493 52.932C0.856526 52.7807 0.89846 52.6317 0.97708 52.5002C1.0557 52.3686 1.16824 52.2591 1.30338 52.1825L7.79612 48.5054C7.84753 48.476 7.90587 48.4601 7.9652 48.4596C8.02453 48.4591 8.08274 48.4738 8.13393 48.5024C8.18511 48.5309 8.22745 48.5722 8.25663 48.6222C8.28581 48.6721 8.3008 48.7288 8.30008 48.7865L8.29981 48.7864Z" fill="white"/>
<path d="M8.32149 45.2177L8.30347 46.6956C8.30244 46.8469 8.26051 46.9958 8.18189 47.1274C8.10327 47.259 7.99073 47.3685 7.85559 47.4451L1.35993 51.1106C1.30949 51.1408 1.25178 51.1574 1.19287 51.1585C1.13396 51.1597 1.07605 51.1453 1.02523 51.1169C0.974408 51.0886 0.93257 51.0473 0.904124 50.9975C0.875678 50.9476 0.861679 50.891 0.863604 50.8337L0.873983 49.3515C0.875016 49.2002 0.91695 49.0513 0.99557 48.9197C1.07419 48.7881 1.18673 48.6786 1.32187 48.602L7.81464 44.9249C7.86703 44.894 7.92687 44.8775 7.98777 44.877C8.04866 44.8765 8.10833 44.8921 8.1604 44.9222C8.21247 44.9523 8.25499 44.9957 8.28341 45.0477C8.31183 45.0998 8.32509 45.1586 8.32177 45.2178L8.32149 45.2177Z" fill="white"/>
<path opacity="0.238" d="M70.6526 103.869C70.6526 103.297 69.9297 102.832 69.038 102.832C68.6165 102.823 68.2023 102.94 67.8513 103.166L65.4744 101.78C65.5583 101.707 65.6259 101.618 65.6733 101.518C65.7206 101.418 65.7467 101.311 65.75 101.201C65.75 100.628 65.0271 100.164 64.1353 100.164C63.778 100.16 63.425 100.241 63.108 100.401L60.7648 99.0355C60.8916 98.8968 60.9631 98.7187 60.9667 98.5334C60.9667 97.9607 60.2438 97.4967 59.3524 97.4967C58.4609 97.4967 57.7377 97.9607 57.7377 98.5334C57.7377 99.1061 58.4606 99.5704 59.3524 99.5704C59.7943 99.5811 60.2276 99.4514 60.5864 99.2009L62.8877 100.542C62.7792 100.617 62.6898 100.716 62.6263 100.83C62.5628 100.944 62.5268 101.07 62.521 101.199C62.521 101.772 63.2439 102.236 64.1356 102.236C64.5379 102.244 64.9338 102.139 65.276 101.934L67.6618 103.326C67.5135 103.471 67.428 103.665 67.423 103.869C67.4233 104.442 68.1446 104.906 69.038 104.906C69.9313 104.906 70.6526 104.442 70.6526 103.869Z" fill="#0046A8"/>
<path opacity="0.646" d="M70.6526 101.029C70.6526 100.457 69.9297 99.9928 69.038 99.9928C68.6165 99.9837 68.2023 100.1 67.8513 100.327L65.4744 98.941C65.5583 98.8674 65.6259 98.7782 65.6733 98.6786C65.7206 98.579 65.7467 98.4711 65.75 98.3615C65.75 97.7888 65.0271 97.3248 64.1353 97.3248C63.778 97.3202 63.425 97.4015 63.108 97.5616L60.7648 96.1961C60.8916 96.0573 60.9631 95.8792 60.9667 95.6939C60.9667 95.1212 60.2438 94.6572 59.3524 94.6572C58.4609 94.6572 57.7377 95.1212 57.7377 95.6939C57.7377 96.2666 58.4606 96.7309 59.3524 96.7309C59.7943 96.7417 60.2276 96.6119 60.5864 96.3614L62.8877 97.7023C62.7792 97.7779 62.6898 97.8763 62.6263 97.9902C62.5628 98.1042 62.5268 98.2306 62.521 98.36C62.521 98.9327 63.2439 99.397 64.1356 99.397C64.5379 99.4045 64.9338 99.2994 65.276 99.0943L67.6618 100.487C67.5135 100.631 67.428 100.826 67.423 101.029C67.4233 101.602 68.1446 102.066 69.038 102.066C69.9313 102.066 70.6526 101.602 70.6526 101.029Z" fill="white"/>
<path opacity="0.238" d="M54.1094 58.0266C54.1094 57.4542 53.3865 56.9899 52.4947 56.9899C52.0733 56.9808 51.6591 57.0973 51.3081 57.3237L48.9312 55.9381C49.015 55.8646 49.0827 55.7753 49.13 55.6757C49.1774 55.5761 49.2035 55.4683 49.2067 55.3587C49.2067 54.786 48.4839 54.322 47.5921 54.322C47.2348 54.3173 46.8818 54.3987 46.5648 54.5587L44.2216 53.1932C44.3483 53.0544 44.4199 52.8764 44.4235 52.691C44.4235 52.1183 43.7006 51.6543 42.8092 51.6543C41.9177 51.6543 41.1945 52.1183 41.1945 52.691C41.1945 53.2637 41.9174 53.728 42.8092 53.728C43.251 53.7388 43.6844 53.609 44.0431 53.3585L46.3445 54.6995C46.236 54.775 46.1466 54.8734 46.0831 54.9874C46.0196 55.1013 45.9836 55.2277 45.9778 55.3571C45.9778 55.9298 46.7007 56.3941 47.5924 56.3941C47.9946 56.4017 48.3906 56.2966 48.7328 56.0915L51.1185 57.4841C50.9702 57.6286 50.8848 57.8228 50.8798 58.0266C50.8801 58.5993 51.6014 59.0636 52.4947 59.0636C53.3881 59.0636 54.1094 58.5993 54.1094 58.0266Z" fill="#0046A8"/>
<path opacity="0.646" d="M54.1094 55.1872C54.1094 54.6148 53.3865 54.1505 52.4947 54.1505C52.0733 54.1414 51.6591 54.2579 51.3081 54.4842L48.9312 53.0987C49.015 53.0251 49.0827 52.9359 49.13 52.8363C49.1774 52.7367 49.2035 52.6288 49.2067 52.5192C49.2067 51.9465 48.4839 51.4825 47.5921 51.4825C47.2348 51.4779 46.8818 51.5592 46.5648 51.7193L44.2216 50.3538C44.3483 50.215 44.4199 50.0369 44.4235 49.8516C44.4235 49.2789 43.7006 48.8149 42.8092 48.8149C41.9177 48.8149 41.1945 49.2789 41.1945 49.8516C41.1945 50.4243 41.9174 50.8886 42.8092 50.8886C43.251 50.8994 43.6844 50.7696 44.0431 50.5191L46.3445 51.86C46.236 51.9356 46.1466 52.034 46.0831 52.1479C46.0196 52.2619 45.9836 52.3883 45.9778 52.5177C45.9778 53.0904 46.7007 53.5547 47.5924 53.5547C47.9946 53.5622 48.3906 53.4571 48.7328 53.252L51.1185 54.6447C50.9702 54.7892 50.8848 54.9834 50.8798 55.1872C50.8801 55.7599 51.6014 56.2242 52.4947 56.2242C53.3881 56.2242 54.1094 55.7599 54.1094 55.1872Z" fill="white"/>
<path opacity="0.122" d="M60.4943 72.9256C60.4943 72.3532 61.2172 71.8889 62.1089 71.8889C62.5304 71.8798 62.9446 71.9963 63.2956 72.2227L65.6725 70.8371C65.5886 70.7636 65.521 70.6743 65.4736 70.5747C65.4263 70.4751 65.4002 70.3673 65.3969 70.2577C65.3969 69.685 66.1198 69.221 67.0116 69.221C67.3689 69.2163 67.7219 69.2977 68.0389 69.4577L70.3821 68.0931C70.2553 67.9544 70.1838 67.7763 70.1802 67.5909C70.1805 67.0176 70.9034 66.5536 71.7961 66.5536C72.6888 66.5536 73.4108 67.0176 73.4108 67.5903C73.4108 68.163 72.6869 68.6273 71.7961 68.6273C71.3542 68.6381 70.9208 68.5083 70.5621 68.2578L68.2598 69.6C68.3683 69.6755 68.4577 69.774 68.5212 69.8879C68.5847 70.0018 68.6207 70.1283 68.6265 70.2577C68.6265 70.8304 67.9037 71.2947 67.0119 71.2947C66.6097 71.3022 66.2138 71.1971 65.8715 70.992L63.4851 72.3828C63.6334 72.5273 63.7189 72.7215 63.7239 72.9253C63.7239 73.498 63.001 73.9623 62.1092 73.9623C61.2175 73.9623 60.4943 73.498 60.4943 72.9256Z" fill="#0046A8"/>
<path opacity="0.646" d="M60.4943 65.5021C60.4943 64.9297 61.2172 64.4654 62.1089 64.4654C62.5304 64.4563 62.9446 64.5728 63.2956 64.7992L65.6725 63.4136C65.5886 63.3401 65.521 63.2508 65.4736 63.1512C65.4263 63.0516 65.4002 62.9438 65.3969 62.8342C65.3969 62.2615 66.1198 61.7975 67.0116 61.7975C67.3689 61.7928 67.7219 61.8742 68.0389 62.0342L70.3821 60.6696C70.2553 60.5309 70.1838 60.3528 70.1802 60.1674C70.1805 59.5941 70.9034 59.1301 71.7961 59.1301C72.6888 59.1301 73.4108 59.5941 73.4108 60.1668C73.4108 60.7395 72.6869 61.2038 71.7961 61.2038C71.3542 61.2146 70.9208 61.0848 70.5621 60.8344L68.2599 62.1765C68.3683 62.252 68.4577 62.3505 68.5212 62.4644C68.5847 62.5783 68.6207 62.7048 68.6265 62.8342C68.6265 63.4069 67.9037 63.8712 67.0119 63.8712C66.6097 63.8787 66.2138 63.7736 65.8715 63.5685L63.4851 64.9593C63.6334 65.1038 63.7189 65.298 63.7239 65.5018C63.7239 66.0745 63.001 66.5388 62.1092 66.5388C61.2175 66.5388 60.4943 66.0745 60.4943 65.5021Z" fill="white"/>
<path opacity="0.241" d="M6.53189 62.993C6.53189 62.4206 7.25476 61.9563 8.14653 61.9563C8.56798 61.9472 8.98218 62.0637 9.33322 62.2901L11.7101 60.9045C11.6262 60.831 11.5586 60.7417 11.5112 60.6421C11.4639 60.5425 11.4378 60.4347 11.4345 60.3251C11.4345 59.7524 12.1574 59.2884 13.0492 59.2884C13.4065 59.2837 13.7595 59.3651 14.0765 59.5252L16.4197 58.1605C16.2929 58.0218 16.2213 57.8437 16.2178 57.6583C16.2181 57.085 16.941 56.621 17.8337 56.621C18.7264 56.621 19.4484 57.085 19.4484 57.6577C19.4484 58.2304 18.7245 58.6947 17.8337 58.6947C17.3918 58.7055 16.9584 58.5758 16.5997 58.3253L14.2975 59.6674C14.4059 59.7429 14.4953 59.8414 14.5588 59.9553C14.6223 60.0693 14.6583 60.1957 14.6641 60.3251C14.6641 60.8978 13.9413 61.3621 13.0495 61.3621C12.6473 61.3696 12.2514 61.2645 11.9091 61.0594L9.52275 62.4502C9.67103 62.5947 9.75648 62.7889 9.76148 62.9927C9.76148 63.5654 9.03861 64.0297 8.14685 64.0297C7.25508 64.0297 6.53189 63.5654 6.53189 62.993Z" fill="#0046A8"/>
<path opacity="0.646" d="M6.53189 60.1539C6.53189 59.5815 7.25476 59.1172 8.14653 59.1172C8.56798 59.1081 8.98218 59.2246 9.33322 59.4509L11.7101 58.0654C11.6262 57.9918 11.5586 57.9026 11.5112 57.803C11.4639 57.7034 11.4378 57.5955 11.4345 57.4859C11.4345 56.9132 12.1574 56.4492 13.0492 56.4492C13.4065 56.4446 13.7595 56.5259 14.0765 56.686L16.4197 55.3214C16.2929 55.1826 16.2214 55.0046 16.2178 54.8192C16.2181 54.2459 16.941 53.7819 17.8337 53.7819C18.7264 53.7819 19.4484 54.2459 19.4484 54.8186C19.4484 55.3913 18.7245 55.8556 17.8337 55.8556C17.3918 55.8664 16.9584 55.7366 16.5997 55.4861L14.2975 56.8283C14.4059 56.9038 14.4953 57.0022 14.5588 57.1162C14.6223 57.2301 14.6583 57.3565 14.6641 57.4859C14.6641 58.0586 13.9413 58.5229 13.0495 58.5229C12.6473 58.5305 12.2514 58.4254 11.9091 58.2203L9.52275 59.6111C9.67103 59.7556 9.75648 59.9498 9.76148 60.1536C9.76148 60.7263 9.03861 61.1906 8.14685 61.1906C7.25508 61.1906 6.53189 60.7263 6.53189 60.1539Z" fill="white"/>
<path opacity="0.19" d="M90.93 13.4605C88.3843 5.68225 82.549 0.461367 77.7892 1.71348L77.6801 1.74581L77.571 1.77814C77.5571 1.77178 77.542 1.76813 77.5266 1.76741L75.007 2.53215L75.2193 3.16894C72.2651 6.06829 71.4665 12.3093 73.5688 18.7564C75.6711 25.2035 80.0225 29.8765 84.1549 30.5965L84.3606 31.2323L86.9324 30.4475C91.7224 29.0006 93.4808 21.4031 90.93 13.4605Z" fill="url(#paint6_linear_97_813)"/>
<path d="M84.8112 31.3815C89.6097 29.9131 91.4085 22.2944 88.8288 14.3646C86.2491 6.43482 80.2678 1.19681 75.4693 2.6652C70.6707 4.13358 68.872 11.7523 71.4517 19.6821C74.0314 27.6119 80.0126 32.8499 84.8112 31.3815Z" fill="url(#paint7_linear_97_813)"/>
<g opacity="0.85">
<path opacity="0.85" d="M75.5542 16.6835L76.5877 15.405C76.6007 15.3882 76.6175 15.3745 76.637 15.3651C76.6564 15.3557 76.6778 15.3509 76.6996 15.351C76.7213 15.3511 76.7428 15.3561 76.7623 15.3657C76.7818 15.3752 76.7987 15.3891 76.8117 15.406L79.2195 18.1087C79.2512 18.1453 79.2695 18.191 79.2716 18.2386C79.2737 18.2863 79.2595 18.3331 79.2311 18.3718L78.1969 19.6497C78.184 19.6665 78.1671 19.6802 78.1477 19.6896C78.1283 19.699 78.1068 19.7038 78.085 19.7037C78.0633 19.7036 78.0418 19.6986 78.0223 19.689C78.0029 19.6795 77.986 19.6657 77.9729 19.6487L75.5669 16.946C75.5352 16.9096 75.5168 16.864 75.5145 16.8166C75.5122 16.7691 75.5262 16.7223 75.5542 16.6835Z" fill="white"/>
<path opacity="0.85" d="M77.5031 18.8836L81.6233 13.8885C81.6345 13.8723 81.6493 13.859 81.6668 13.8495C81.6842 13.84 81.7037 13.8346 81.7237 13.8337C81.7438 13.8328 81.7638 13.8365 81.7822 13.8444C81.8005 13.8523 81.8168 13.8643 81.8296 13.8793L83.2823 15.5447C83.3097 15.5798 83.3244 15.6225 83.3243 15.6663C83.3241 15.7102 83.3091 15.7526 83.2815 15.7871L79.1614 20.7815C79.1503 20.7978 79.1354 20.8113 79.1179 20.8209C79.1004 20.8306 79.0808 20.836 79.0606 20.8369C79.0405 20.8378 79.0203 20.8341 79.0018 20.8261C78.9834 20.818 78.9671 20.8059 78.9543 20.7907L77.5016 19.1266C77.4741 19.0914 77.4594 19.0485 77.4597 19.0045C77.4599 18.9606 77.4752 18.918 77.5031 18.8836Z" fill="white"/>
</g>
<g opacity="0.397">
<path opacity="0.397" d="M61.6676 91.3931C61.4887 91.3933 61.3129 91.3477 61.1578 91.2611L56.7215 88.7769C56.6497 88.7362 56.59 88.678 56.5486 88.608C56.5071 88.538 56.4854 88.4587 56.4854 88.378C56.4854 88.2973 56.5071 88.218 56.5486 88.148C56.59 88.0781 56.6497 88.0198 56.7215 87.9791L61.1581 85.495C61.3132 85.4085 61.4889 85.3631 61.6678 85.3631C61.8467 85.3631 62.0224 85.4085 62.1775 85.495L66.6138 87.9791C66.6856 88.0198 66.7452 88.0781 66.7867 88.148C66.8281 88.218 66.8499 88.2973 66.8499 88.378C66.8499 88.4587 66.8281 88.538 66.7867 88.608C66.7452 88.678 66.6856 88.7362 66.6138 88.7769L62.1772 91.2611C62.0222 91.3477 61.8465 91.3932 61.6676 91.3931ZM61.6676 85.7512C61.559 85.7511 61.4523 85.7787 61.3581 85.8312L56.9215 88.3154C56.9101 88.3217 56.9006 88.3308 56.894 88.3419C56.8874 88.3529 56.8839 88.3654 56.8839 88.3782C56.8839 88.3909 56.8874 88.4035 56.894 88.4145C56.9006 88.4255 56.9101 88.4347 56.9215 88.441L61.3578 90.9248C61.452 90.9774 61.5587 91.0051 61.6673 91.0051C61.776 91.0051 61.8827 90.9774 61.9769 90.9248L66.4134 88.4407C66.4249 88.4344 66.4344 88.4252 66.441 88.4142C66.4476 88.4032 66.451 88.3906 66.451 88.3779C66.451 88.3651 66.4476 88.3526 66.441 88.3416C66.4344 88.3305 66.4249 88.3214 66.4134 88.3151L61.9772 85.8309C61.883 85.7785 61.7762 85.751 61.6676 85.7512Z" fill="#518BE5"/>
</g>
<path d="M61.6676 88.7329C61.4887 88.733 61.3129 88.6875 61.1578 88.6008L56.7215 86.1167C56.6497 86.076 56.59 86.0178 56.5486 85.9478C56.5071 85.8778 56.4854 85.7985 56.4854 85.7178C56.4854 85.6371 56.5071 85.5578 56.5486 85.4878C56.59 85.4178 56.6497 85.3596 56.7215 85.3189L61.1581 82.8347C61.3132 82.7483 61.4889 82.7028 61.6678 82.7028C61.8467 82.7028 62.0224 82.7483 62.1775 82.8347L66.6138 85.3189C66.6856 85.3596 66.7452 85.4178 66.7867 85.4878C66.8281 85.5578 66.8499 85.6371 66.8499 85.7178C66.8499 85.7985 66.8281 85.8778 66.7867 85.9478C66.7452 86.0178 66.6856 86.076 66.6138 86.1167L62.1772 88.6008C62.0222 88.6874 61.8465 88.733 61.6676 88.7329ZM61.6676 83.0909C61.559 83.0909 61.4523 83.1185 61.3581 83.171L56.9215 85.6551C56.9101 85.6615 56.9006 85.6706 56.894 85.6816C56.8874 85.6927 56.8839 85.7052 56.8839 85.7179C56.8839 85.7307 56.8874 85.7432 56.894 85.7542C56.9006 85.7653 56.9101 85.7744 56.9215 85.7807L61.3578 88.2646C61.452 88.3172 61.5587 88.3449 61.6673 88.3449C61.776 88.3449 61.8827 88.3172 61.9769 88.2646L66.4134 85.7804C66.4249 85.7741 66.4344 85.765 66.441 85.7539C66.4476 85.7429 66.451 85.7304 66.451 85.7176C66.451 85.7049 66.4476 85.6924 66.441 85.6813C66.4344 85.6703 66.4249 85.6612 66.4134 85.6548L61.9772 83.1707C61.883 83.1182 61.7762 83.0907 61.6676 83.0909Z" fill="white"/>
<g opacity="0.794">
<path opacity="0.816" d="M38.3441 67.4626L34.6345 66.5081L33.6504 62.9102L37.36 63.8647L38.3441 67.4626Z" fill="white"/>
<path opacity="0.794" d="M38.3318 67.451L37.3297 63.8574L40.051 61.232L41.0531 64.8256L38.3318 67.451Z" fill="white"/>
<path opacity="0.775" d="M40.0565 61.2411L37.3495 63.8803L33.6442 62.9085L36.3512 60.2692L40.0565 61.2411Z" fill="white"/>
</g>
<path opacity="0.377" d="M35.489 69.2499L39.4065 69.3494L41.0574 71.4223L39.0621 73.2634L35.0538 73.1125L33.3496 70.9508L35.489 69.2499Z" fill="#1361DB"/>
<g opacity="0.794">
<path opacity="0.816" d="M94.304 64.7885L90.5944 63.834L89.6103 60.2362L93.3199 61.1906L94.304 64.7885Z" fill="white"/>
<path opacity="0.794" d="M94.2917 64.7769L93.2897 61.1833L96.0109 58.5579L97.013 62.1515L94.2917 64.7769Z" fill="white"/>
<path opacity="0.775" d="M96.0164 58.5669L93.3094 61.2062L89.6041 60.2343L92.3111 57.5951L96.0164 58.5669Z" fill="white"/>
</g>
<path opacity="0.377" d="M91.449 71.5419L95.3664 71.6414L97.0173 73.7143L95.022 75.5554L91.0137 75.4045L89.3095 73.2429L91.449 71.5419Z" fill="#1361DB"/>
<path d="M14.0794 27.9559L36.4227 15.6177C36.5727 15.5343 36.7429 15.491 36.9158 15.4922C37.0887 15.4934 37.2582 15.5392 37.4069 15.6247C37.5557 15.7102 37.6784 15.8325 37.7625 15.9791C37.8465 16.1256 37.889 16.2912 37.8856 16.4589V36.5814C37.8862 37.065 37.755 37.5403 37.5051 37.9588C37.2553 38.3774 36.8958 38.7245 36.463 38.9648L13.8536 51.4376C13.7053 51.52 13.5373 51.5632 13.3664 51.5629C13.1954 51.5627 13.0276 51.5189 12.8795 51.4361C12.7315 51.3532 12.6084 51.2341 12.5226 51.0907C12.4369 50.9473 12.3914 50.7846 12.3907 50.6189V30.7935C12.3911 30.2184 12.5473 29.6536 12.8437 29.1556C13.14 28.6576 13.5662 28.2438 14.0794 27.9559Z" fill="url(#paint8_linear_97_813)"/>
<g opacity="0.8">
<path opacity="0.8" d="M18.2312 35.6503C18.1931 35.6509 18.1556 35.6419 18.1222 35.6242C18.0888 35.6065 18.0607 35.5807 18.0407 35.5493C18.0261 35.5258 18.0165 35.4997 18.0124 35.4725C18.0083 35.4453 18.0097 35.4176 18.0167 35.391C18.0237 35.3644 18.0361 35.3394 18.0531 35.3175C18.0702 35.2956 18.0915 35.2771 18.1159 35.2632L23.3202 32.2292C23.3692 32.2094 23.424 32.2076 23.4744 32.224C23.5248 32.2404 23.5673 32.2739 23.5941 32.3184C23.621 32.3629 23.6302 32.4154 23.6203 32.466C23.6103 32.5166 23.5817 32.562 23.5399 32.5938L18.3356 35.6223C18.3032 35.6386 18.2676 35.6482 18.2312 35.6503Z" fill="white"/>
</g>
<g opacity="0.8">
<path opacity="0.8" d="M15.3803 31.6808C15.3335 31.6791 15.2885 31.663 15.2519 31.6347C15.2152 31.6064 15.1888 31.5676 15.1766 31.5237C15.1643 31.4799 15.1668 31.4334 15.1837 31.391C15.2006 31.3487 15.231 31.3127 15.2705 31.2883L20.4747 28.2598C20.499 28.2442 20.5263 28.2336 20.555 28.2285C20.5836 28.2235 20.613 28.2241 20.6414 28.2302C20.6698 28.2364 20.6967 28.2481 20.7203 28.2646C20.744 28.281 20.764 28.3019 20.7791 28.3261C20.7943 28.3502 20.8042 28.377 20.8085 28.4049C20.8127 28.4329 20.8111 28.4614 20.8037 28.4887C20.7963 28.516 20.7834 28.5416 20.7656 28.5639C20.7478 28.5863 20.7255 28.6049 20.7001 28.6188L15.4959 31.6473C15.4612 31.6684 15.4213 31.68 15.3803 31.6808Z" fill="white"/>
</g>
<g opacity="0.8">
<path opacity="0.8" d="M18.2309 43.8774C18.1924 43.8769 18.1547 43.8668 18.1213 43.8482C18.088 43.8295 18.0601 43.8029 18.0404 43.7708C18.0124 43.723 18.0046 43.6665 18.0187 43.6131C18.0327 43.5598 18.0674 43.5138 18.1156 43.4848L23.3199 40.4563C23.3442 40.4419 23.3712 40.4323 23.3994 40.4281C23.4276 40.4239 23.4563 40.4251 23.484 40.4318C23.5116 40.4385 23.5377 40.4504 23.5605 40.4669C23.5834 40.4834 23.6027 40.5041 23.6172 40.5279C23.6318 40.5516 23.6413 40.578 23.6453 40.6054C23.6492 40.6327 23.6476 40.6606 23.6403 40.6873C23.6331 40.7141 23.6205 40.7392 23.6032 40.7611C23.5859 40.7831 23.5642 40.8015 23.5395 40.8153L18.3353 43.8438C18.3044 43.8641 18.2682 43.8757 18.2309 43.8774Z" fill="white"/>
</g>
<g opacity="0.8">
<path opacity="0.8" d="M21.1687 36.5866C21.1307 36.5872 21.0931 36.5782 21.0597 36.5605C21.0263 36.5428 20.9982 36.517 20.9782 36.4856C20.9636 36.4621 20.954 36.436 20.9499 36.4088C20.9458 36.3816 20.9473 36.354 20.9543 36.3274C20.9613 36.3008 20.9736 36.2758 20.9907 36.2538C21.0077 36.2319 21.029 36.2135 21.0535 36.1996L28.8597 31.6402C28.884 31.6247 28.9113 31.6141 28.9399 31.609C28.9686 31.6039 28.998 31.6045 29.0264 31.6107C29.0548 31.6169 29.0816 31.6285 29.1053 31.645C29.1289 31.6615 29.1489 31.6824 29.1641 31.7065C29.1792 31.7306 29.1892 31.7574 29.1934 31.7854C29.1976 31.8133 29.196 31.8418 29.1886 31.8691C29.1813 31.8964 29.1683 31.922 29.1505 31.9444C29.1327 31.9667 29.1104 31.9854 29.0851 31.9992L21.2789 36.5586C21.2459 36.5782 21.2077 36.588 21.169 36.5866H21.1687Z" fill="white"/>
</g>
<g opacity="0.8">
<path opacity="0.8" d="M26.3901 39.173C26.3425 39.1729 26.2962 39.1575 26.2584 39.1294C26.2206 39.1013 26.1933 39.0619 26.1809 39.0173C26.1684 38.9727 26.1714 38.9254 26.1893 38.8826C26.2073 38.8398 26.2392 38.8039 26.2802 38.7804L34.0864 34.221C34.1107 34.2069 34.1376 34.1975 34.1656 34.1935C34.1936 34.1896 34.2222 34.191 34.2496 34.1978C34.2771 34.2046 34.3028 34.2166 34.3254 34.2331C34.3481 34.2496 34.3671 34.2703 34.3814 34.294C34.4111 34.3424 34.4199 34.4002 34.4058 34.4549C34.3917 34.5095 34.3559 34.5565 34.3061 34.5856L26.5053 39.1385C26.4707 39.1597 26.4307 39.1713 26.3898 39.1721L26.3901 39.173Z" fill="white"/>
</g>
<g opacity="0.8">
<path opacity="0.8" d="M15.7737 42.5205C15.726 42.5203 15.6798 42.505 15.642 42.4769C15.6042 42.4488 15.5769 42.4094 15.5645 42.3648C15.552 42.3202 15.5549 42.2729 15.5729 42.2301C15.5909 42.1873 15.6228 42.1514 15.6638 42.1279L20.8681 39.0994C20.918 39.0705 20.9776 39.062 21.0339 39.0757C21.0903 39.0894 21.1387 39.1241 21.1687 39.1723C21.1833 39.1959 21.1929 39.222 21.1971 39.2491C21.2012 39.2763 21.1997 39.304 21.1927 39.3306C21.1857 39.3572 21.1733 39.3822 21.1563 39.4041C21.1393 39.4261 21.1179 39.4445 21.0935 39.4584L15.8892 42.4869C15.8555 42.5099 15.8149 42.5217 15.7737 42.5205Z" fill="white"/>
</g>
<g opacity="0.8">
<path opacity="0.8" d="M23.4764 37.9614C23.4291 37.9608 23.3833 37.9455 23.3457 37.9176C23.3082 37.8898 23.2809 37.8509 23.2679 37.8068C23.2549 37.7627 23.2569 37.7158 23.2737 37.6729C23.2904 37.63 23.321 37.5935 23.3608 37.5688L28.5651 34.5403C28.5891 34.5254 28.616 34.5154 28.6442 34.511C28.6724 34.5066 28.7012 34.5078 28.7289 34.5147C28.7565 34.5215 28.7824 34.5338 28.805 34.5508C28.8275 34.5677 28.8463 34.589 28.86 34.6133C28.8748 34.6365 28.8848 34.6623 28.8893 34.6892C28.8939 34.7162 28.8929 34.7437 28.8864 34.7703C28.88 34.7969 28.8682 34.8219 28.8517 34.8441C28.8352 34.8662 28.8144 34.885 28.7905 34.8993L23.5862 37.9278C23.5537 37.9491 23.5156 37.9607 23.4764 37.9614Z" fill="white"/>
</g>
<path d="M120.589 55.8174L101.919 45.508C101.794 45.4383 101.652 45.4021 101.507 45.4031C101.363 45.4041 101.221 45.4423 101.097 45.5138C100.972 45.5852 100.87 45.6874 100.8 45.8099C100.729 45.9324 100.694 46.0708 100.697 46.2109V63.0247C100.696 63.4289 100.806 63.8259 101.015 64.1757C101.223 64.5254 101.524 64.8154 101.885 65.0163L120.777 75.4381C120.901 75.507 121.041 75.5431 121.184 75.5429C121.327 75.5427 121.467 75.5062 121.591 75.4369C121.715 75.3677 121.818 75.2682 121.889 75.1483C121.961 75.0285 121.999 74.8925 122 74.7539V58.1883C121.999 57.7078 121.869 57.2359 121.621 56.8197C121.374 56.4036 121.018 56.058 120.589 55.8174Z" fill="url(#paint9_linear_97_813)"/>
<g opacity="0.8">
<path opacity="0.8" d="M110.056 58.1356C110.087 58.136 110.119 58.1285 110.146 58.1137C110.174 58.0989 110.198 58.0774 110.214 58.0512C110.227 58.0315 110.235 58.0097 110.238 57.987C110.241 57.9643 110.24 57.9411 110.234 57.9189C110.228 57.8967 110.218 57.8758 110.203 57.8575C110.189 57.8392 110.171 57.8238 110.151 57.8123L105.802 55.2771C105.761 55.2605 105.715 55.259 105.673 55.2727C105.631 55.2864 105.595 55.3144 105.573 55.3516C105.55 55.3888 105.543 55.4326 105.551 55.4748C105.559 55.5171 105.583 55.5551 105.618 55.5816L109.967 58.1122C109.995 58.126 110.025 58.134 110.056 58.1356Z" fill="white"/>
</g>
<g opacity="0.8">
<path opacity="0.8" d="M107.846 53.1048C107.885 53.1034 107.922 53.0899 107.953 53.0663C107.984 53.0427 108.006 53.0102 108.016 52.9736C108.026 52.937 108.024 52.8982 108.01 52.8628C107.996 52.8274 107.97 52.7973 107.937 52.7769L103.588 50.2463C103.568 50.2343 103.545 50.2263 103.522 50.2227C103.498 50.2192 103.474 50.2201 103.451 50.2256C103.428 50.231 103.406 50.2408 103.387 50.2544C103.368 50.268 103.352 50.2851 103.339 50.3048C103.327 50.3245 103.319 50.3464 103.315 50.3691C103.311 50.3919 103.312 50.4152 103.318 50.4376C103.324 50.46 103.334 50.4812 103.348 50.4998C103.362 50.5184 103.379 50.5342 103.4 50.5462L107.749 53.0768C107.778 53.0943 107.81 53.1039 107.844 53.1048H107.846Z" fill="white"/>
</g>
<g opacity="0.8">
<path opacity="0.8" d="M117.12 69.1206C117.152 69.1201 117.183 69.1116 117.211 69.0961C117.239 69.0805 117.262 69.0583 117.278 69.0316C117.302 68.9915 117.308 68.9443 117.296 68.8997C117.284 68.8552 117.255 68.8168 117.215 68.7927L112.866 66.2623C112.845 66.2506 112.823 66.243 112.799 66.2397C112.776 66.2364 112.752 66.2377 112.729 66.2433C112.706 66.249 112.685 66.259 112.666 66.2727C112.647 66.2864 112.631 66.3036 112.619 66.3233C112.607 66.343 112.599 66.3648 112.596 66.3874C112.592 66.4101 112.594 66.4332 112.6 66.4554C112.605 66.4776 112.616 66.4984 112.63 66.5168C112.644 66.5351 112.662 66.5505 112.682 66.5622L117.031 69.0929C117.057 69.1099 117.088 69.1195 117.12 69.1206Z" fill="white"/>
</g>
<g opacity="0.8">
<path opacity="0.8" d="M114.666 63.0291C114.697 63.0295 114.729 63.022 114.756 63.0072C114.784 62.9924 114.808 62.9709 114.824 62.9447C114.836 62.925 114.844 62.9032 114.848 62.8805C114.851 62.8578 114.85 62.8346 114.844 62.8124C114.838 62.7902 114.828 62.7693 114.813 62.751C114.799 62.7327 114.781 62.7173 114.761 62.7058L108.239 58.8965C108.219 58.8845 108.197 58.8765 108.173 58.8729C108.15 58.8693 108.126 58.8703 108.102 58.8757C108.079 58.8812 108.058 58.891 108.038 58.9046C108.019 58.9182 108.003 58.9353 107.991 58.955C107.978 58.9747 107.97 58.9965 107.966 59.0193C107.963 59.0421 107.964 59.0654 107.969 59.0878C107.975 59.1102 107.985 59.1313 107.999 59.15C108.013 59.1686 108.031 59.1844 108.051 59.1964L114.574 63.006C114.601 63.0224 114.633 63.0305 114.665 63.0294L114.666 63.0291Z" fill="white"/>
</g>
<g opacity="0.8">
<path opacity="0.8" d="M110.302 65.1893C110.342 65.1893 110.381 65.1765 110.412 65.153C110.444 65.1295 110.467 65.0966 110.477 65.0593C110.488 65.0221 110.485 64.9825 110.47 64.9467C110.455 64.911 110.428 64.881 110.394 64.8614L103.871 61.0524C103.851 61.0406 103.829 61.0328 103.805 61.0295C103.782 61.0262 103.758 61.0275 103.735 61.0332C103.712 61.039 103.69 61.049 103.672 61.0629C103.653 61.0768 103.637 61.0941 103.625 61.114C103.6 61.1544 103.593 61.2028 103.605 61.2485C103.617 61.2941 103.647 61.3333 103.689 61.3575L110.206 65.1625C110.235 65.18 110.268 65.1897 110.302 65.1906L110.302 65.1893Z" fill="white"/>
</g>
<g opacity="0.8">
<path opacity="0.8" d="M119.174 67.9872C119.213 67.9871 119.252 67.9744 119.284 67.9509C119.315 67.9274 119.338 67.8945 119.349 67.8572C119.359 67.8199 119.356 67.7804 119.341 67.7446C119.326 67.7088 119.3 67.6789 119.265 67.6593L114.916 65.1286C114.874 65.1046 114.824 65.0976 114.777 65.1091C114.73 65.1207 114.69 65.1498 114.665 65.1902C114.653 65.2099 114.645 65.2318 114.641 65.2545C114.638 65.2772 114.639 65.3003 114.645 65.3226C114.651 65.3448 114.661 65.3657 114.676 65.384C114.69 65.4023 114.708 65.4176 114.728 65.4292L119.078 67.9595C119.106 67.9785 119.139 67.9882 119.174 67.9872Z" fill="white"/>
</g>
<g opacity="0.8">
<path opacity="0.8" d="M112.738 64.1772C112.777 64.1765 112.815 64.1635 112.846 64.1401C112.877 64.1168 112.9 64.0843 112.911 64.0476C112.921 64.0108 112.92 63.9717 112.906 63.936C112.892 63.9003 112.866 63.8699 112.833 63.8493L108.484 61.3187C108.463 61.3062 108.441 61.2979 108.417 61.2943C108.394 61.2907 108.37 61.2918 108.347 61.2975C108.323 61.3033 108.302 61.3136 108.283 61.3279C108.264 61.3421 108.249 61.3599 108.237 61.3803C108.225 61.3996 108.216 61.4212 108.213 61.4437C108.209 61.4662 108.21 61.4892 108.215 61.5114C108.221 61.5336 108.23 61.5546 108.244 61.5731C108.258 61.5915 108.275 61.6072 108.295 61.6192L112.645 64.1498C112.672 64.1676 112.704 64.1773 112.736 64.1779L112.738 64.1772Z" fill="white"/>
</g>
<path d="M86.9449 97.7826C86.9998 97.8723 87.0293 97.9742 87.0305 98.0781C87.0201 98.2168 86.9711 98.3498 86.8886 98.4626C86.8062 98.5754 86.6935 98.6638 86.5626 98.7183C86.241 98.8791 85.8821 98.9585 85.5187 98.9491C84.6681 98.9436 83.9993 98.5528 83.9956 98.0592C83.9918 97.5656 84.6561 97.1826 85.5069 97.188C85.8702 97.1831 86.2301 97.2669 86.5538 97.4318C86.7137 97.5128 86.8488 97.634 86.9449 97.7826ZM84.3018 98.2343C84.4589 98.4974 84.9528 98.6978 85.5178 98.7009C85.8375 98.7101 86.1535 98.6417 86.4374 98.5018C86.5279 98.467 86.6071 98.4092 86.6668 98.3345C86.7265 98.2598 86.7645 98.1707 86.7771 98.0763C86.7631 97.9818 86.7237 97.8922 86.6629 97.8167C86.6021 97.7412 86.5221 97.6824 86.431 97.6464C86.1453 97.5025 85.8283 97.4297 85.5085 97.4344C84.8236 97.4302 84.2464 97.717 84.2488 98.0606C84.2505 98.1219 84.2688 98.1818 84.3018 98.2343Z" fill="white"/>
<path d="M86.9449 99.7565C86.9998 99.8462 87.0293 99.9481 87.0305 100.052C87.0201 100.191 86.9711 100.324 86.8886 100.436C86.8062 100.549 86.6935 100.638 86.5626 100.692C86.241 100.853 85.8821 100.932 85.5187 100.923C84.6681 100.918 83.9993 100.527 83.9956 100.033C83.9919 99.5395 84.6561 99.1565 85.5069 99.1619C85.8702 99.157 86.2301 99.2408 86.5538 99.4057C86.7137 99.4867 86.8488 99.6079 86.9449 99.7565ZM84.3018 100.208C84.4589 100.471 84.9528 100.672 85.5178 100.675C85.8375 100.684 86.1536 100.616 86.4374 100.476C86.5279 100.441 86.6071 100.383 86.6668 100.308C86.7265 100.234 86.7645 100.145 86.7771 100.05C86.7631 99.9557 86.7237 99.8661 86.6629 99.7906C86.6021 99.7151 86.5221 99.6563 86.431 99.6203C86.1453 99.4764 85.8283 99.4036 85.5085 99.4083C84.8236 99.4041 84.2464 99.6909 84.2488 100.035C84.2505 100.096 84.2688 100.156 84.3018 100.208Z" fill="#6197E2"/>
<path d="M92.9498 93.9329C93.0047 94.0225 93.0342 94.1245 93.0354 94.2283C93.025 94.3671 92.976 94.5 92.8935 94.6128C92.8111 94.7256 92.6984 94.814 92.5675 94.8685C92.2459 95.0294 91.887 95.1087 91.5236 95.0994C90.6731 95.0939 90.0042 94.7031 90.0005 94.2095C89.9968 93.7158 90.661 93.3329 91.5118 93.3383C91.8751 93.3334 92.235 93.4172 92.5587 93.5821C92.7186 93.6631 92.8537 93.7843 92.9498 93.9329ZM90.3068 94.3846C90.4639 94.6477 90.9577 94.848 91.5227 94.8512C91.8424 94.8604 92.1585 94.792 92.4423 94.6521C92.5329 94.6172 92.612 94.5595 92.6717 94.4848C92.7314 94.41 92.7694 94.3209 92.782 94.2266C92.768 94.1321 92.7286 94.0425 92.6678 93.967C92.607 93.8915 92.527 93.8327 92.4359 93.7967C92.1502 93.6528 91.8332 93.5799 91.5134 93.5847C90.8285 93.5805 90.2513 93.8672 90.2538 94.2109C90.2555 94.2721 90.2737 94.3321 90.3068 94.3846Z" fill="#6197E2"/>
<path d="M92.9498 93.6718C93.0047 93.7614 93.0342 93.8634 93.0354 93.9672C93.025 94.106 92.976 94.2389 92.8935 94.3517C92.8111 94.4645 92.6984 94.5529 92.5675 94.6074C92.2459 94.7683 91.887 94.8476 91.5236 94.8383C90.6731 94.8328 90.0042 94.442 90.0005 93.9484C89.9968 93.4547 90.661 93.0718 91.5118 93.0771C91.8751 93.0722 92.235 93.1561 92.5587 93.321C92.7186 93.402 92.8537 93.5232 92.9498 93.6718ZM90.3068 94.1235C90.4639 94.3866 90.9577 94.5869 91.5227 94.5901C91.8424 94.5993 92.1585 94.5309 92.4423 94.391C92.5329 94.3561 92.612 94.2984 92.6717 94.2237C92.7314 94.1489 92.7694 94.0598 92.782 93.9655C92.768 93.871 92.7286 93.7814 92.6678 93.7059C92.607 93.6304 92.527 93.5716 92.4359 93.5356C92.1502 93.3917 91.8332 93.3188 91.5134 93.3236C90.8285 93.3194 90.2513 93.6061 90.2537 93.9498C90.2555 94.011 90.2737 94.071 90.3068 94.1235Z" fill="white"/>
<path d="M29.3694 77.5704C29.4243 77.6601 29.4539 77.7621 29.455 77.8659C29.4446 78.0047 29.3956 78.1376 29.3132 78.2504C29.2307 78.3632 29.118 78.4516 28.9871 78.5061C28.6655 78.6669 28.3067 78.7463 27.9433 78.737C27.0927 78.7315 26.4238 78.3407 26.4201 77.847C26.4164 77.3534 27.0806 76.9705 27.9314 76.9758C28.2947 76.9709 28.6546 77.0548 28.9783 77.2197C29.1382 77.3007 29.2733 77.4218 29.3694 77.5704ZM26.7264 78.0222C26.8835 78.2852 27.3773 78.4856 27.9424 78.4887C28.2621 78.498 28.5781 78.4296 28.8619 78.2897C28.9525 78.2548 29.0316 78.1971 29.0913 78.1223C29.151 78.0476 29.189 77.9585 29.2016 77.8642C29.1876 77.7696 29.1482 77.6801 29.0874 77.6046C29.0266 77.529 28.9466 77.4703 28.8555 77.4343C28.5699 77.2904 28.2529 77.2175 27.9331 77.2223C27.2481 77.218 26.6709 77.5048 26.6734 77.8485C26.6751 77.9097 26.6934 77.9696 26.7264 78.0222Z" fill="white"/>
<path d="M29.3694 79.5444C29.4243 79.6341 29.4539 79.7361 29.455 79.8399C29.4446 79.9787 29.3956 80.1116 29.3132 80.2244C29.2307 80.3372 29.118 80.4256 28.9871 80.4801C28.6655 80.6409 28.3067 80.7203 27.9433 80.711C27.0927 80.7054 26.4238 80.3147 26.4201 79.821C26.4164 79.3274 27.0806 78.9444 27.9315 78.9498C28.2947 78.9449 28.6546 79.0287 28.9783 79.1936C29.1382 79.2747 29.2733 79.3958 29.3694 79.5444ZM26.7264 79.9962C26.8835 80.2592 27.3773 80.4596 27.9424 80.4627C28.2621 80.472 28.5781 80.4035 28.8619 80.2637C28.9525 80.2288 29.0316 80.1711 29.0913 80.0963C29.151 80.0216 29.189 79.9325 29.2016 79.8382C29.1876 79.7436 29.1482 79.654 29.0874 79.5785C29.0266 79.503 28.9466 79.4443 28.8555 79.4082C28.5699 79.2643 28.2529 79.1915 27.9331 79.1962C27.2481 79.192 26.6709 79.4788 26.6734 79.8225C26.6751 79.8837 26.6934 79.9436 26.7264 79.9962Z" fill="#6197E2"/>
<path opacity="0.52" d="M105.183 83.7784L105.913 84.1787C105.987 84.2201 106.071 84.2419 106.157 84.2419C106.242 84.2419 106.326 84.2201 106.4 84.1787L109.96 82.1826C109.987 82.1667 110.01 82.1442 110.026 82.1172C110.042 82.0902 110.05 82.0597 110.05 82.0287C110.05 81.9976 110.042 81.9671 110.026 81.9401C110.01 81.9131 109.987 81.8906 109.96 81.8747L109.23 81.4689C109.156 81.4275 109.072 81.4057 108.986 81.4057C108.901 81.4057 108.817 81.4275 108.743 81.4689L105.183 83.4598C105.153 83.4751 105.129 83.4979 105.112 83.5257C105.094 83.5535 105.085 83.5853 105.085 83.6177C105.085 83.6501 105.094 83.682 105.112 83.7098C105.129 83.7376 105.153 83.7604 105.183 83.7757L105.183 83.7784Z" fill="url(#paint10_linear_97_813)"/>
<path opacity="0.52" d="M103.384 82.7692L104.109 83.175C104.182 83.2164 104.266 83.2382 104.352 83.2382C104.437 83.2382 104.521 83.2164 104.595 83.175L108.151 81.1841C108.179 81.1684 108.202 81.1458 108.219 81.1184C108.235 81.0911 108.244 81.0601 108.244 81.0284C108.244 80.9968 108.235 80.9658 108.219 80.9385C108.202 80.9111 108.179 80.8885 108.151 80.8728L107.426 80.4725C107.352 80.4311 107.268 80.4093 107.183 80.4093C107.097 80.4093 107.013 80.4311 106.939 80.4725L103.384 82.468C103.356 82.4834 103.334 82.5054 103.318 82.5319C103.302 82.5584 103.294 82.5885 103.294 82.619C103.294 82.6496 103.302 82.6797 103.318 82.7062C103.334 82.7327 103.356 82.7547 103.384 82.7701V82.7692Z" fill="url(#paint11_linear_97_813)"/>
<path opacity="0.52" d="M101.633 81.8017L102.357 82.202C102.431 82.2434 102.515 82.2652 102.601 82.2652C102.686 82.2652 102.77 82.2434 102.844 82.202L106.394 80.2111C106.423 80.1955 106.446 80.1728 106.462 80.1455C106.479 80.1181 106.487 80.0871 106.487 80.0555C106.487 80.0239 106.479 79.9928 106.462 79.9655C106.446 79.9382 106.423 79.9155 106.394 79.8998L105.669 79.4996C105.596 79.4582 105.512 79.4364 105.426 79.4364C105.341 79.4364 105.257 79.4582 105.183 79.4996L101.627 81.4951C101.599 81.5104 101.575 81.5329 101.559 81.5603C101.543 81.5876 101.534 81.6188 101.535 81.6504C101.535 81.682 101.545 81.7129 101.562 81.7398C101.579 81.7666 101.603 81.7885 101.632 81.803L101.633 81.8017Z" fill="url(#paint12_linear_97_813)"/>
<path opacity="0.5" d="M105.183 81.6037L105.914 82.0096C105.988 82.051 106.071 82.0728 106.157 82.0728C106.242 82.0728 106.326 82.051 106.4 82.0096L109.96 80.0187C109.989 80.003 110.012 79.9804 110.029 79.953C110.045 79.9257 110.054 79.8946 110.054 79.863C110.054 79.8314 110.045 79.8004 110.029 79.773C110.012 79.7457 109.989 79.7231 109.96 79.7074L109.23 79.3071C109.156 79.2657 109.072 79.2439 108.987 79.2439C108.902 79.2439 108.818 79.2657 108.744 79.3071L105.183 81.3026C105.157 81.3188 105.136 81.3411 105.121 81.3675C105.106 81.3939 105.098 81.4236 105.098 81.4536C105.098 81.4837 105.106 81.5134 105.121 81.5398C105.136 81.5661 105.157 81.5885 105.183 81.6047V81.6037Z" fill="white"/>
<path opacity="0.7" d="M103.383 80.5941L104.108 80.9944C104.182 81.0358 104.266 81.0576 104.351 81.0576C104.437 81.0576 104.521 81.0358 104.595 80.9944L108.15 78.9989C108.179 78.984 108.203 78.9618 108.22 78.9347C108.237 78.9076 108.245 78.8766 108.245 78.845C108.245 78.8133 108.237 78.7823 108.22 78.7552C108.203 78.7281 108.179 78.7059 108.15 78.691L107.425 78.2907C107.352 78.2493 107.268 78.2275 107.182 78.2275C107.097 78.2275 107.013 78.2493 106.939 78.2907L103.383 80.2816C103.355 80.2973 103.332 80.3199 103.315 80.3473C103.299 80.3746 103.29 80.4057 103.29 80.4373C103.29 80.4689 103.299 80.4999 103.315 80.5273C103.332 80.5546 103.355 80.5772 103.383 80.5929V80.5941Z" fill="white"/>
<path d="M101.633 79.627L102.357 80.0273C102.431 80.0687 102.515 80.0905 102.601 80.0905C102.686 80.0905 102.77 80.0687 102.844 80.0273L106.394 78.0318C106.423 78.0169 106.447 77.9947 106.464 77.9676C106.481 77.9405 106.489 77.9095 106.489 77.8779C106.489 77.8463 106.481 77.8152 106.464 77.7881C106.447 77.761 106.423 77.7388 106.394 77.7239L105.67 77.3181C105.596 77.2767 105.512 77.2549 105.426 77.2549C105.341 77.2549 105.257 77.2767 105.183 77.3181L101.628 79.309C101.598 79.3247 101.574 79.3478 101.557 79.3759C101.54 79.4039 101.532 79.4359 101.532 79.4683C101.533 79.5007 101.542 79.5324 101.56 79.56C101.578 79.5876 101.603 79.61 101.632 79.6249L101.633 79.627Z" fill="white"/>
</g>
<defs>
<linearGradient id="paint0_linear_97_813" x1="8.01798" y1="64.5585" x2="99.9705" y2="104.413" gradientUnits="userSpaceOnUse">
<stop stop-color="white" stop-opacity="0.306"/>
<stop offset="1" stop-color="white" stop-opacity="0.18"/>
</linearGradient>
<linearGradient id="paint1_linear_97_813" x1="3.74964" y1="62.5422" x2="91.7343" y2="89.0485" gradientUnits="userSpaceOnUse">
<stop stop-color="white" stop-opacity="0.565"/>
<stop offset="1" stop-color="white" stop-opacity="0.302"/>
</linearGradient>
<linearGradient id="paint2_linear_97_813" x1="75.4349" y1="87.4498" x2="83.5271" y2="87.4498" gradientUnits="userSpaceOnUse">
<stop stop-color="white" stop-opacity="0.6"/>
<stop offset="0.15" stop-color="white" stop-opacity="0.502"/>
<stop offset="0.39" stop-color="white" stop-opacity="0.369"/>
<stop offset="0.61" stop-color="white" stop-opacity="0.278"/>
<stop offset="0.83" stop-color="white" stop-opacity="0.22"/>
<stop offset="1" stop-color="white" stop-opacity="0.2"/>
</linearGradient>
<linearGradient id="paint3_linear_97_813" x1="79.4807" y1="83.0478" x2="79.4807" y2="86.8745" gradientUnits="userSpaceOnUse">
<stop stop-color="white" stop-opacity="0.6"/>
<stop offset="0.13" stop-color="white" stop-opacity="0.471"/>
<stop offset="0.32" stop-color="white" stop-opacity="0.31"/>
<stop offset="0.51" stop-color="white" stop-opacity="0.169"/>
<stop offset="0.7" stop-color="white" stop-opacity="0.078"/>
<stop offset="0.86" stop-color="white" stop-opacity="0"/>
<stop offset="1" stop-color="white" stop-opacity="0"/>
</linearGradient>
<linearGradient id="paint4_linear_97_813" x1="79.5293" y1="83.5219" x2="79.5174" y2="87.37" gradientUnits="userSpaceOnUse">
<stop stop-color="white" stop-opacity="0.6"/>
<stop offset="0.13" stop-color="white" stop-opacity="0.471"/>
<stop offset="0.32" stop-color="white" stop-opacity="0.31"/>
<stop offset="0.51" stop-color="white" stop-opacity="0.169"/>
<stop offset="0.7" stop-color="white" stop-opacity="0.078"/>
<stop offset="0.86" stop-color="white" stop-opacity="0.02"/>
<stop offset="1" stop-color="white" stop-opacity="0"/>
</linearGradient>
<linearGradient id="paint5_linear_97_813" x1="49.1661" y1="119.3" x2="40.6761" y2="113.165" gradientUnits="userSpaceOnUse">
<stop stop-color="#0059E1"/>
<stop offset="1" stop-color="#015AE2"/>
</linearGradient>
<linearGradient id="paint6_linear_97_813" x1="90.9139" y1="14.1664" x2="63.6176" y2="16.0322" gradientUnits="userSpaceOnUse">
<stop stop-color="white" stop-opacity="0.8"/>
<stop offset="1" stop-color="white" stop-opacity="0.102"/>
</linearGradient>
<linearGradient id="paint7_linear_97_813" x1="69.4186" y1="20.3042" x2="90.7401" y2="13.368" gradientUnits="userSpaceOnUse">
<stop stop-color="white" stop-opacity="0.8"/>
<stop offset="0.04" stop-color="white" stop-opacity="0.761"/>
<stop offset="0.21" stop-color="white" stop-opacity="0.561"/>
<stop offset="0.39" stop-color="white" stop-opacity="0.388"/>
<stop offset="0.56" stop-color="white" stop-opacity="0.271"/>
<stop offset="0.72" stop-color="white" stop-opacity="0.169"/>
<stop offset="0.87" stop-color="white" stop-opacity="0.122"/>
<stop offset="1" stop-color="white" stop-opacity="0.102"/>
</linearGradient>
<linearGradient id="paint8_linear_97_813" x1="13.6145" y1="33.2751" x2="37.1746" y2="33.5274" gradientUnits="userSpaceOnUse">
<stop stop-color="white" stop-opacity="0.4"/>
<stop offset="1" stop-color="white" stop-opacity="0"/>
</linearGradient>
<linearGradient id="paint9_linear_97_813" x1="99.4184" y1="59.6592" x2="122.006" y2="59.2676" gradientUnits="userSpaceOnUse">
<stop stop-color="white" stop-opacity="0.4"/>
<stop offset="1" stop-color="white" stop-opacity="0"/>
</linearGradient>
<linearGradient id="paint10_linear_97_813" x1="110.065" y1="82.8238" x2="105.09" y2="82.8238" gradientUnits="userSpaceOnUse">
<stop stop-color="#0059E1"/>
<stop offset="1" stop-color="#226FFF" stop-opacity="0.541"/>
</linearGradient>
<linearGradient id="paint11_linear_97_813" x1="108.259" y1="81.8209" x2="103.289" y2="81.8209" gradientUnits="userSpaceOnUse">
<stop stop-color="#0059E1"/>
<stop offset="1" stop-color="#226FFF" stop-opacity="0.541"/>
</linearGradient>
<linearGradient id="paint12_linear_97_813" x1="106.507" y1="80.8536" x2="101.54" y2="80.8536" gradientUnits="userSpaceOnUse">
<stop stop-color="#0059E1"/>
<stop offset="1" stop-color="#226FFF" stop-opacity="0.541"/>
</linearGradient>
<clipPath id="clip0_97_813">
<rect width="122" height="123" fill="white"/>
</clipPath>
</defs>
</svg>
