<svg width="106" height="142" viewBox="0 0 106 142" fill="none" xmlns="http://www.w3.org/2000/svg">
<g clip-path="url(#clip0_97_1164)">
<path opacity="0.425" d="M64.3076 54.196C61.1432 56.1576 5.94723 88.0699 5.94723 88.0699C5.67671 88.1135 5.39917 88.0692 5.15635 87.9437L1.56478 85.9405V85.9379C1.08491 85.6245 0.583644 84.8931 0.5221 83.1986C0.426364 80.6134 0.457882 91.2521 0.450746 60.1767L0.304737 37.2592C0.304737 37.2592 -0.392459 35.8505 2.76951 33.8887C5.93147 31.9268 61.1292 0.0161584 61.1292 0.0161584C61.305 -0.0113266 61.4847 -0.00286665 61.657 0.0410024C61.8294 0.0848715 61.9908 0.16322 62.1312 0.271191L63.0041 0.757181L63.0128 0.751306V0.761874L65.2804 2.02674C65.3845 2.0694 65.4831 2.12438 65.5738 2.19049L65.6568 2.23686L65.6523 2.25212C66.0466 2.58022 66.4239 3.22938 66.5303 4.49601L66.5416 4.48868V4.6398C66.5475 4.71816 66.552 4.80033 66.5544 4.88427C66.6787 8.24276 66.6837 12.3599 66.6837 12.3599L66.7702 50.8249C66.7702 50.8249 66.8767 51.3678 66.4075 52.1875C66.0915 52.7451 65.586 53.4048 64.3076 54.196Z" fill="url(#paint0_linear_97_1164)"/>
<path opacity="0.57" d="M64.3078 54.3832C61.1441 56.3448 5.94692 88.2578 5.94692 88.2578C5.94692 88.2578 4.10206 88.6762 3.97897 85.3157C3.88294 82.7305 3.98611 93.3416 3.97897 62.2665L3.83329 39.344C3.83329 39.344 3.13373 37.9353 6.29748 35.9752C9.46123 34.0152 64.6578 2.10041 64.6578 2.10041C64.6578 2.10041 66.5029 1.68251 66.6257 5.04276C66.7485 8.40301 66.6831 12.5498 66.6831 12.5498L66.7723 51.0148C66.7723 51.0148 66.8615 51.4905 66.3908 52.3105C65.8995 53.1748 65.1795 53.8912 64.3078 54.3832Z" fill="url(#paint1_linear_97_1164)"/>
<path opacity="0.425" d="M63.7855 76.0112C60.6211 77.9728 5.42545 109.885 5.42545 109.885C5.15494 109.929 4.87741 109.884 4.63458 109.759L1.04297 107.756V107.753C0.563099 107.44 0.0618419 106.708 0 105.014C2.90568 103.165 49.8615 76.786 61.5149 69.8421C62.6824 70.1561 65.509 71.5149 66.2466 72.6395C66.2466 72.6395 66.4946 73.141 66.0251 73.9601C65.71 74.5189 65.0624 75.2203 63.7855 76.0112Z" fill="#1772EC"/>
<path opacity="0.36" d="M7.34577 41.8012C7.8194 42.0515 8.51573 41.6815 8.89986 40.9736C9.08894 40.6432 9.17071 40.2635 9.13414 39.8857L11.3046 38.6062C11.3295 38.7049 11.3744 38.7977 11.4366 38.8789C11.4988 38.9601 11.5769 39.028 11.6664 39.0787C12.14 39.3287 12.8363 38.9589 13.2205 38.2511C13.378 37.9697 13.4625 37.6542 13.4664 37.3328L15.607 36.0709C15.6673 36.2328 15.7843 36.3681 15.9367 36.4524C16.4125 36.7033 17.1073 36.3329 17.4911 35.6254C17.875 34.9178 17.8012 34.141 17.3255 33.891C16.8498 33.6409 16.155 34.0101 15.7711 34.718C15.5716 35.0638 15.4921 35.4645 15.5449 35.859L13.4425 37.0977C13.4268 36.9786 13.3839 36.8646 13.3169 36.7643C13.2499 36.664 13.1607 36.58 13.0561 36.5187C12.5821 36.2684 11.8855 36.6384 11.5014 37.346C11.3223 37.6619 11.2391 38.0221 11.2617 38.3834L9.08271 39.6677C9.02676 39.4866 8.90257 39.3337 8.73574 39.2404C8.26182 38.99 7.56491 39.3601 7.18107 40.0677C6.79724 40.7752 6.87096 41.5503 7.34577 41.8012Z" fill="#226FFF"/>
<path opacity="0.646" d="M10.5788 43.6322C11.0527 43.8825 11.749 43.5127 12.1329 42.8046C12.3216 42.4741 12.4032 42.0944 12.3666 41.7167L14.537 40.4372C14.562 40.5359 14.6069 40.6286 14.6691 40.7097C14.7313 40.7909 14.8094 40.8588 14.8988 40.9094C15.3725 41.1597 16.069 40.7896 16.4529 40.0821C16.6104 39.8007 16.6949 39.4852 16.6988 39.1638L18.8394 37.9019C18.8996 38.0637 19.0163 38.199 19.1686 38.2834C19.6443 38.5343 20.3394 38.1639 20.723 37.4564C21.1065 36.7488 21.0331 35.972 20.5577 35.722C20.0822 35.4719 19.3871 35.8411 19.0033 36.549C18.8037 36.8947 18.7243 37.2955 18.7773 37.69L16.675 38.9287C16.6593 38.8096 16.6163 38.6956 16.5493 38.5953C16.4824 38.495 16.3932 38.411 16.2885 38.3497C15.8146 38.0994 15.1179 38.4691 14.7338 39.177C14.5545 39.4929 14.4713 39.8531 14.4942 40.2144L12.3151 41.4986C12.2591 41.3177 12.1348 41.1648 11.9679 41.0716C11.4939 40.8213 10.797 41.1914 10.4135 41.8989C10.03 42.6065 10.104 43.3816 10.5788 43.6322Z" fill="white"/>
<g opacity="0.242">
<g opacity="0.242">
<path opacity="0.242" d="M49.0641 54.6802C51.8232 54.6802 55.1109 52.5279 57.4231 48.9328C58.7769 46.9175 59.5667 44.5845 59.7125 42.1707C59.7788 39.8701 58.9962 38.0899 57.5094 37.1576C54.5151 35.2835 49.7898 37.515 46.7485 42.242C45.3947 44.2574 44.6049 46.5903 44.4592 49.0041C44.3923 51.3047 45.1752 53.0849 46.6626 54.0172C47.3821 54.4614 48.2159 54.6915 49.0644 54.6802H49.0641ZM55.1275 37.9523C55.6893 37.9411 56.2424 38.0897 56.7208 38.3805C57.754 39.0279 58.2949 40.3594 58.2437 42.1293C58.1061 44.2822 57.3953 46.3611 56.183 48.156C53.6701 52.0618 49.6718 54.188 47.4484 52.7929C46.4156 52.1455 45.875 50.814 45.9262 49.0441C46.0636 46.8912 46.7743 44.8123 47.9863 43.0173C49.9745 39.9277 52.8941 37.9529 55.1272 37.9529L55.1275 37.9523Z" fill="#226FFF"/>
</g>
</g>
<g opacity="0.891">
<g opacity="0.891">
<path opacity="0.891" d="M59.7797 60.9875C62.5391 60.9875 65.8268 58.8358 68.1387 55.2402C71.1791 50.5132 71.2168 45.3402 68.2231 43.4643C65.2295 41.5885 60.5042 43.8212 57.4623 48.5493C56.1083 50.5644 55.3184 52.8973 55.173 55.3112C55.1067 57.6117 55.8893 59.3919 57.3764 60.3248C58.0965 60.7689 58.9309 60.9989 59.7799 60.9872L59.7797 60.9875ZM66.8992 54.4642C64.3854 58.3712 60.3826 60.4951 58.164 59.1011C57.1308 58.4537 56.59 57.1222 56.6412 55.3523C56.7789 53.1994 57.4898 51.1205 58.7019 49.3255C61.2154 45.4197 65.2131 43.2941 67.4371 44.6887C69.661 46.0833 69.4127 50.5581 66.8992 54.4651V54.4642Z" fill="white"/>
</g>
</g>
<path opacity="0.16" d="M62.8635 12.2809L62.86 13.4176C62.8596 13.5359 62.8279 13.6522 62.7679 13.7547C62.7079 13.8572 62.6218 13.9424 62.5181 14.0018L57.6302 16.8033C57.5917 16.8254 57.5479 16.837 57.5034 16.837C57.4589 16.8371 57.4151 16.8255 57.3766 16.8035C57.338 16.7815 57.306 16.7498 57.2838 16.7117C57.2616 16.6736 57.25 16.6304 57.2502 16.5865L57.2538 15.4498C57.2542 15.3314 57.286 15.2152 57.346 15.1127C57.406 15.0102 57.4922 14.925 57.596 14.8655L62.4839 12.0641C62.5224 12.042 62.5662 12.0304 62.6107 12.0303C62.6552 12.0303 62.6989 12.0419 62.7375 12.0639C62.776 12.0859 62.808 12.1175 62.8302 12.1556C62.8524 12.1938 62.864 12.237 62.8639 12.2809H62.8635Z" fill="#226FFF"/>
<path opacity="0.29" d="M62.8593 9.45746L62.8558 10.5941C62.8554 10.7124 62.8237 10.8287 62.7637 10.9312C62.7037 11.0337 62.6176 11.1189 62.5138 11.1784L57.626 13.9798C57.5875 14.0019 57.5438 14.0135 57.4993 14.0136C57.4548 14.0136 57.411 14.0021 57.3725 13.9801C57.334 13.9581 57.3019 13.9265 57.2797 13.8884C57.2575 13.8504 57.2459 13.8072 57.246 13.7633L57.2496 12.6267C57.2499 12.5083 57.2816 12.392 57.3416 12.2895C57.4016 12.187 57.4878 12.1018 57.5915 12.0423L62.4797 9.24086C62.5182 9.21882 62.5619 9.2072 62.6064 9.20715C62.6509 9.20711 62.6946 9.21866 62.7331 9.24063C62.7717 9.2626 62.8037 9.2942 62.8259 9.33227C62.8481 9.37034 62.8598 9.41353 62.8597 9.45746H62.8593Z" fill="#226FFF"/>
<path opacity="0.36" d="M62.8674 6.72111L62.8639 7.85772C62.8635 7.9761 62.8318 8.09233 62.7718 8.19484C62.7118 8.29736 62.6257 8.38258 62.5219 8.44203L51.1106 15.0064C51.0721 15.0285 51.0284 15.0401 50.9838 15.0401C50.9393 15.0402 50.8955 15.0286 50.857 15.0066C50.8184 14.9846 50.7864 14.9529 50.7643 14.9148C50.7421 14.8767 50.7305 14.8335 50.7307 14.7895L50.7342 13.6529C50.7346 13.5346 50.7664 13.4184 50.8264 13.316C50.8863 13.2135 50.9725 13.1283 51.0761 13.0689L62.4875 6.50454C62.526 6.48248 62.5697 6.47086 62.6142 6.47083C62.6588 6.4708 62.7025 6.48235 62.7411 6.50436C62.7796 6.52636 62.8116 6.55801 62.8338 6.59612C62.856 6.63423 62.8676 6.67746 62.8674 6.72142V6.72111Z" fill="#226FFF"/>
<path opacity="0.5" d="M65.2025 13.9197L65.1989 15.0563C65.1986 15.1747 65.1669 15.2909 65.1069 15.3934C65.0469 15.496 64.9607 15.5812 64.857 15.6406L59.9688 18.4421C59.9303 18.4641 59.8866 18.4758 59.8421 18.4758C59.7975 18.4758 59.7538 18.4643 59.7152 18.4423C59.6767 18.4203 59.6447 18.3886 59.6225 18.3505C59.6003 18.3124 59.5887 18.2692 59.5889 18.2252L59.5924 17.0886C59.5928 16.9702 59.6246 16.854 59.6847 16.7514C59.7447 16.6489 59.8309 16.5637 59.9346 16.5043L64.8225 13.7028C64.861 13.6808 64.9047 13.6691 64.9492 13.6691C64.9938 13.6691 65.0375 13.6806 65.076 13.7026C65.1146 13.7245 65.1465 13.7562 65.1687 13.7942C65.191 13.8323 65.2026 13.8755 65.2025 13.9194V13.9197Z" fill="white"/>
<path opacity="0.7" d="M65.1987 11.0962L65.1951 12.2328C65.1947 12.3512 65.163 12.4674 65.103 12.5699C65.043 12.6724 64.9569 12.7577 64.8532 12.8171L59.965 15.6186C59.9265 15.6407 59.8828 15.6524 59.8382 15.6525C59.7937 15.6526 59.7499 15.6411 59.7114 15.6191C59.6728 15.5971 59.6408 15.5654 59.6186 15.5273C59.5964 15.4892 59.5848 15.446 59.585 15.402L59.5886 14.2654C59.589 14.147 59.6208 14.0308 59.6809 13.9284C59.7409 13.8259 59.8271 13.7408 59.9308 13.6814L64.8187 10.8802C64.8572 10.8581 64.9008 10.8465 64.9453 10.8465C64.9898 10.8464 65.0335 10.8579 65.0721 10.8799C65.1106 10.9018 65.1426 10.9334 65.1648 10.9714C65.187 11.0094 65.1987 11.0526 65.1987 11.0965V11.0962Z" fill="white"/>
<path d="M65.2067 8.36161L65.2031 9.49822C65.2027 9.61656 65.1709 9.73273 65.1109 9.83519C65.051 9.93764 64.9649 10.0228 64.8612 10.0822L53.9378 16.2469C53.8993 16.2689 53.8556 16.2806 53.8111 16.2806C53.7666 16.2807 53.7228 16.2691 53.6843 16.2471C53.6457 16.2252 53.6138 16.1936 53.5916 16.1555C53.5693 16.1174 53.5577 16.0742 53.5578 16.0303L53.5614 14.8937C53.5618 14.7753 53.5936 14.6591 53.6535 14.5566C53.7135 14.4541 53.7996 14.3689 53.9033 14.3094L64.8267 8.14473C64.8652 8.12268 64.909 8.11105 64.9535 8.11102C64.998 8.11099 65.0418 8.12257 65.0803 8.14457C65.1189 8.16658 65.1509 8.19823 65.173 8.23634C65.1952 8.27445 65.2068 8.31766 65.2067 8.36161Z" fill="white"/>
<path d="M46.7145 29.6254L46.702 33.4473C46.7008 33.8452 46.594 34.236 46.3923 34.5806C46.1906 34.9252 45.901 35.2117 45.5523 35.4115L8.82111 56.1408C8.69162 56.2152 8.54455 56.2545 8.39473 56.2548C8.24491 56.255 8.09767 56.2162 7.96792 56.1422C7.83818 56.0683 7.73051 55.9618 7.65583 55.8336C7.58116 55.7054 7.54213 55.56 7.54267 55.4121L7.55515 51.5902C7.55652 51.1922 7.66334 50.8015 7.86503 50.4569C8.06672 50.1123 8.35625 49.8257 8.70486 49.6257L45.4375 28.8961C45.567 28.8218 45.7142 28.7826 45.864 28.7824C46.0138 28.7822 46.1611 28.8211 46.2908 28.8951C46.4205 28.9691 46.5282 29.0756 46.6028 29.2038C46.6775 29.3321 46.7165 29.4775 46.7159 29.6254H46.7145Z" fill="white"/>
<path opacity="0.592" d="M27.1287 49.3402L27.1201 52.0422C27.1193 52.3236 27.0438 52.5998 26.9012 52.8435C26.7586 53.0871 26.5538 53.2897 26.3073 53.4309L8.44654 63.7813C8.355 63.8338 8.25104 63.8615 8.14519 63.8617C8.03934 63.8618 7.93533 63.8343 7.84366 63.7821C7.752 63.7298 7.6759 63.6546 7.62311 63.5641C7.57031 63.4735 7.54268 63.3708 7.54297 63.2663L7.55161 60.5643C7.55269 60.2829 7.62827 60.0067 7.77086 59.7631C7.91344 59.5194 8.11808 59.3168 8.36448 59.1753L26.2252 48.8249C26.3168 48.7724 26.4207 48.7447 26.5267 48.7446C26.6326 48.7445 26.7366 48.772 26.8283 48.8243C26.92 48.8766 26.9961 48.9519 27.0488 49.0425C27.1016 49.1332 27.1291 49.236 27.1287 49.3405V49.3402Z" fill="white"/>
<path opacity="0.199" d="M27.1287 67.5355L27.1201 70.2375C27.1193 70.5188 27.0438 70.7951 26.9012 71.0387C26.7586 71.2824 26.5538 71.4849 26.3073 71.6262L8.44654 81.9766C8.355 82.0291 8.25104 82.0568 8.14519 82.0569C8.03934 82.0571 7.93533 82.0296 7.84366 81.9773C7.752 81.9251 7.6759 81.8499 7.62311 81.7593C7.57031 81.6688 7.54268 81.566 7.54297 81.4616L7.55161 78.7596C7.55269 78.4782 7.62827 78.202 7.77086 77.9584C7.91344 77.7147 8.11808 77.5121 8.36448 77.3706L26.2252 67.0201C26.3168 66.9676 26.4207 66.9399 26.5267 66.9398C26.6326 66.9397 26.7366 66.9672 26.8283 67.0195C26.92 67.0719 26.9961 67.1471 27.0488 67.2378C27.1016 67.3284 27.1291 67.4312 27.1287 67.5358V67.5355Z" fill="white"/>
<path opacity="0.334" d="M93.345 124.622C95.8977 122.856 97.1694 120.301 96.1855 118.915C95.2015 117.529 92.3344 117.837 89.7817 119.603C87.229 121.369 85.9573 123.924 86.9413 125.31C87.9252 126.696 90.7923 126.388 93.345 124.622Z" fill="url(#paint2_linear_97_1164)"/>
<path d="M90.5686 93.6C90.5686 93.6 91.0881 91.882 91.1861 91.8377C90.6025 91.5809 89.6208 91.1867 89.7888 90.5434C89.9569 89.9001 89.8682 88.4102 91.2667 87.5695C92.6652 86.7289 94.3001 89.8487 94.3001 89.8487L93.1724 91.3307L93.0095 93.0041L91.643 93.8913L90.5686 93.6Z" fill="#95E3FF"/>
<path d="M92.1318 90.9259C91.8275 91.3282 92.1617 92.288 92.8768 92.419C94.0604 92.634 94.7952 90.8169 94.9916 89.5842C95.188 88.3514 93.9386 87.371 92.1764 87.1564C89.2396 87.1895 91.0736 88.6996 91.5984 89.1461C91.4459 90.2417 91.6947 90.1455 92.324 89.9032C92.649 89.9854 92.4366 90.5227 92.1318 90.9259Z" fill="#2A4F76"/>
<path d="M83.1643 97.1696C83.1643 97.1696 82.4707 96.3367 82.4338 96.1313C82.3969 95.9259 82.2732 94.7091 81.488 94.5835C80.7028 94.4579 80.8993 95.947 81.07 96.4171C81.2407 96.8873 83.3858 98.2328 83.3858 98.2328L83.1643 97.1696Z" fill="#95E3FF"/>
<path d="M83.0121 96.4673C82.5911 96.4497 82.0969 98.0641 82.7546 98.639C83.4123 99.2139 85.3187 101.477 86.0498 100.952C86.7809 100.426 88.1396 99.1244 88.3953 98.2223C88.8433 98.6819 88.282 101.819 88.1372 103.07C87.9924 104.321 88.5659 106.374 92.4712 105.702C96.3765 105.03 96.9027 104.755 96.1451 100.687C97.8758 100.574 98.4211 99.1849 97.8532 97.7627C97.2854 96.3405 96.3771 91.9975 94.1192 92.1577C91.8614 92.3179 90.8907 92.6566 90.8077 93.1441C90.0757 93.5517 88.8335 93.893 87.9648 95.1872C87.096 96.4814 85.7566 98.3068 85.6659 98.639C85.1361 98.0711 83.4334 96.4843 83.0121 96.4673Z" fill="white"/>
<path d="M92.9487 118.7C92.1682 118.471 91.804 118.793 91.9782 119.567C92.1525 120.341 93.5597 120.648 93.6616 121.249C93.9188 122.159 95.5383 121.41 95.1973 120.677C94.8563 119.944 94.935 119.892 94.935 119.892L92.9487 118.7Z" fill="#2A4F76"/>
<path d="M93.5588 118.022C93.5472 118.09 93.3584 119.777 93.3584 119.777C93.3584 119.777 94.1261 120.953 94.6589 120.507C94.8783 120.323 94.6511 120.383 94.6589 119.845C94.6565 119.399 94.62 118.954 94.5498 118.514L93.5588 118.022Z" fill="#95E3FF"/>
<path d="M89.8608 121.34C89.7423 121.658 89.5961 121.966 89.4237 122.259C89.2837 122.417 89.8486 123.404 90.9858 123.331C91.5385 122.689 90.8499 120.895 90.8499 120.895L89.8608 121.34Z" fill="#95E3FF"/>
<path d="M89.3922 121.742C89.8709 122.38 91.8373 122.989 91.4505 121.742C91.5837 119.992 90.5024 109.475 92.0065 107.306C93.0706 107.25 92.7367 109.096 92.7367 109.096C92.7367 109.096 92.525 117.484 92.9859 118.626C93.4467 119.769 95.1726 120.808 95.1123 119.836C95.0519 118.863 95.142 108.655 95.5357 107.728C95.9293 106.802 96.0818 104.852 95.9754 104.672C95.0103 105.445 90.2241 106.358 88.6091 105.075C88.469 109.849 88.9097 119.936 89.3922 121.742Z" fill="#D5D6DB"/>
<path d="M89.4097 122.196C88.6384 122.535 87.8161 122.748 86.9753 122.827C86.3159 122.841 86.9646 124.022 88.0899 124.086C89.2153 124.15 89.6693 123.598 90.8821 124.086C91.9792 124.004 91.3304 122.539 91.3304 122.539C91.3304 122.539 89.9482 123.364 89.4097 122.196Z" fill="#2A4F76"/>
<path d="M81.959 68.6597L98.7369 78.4514C98.8663 78.5269 98.9735 78.6345 99.048 78.7634C99.1225 78.8923 99.1617 79.0382 99.1617 79.1866V84.4793L82.1166 74.5306C81.9478 74.4323 81.808 74.2921 81.7108 74.1241C81.6137 73.9561 81.5626 73.7659 81.5627 73.5724V68.881C81.5631 68.8355 81.5756 68.7908 81.599 68.7516C81.6225 68.7123 81.6559 68.6799 81.6961 68.6574C81.7363 68.635 81.7817 68.6234 81.8279 68.6238C81.874 68.6242 81.9193 68.6366 81.959 68.6597Z" fill="white"/>
<path d="M94.617 81.5293L94.9036 83.8028C94.9074 83.8315 94.9198 83.8584 94.9393 83.88C94.9587 83.9016 94.9843 83.9169 95.0126 83.924C95.041 83.9311 95.0709 83.9296 95.0984 83.9198C95.1259 83.91 95.1498 83.8923 95.167 83.8689L96.2766 82.3507" fill="white"/>
<g opacity="0.313">
<path opacity="0.313" d="M88.7973 63.9642L105.575 73.7558C105.705 73.8314 105.812 73.939 105.886 74.0679C105.961 74.1968 106 74.3426 106 74.491V79.7837L88.9549 69.8351C88.7861 69.7367 88.6462 69.5966 88.5491 69.4286C88.452 69.2605 88.4009 69.0703 88.4009 68.8769V64.1855C88.4013 64.1399 88.4139 64.0953 88.4373 64.056C88.4607 64.0168 88.4942 63.9843 88.5344 63.9619C88.5745 63.9394 88.62 63.9279 88.6661 63.9283C88.7123 63.9287 88.7575 63.941 88.7973 63.9642Z" fill="white"/>
<path opacity="0.313" d="M101.455 76.8338L101.742 79.1073C101.746 79.1359 101.758 79.1628 101.778 79.1844C101.797 79.206 101.823 79.2214 101.851 79.2285C101.879 79.2356 101.909 79.2341 101.937 79.2243C101.964 79.2144 101.988 79.1967 102.005 79.1733L103.115 77.6552" fill="white"/>
</g>
<path d="M85.2295 53.3992L102.007 63.1909C102.137 63.2664 102.244 63.374 102.318 63.5029C102.393 63.6318 102.432 63.7776 102.432 63.926V69.2188L85.387 59.2701C85.2183 59.1717 85.0784 59.0316 84.9813 58.8636C84.8841 58.6955 84.8331 58.5054 84.8331 58.3119V53.6205C84.8335 53.575 84.8461 53.5303 84.8695 53.491C84.8929 53.4518 84.9264 53.4193 84.9665 53.3969C85.0067 53.3745 85.0522 53.3629 85.0983 53.3633C85.1445 53.3637 85.1897 53.376 85.2295 53.3992Z" fill="white"/>
<path d="M82.8921 70.8178C82.7865 70.7551 82.6495 70.7889 82.5861 70.8931C82.5227 70.9973 82.5568 71.1325 82.6624 71.1951L97.5711 80.0373C97.6767 80.0999 97.8137 80.0662 97.8771 79.962C97.9405 79.8578 97.9064 79.7226 97.8008 79.66L82.8921 70.8178Z" fill="#33A2FF"/>
<path d="M89.7303 66.1222C89.6248 66.0596 89.4878 66.0933 89.4244 66.1975C89.3609 66.3017 89.3951 66.437 89.5006 66.4996L104.409 75.3418C104.515 75.4044 104.652 75.3707 104.715 75.2665C104.779 75.1623 104.745 75.0271 104.639 74.9645L89.7303 66.1222Z" fill="#33A2FF"/>
<path d="M86.1626 55.5573C86.057 55.4947 85.92 55.5284 85.8566 55.6326C85.7932 55.7368 85.8273 55.872 85.9329 55.9346L100.842 64.7768C100.947 64.8394 101.084 64.8057 101.148 64.7015C101.211 64.5973 101.177 64.4621 101.071 64.3995L86.1626 55.5573Z" fill="#33A2FF"/>
<path d="M82.9772 72.338C82.8716 72.2754 82.7346 72.3091 82.6712 72.4133C82.6078 72.5175 82.6419 72.6527 82.7475 72.7153L94.598 79.7437C94.7036 79.8063 94.8406 79.7726 94.904 79.6684C94.9674 79.5642 94.9333 79.429 94.8277 79.3664L82.9772 72.338Z" fill="#33A2FF"/>
<path d="M89.8154 67.6424C89.7099 67.5798 89.5729 67.6135 89.5094 67.7177C89.446 67.8219 89.4802 67.9571 89.5857 68.0197L101.436 75.0482C101.542 75.1108 101.679 75.0771 101.742 74.9729C101.806 74.8687 101.772 74.7334 101.666 74.6708L89.8154 67.6424Z" fill="#33A2FF"/>
<path d="M86.2476 57.0774C86.1421 57.0148 86.0051 57.0485 85.9416 57.1527C85.8782 57.2569 85.9124 57.3922 86.0179 57.4548L97.8684 64.4832C97.974 64.5458 98.111 64.5121 98.1744 64.4079C98.2379 64.3037 98.2037 64.1685 98.0981 64.1059L86.2476 57.0774Z" fill="#33A2FF"/>
<path opacity="0.52" d="M30.9926 132.941C28.1779 130.994 25.0167 130.654 23.9318 132.182C22.8469 133.71 24.2491 136.527 27.0638 138.475C29.8784 140.422 33.0397 140.762 34.1246 139.234C35.2095 137.706 33.8072 134.889 30.9926 132.941Z" fill="url(#paint3_linear_97_1164)"/>
<path d="M27.0356 106.834L25.9355 105.569L26.2549 103.861L25.5615 102.071C25.5615 102.071 28.0887 99.4296 29.2334 100.659C30.3781 101.888 29.8595 103.344 29.8408 104.029C29.8221 104.715 28.7333 104.83 28.0798 104.922C28.151 105.197 28.1846 105.48 28.1797 105.763L27.0356 106.834Z" fill="#95E3FF"/>
<path d="M27.5068 102.83C28.0619 103.248 28.2799 103.414 28.4461 102.282C29.0972 101.986 31.3532 101.003 28.4461 100.144C26.6324 99.8607 25.1122 100.484 24.9502 101.763C24.7882 103.042 24.9951 105.053 26.2337 105.174C26.2987 105.177 26.3637 105.174 26.4282 105.166C26.5764 105.146 26.7193 105.097 26.8485 105.023C26.9778 104.949 27.091 104.85 27.1816 104.732C27.2722 104.615 27.3384 104.481 27.3765 104.338C27.4146 104.195 27.4238 104.046 27.4037 103.9C27.2164 103.414 27.1602 102.821 27.5068 102.83Z" fill="#2A4F76"/>
<path d="M25.3944 133.376C25.3944 133.376 25.4756 133.429 25.1224 134.186C24.7692 134.943 26.4434 135.717 26.7101 134.778C26.8174 134.158 28.2677 133.839 28.4488 133.039C28.6298 132.238 28.2555 131.907 27.4459 132.145L25.3944 133.376Z" fill="#2A4F76"/>
<path d="M25.7922 131.802C25.7189 132.257 25.6809 132.717 25.6787 133.178C25.6861 133.735 25.4518 133.671 25.6787 133.861C26.2299 134.323 27.0219 133.106 27.0219 133.106C27.0219 133.106 26.8275 131.364 26.8162 131.294L25.7922 131.802Z" fill="#95E3FF"/>
<path d="M29.6136 134.262C29.6136 134.262 28.9027 136.116 29.4727 136.777C30.6512 136.855 31.2313 135.834 31.0877 135.672C30.909 135.369 30.7575 135.052 30.6349 134.723L29.6136 134.262Z" fill="#95E3FF"/>
<path d="M31.9298 117.917C30.2585 119.242 25.3156 118.3 24.3184 117.5C24.2623 118.572 24.4168 119.644 24.7736 120.658C25.1789 121.616 25.2725 132.164 25.2101 133.169C25.1477 134.174 26.9313 133.099 27.4064 131.918C27.8815 130.737 27.6644 122.072 27.6644 122.072C27.6644 122.072 27.3202 120.164 28.419 120.221C29.9731 122.463 28.8555 133.329 28.9941 135.137C28.5936 136.429 30.6254 135.797 31.1205 135.137C31.6194 133.271 32.0728 122.85 31.9298 117.917Z" fill="#D5D6DB"/>
<path d="M29.1171 136.111C29.1171 136.111 28.4473 137.624 29.5812 137.708C30.8347 137.205 31.3036 137.775 32.4652 137.708C33.6268 137.642 34.3011 136.422 33.6164 136.407C32.7479 136.327 31.8985 136.107 31.102 135.755C30.5454 136.963 29.1171 136.111 29.1171 136.111Z" fill="#2A4F76"/>
<path d="M28.3914 105.438C29.146 105.251 30.7039 105.961 31.3387 106.825C32.7542 109.369 33.7894 112.894 32.7753 113.025C32.2314 113.097 31.6782 113.052 31.154 112.891C30.8772 112.759 31.3547 111.774 32.0296 115.762C32.7045 119.75 29.9368 119.74 27.34 119.394C24.7433 119.048 23.243 118.342 23.7544 115.046C24.2658 111.749 23.7381 111.214 23.6197 108.754C23.5014 106.294 25.5541 104.864 26.0768 105.23C26.3895 106.23 27.638 105.624 28.3914 105.438Z" fill="white"/>
<g opacity="0.74">
<path opacity="0.74" d="M46.1403 105.574L29.3624 95.7824C29.2331 95.7068 29.1258 95.5993 29.0513 95.4704C28.9768 95.3415 28.9376 95.1956 28.9376 95.0472V89.7533L45.9828 99.702C46.1515 99.8004 46.2914 99.9405 46.3885 100.109C46.4856 100.277 46.5367 100.467 46.5366 100.66V105.352C46.5365 105.397 46.5242 105.442 46.5009 105.482C46.4775 105.521 46.4441 105.554 46.4039 105.576C46.3637 105.599 46.3181 105.611 46.2718 105.61C46.2256 105.61 46.1802 105.598 46.1403 105.574Z" fill="white"/>
<path opacity="0.74" d="M30.6334 96.4676L30.8383 98.0289C30.8421 98.0576 30.8545 98.0844 30.8739 98.106C30.8934 98.1276 30.919 98.143 30.9473 98.1501C30.9757 98.1572 31.0056 98.1557 31.0331 98.1459C31.0606 98.136 31.0845 98.1183 31.1017 98.0949L32.2113 96.5765" fill="white"/>
</g>
<path d="M42.8699 95.8898L26.092 86.0978C25.9626 86.0223 25.8554 85.9147 25.7809 85.7858C25.7064 85.6569 25.6672 85.511 25.6671 85.3626V80.0687L42.7123 90.0174C42.8811 90.1158 43.0209 90.2559 43.118 90.424C43.2152 90.592 43.2662 90.7821 43.2662 90.9756V95.667C43.2661 95.7127 43.2537 95.7575 43.2304 95.797C43.2071 95.8365 43.1736 95.8691 43.1334 95.8917C43.0932 95.9143 43.0477 95.9261 43.0014 95.9258C42.9551 95.9254 42.9097 95.913 42.8699 95.8898Z" fill="white"/>
<path d="M27.363 86.7831L27.5679 88.3444C27.5717 88.373 27.5841 88.3999 27.6035 88.4215C27.6229 88.4431 27.6485 88.4584 27.6769 88.4655C27.7052 88.4726 27.7351 88.4711 27.7626 88.4613C27.7902 88.4515 27.8141 88.4337 27.8313 88.4104L28.9408 86.8919" fill="white"/>
<path d="M26.9965 82.2632C26.891 82.2006 26.754 82.2343 26.6905 82.3385C26.6271 82.4427 26.6613 82.5779 26.7668 82.6405L41.6756 91.4827C41.7811 91.5453 41.9181 91.5116 41.9815 91.4074C42.045 91.3032 42.0108 91.168 41.9053 91.1054L26.9965 82.2632Z" fill="#33A2FF"/>
<path d="M30.267 91.9477C30.1615 91.8851 30.0245 91.9188 29.961 92.023C29.8976 92.1272 29.9318 92.2625 30.0373 92.3251L44.9461 101.167C45.0516 101.23 45.1886 101.196 45.2521 101.092C45.3155 100.988 45.2813 100.853 45.1758 100.79L30.267 91.9477Z" fill="#33A2FF"/>
<path d="M27.0816 83.7833C26.976 83.7207 26.839 83.7544 26.7756 83.8586C26.7122 83.9628 26.7463 84.0981 26.8519 84.1607L38.7024 91.1891C38.808 91.2517 38.945 91.218 39.0084 91.1138C39.0719 91.0096 39.0377 90.8744 38.9321 90.8118L27.0816 83.7833Z" fill="#33A2FF"/>
<path d="M30.352 93.4679C30.2465 93.4053 30.1095 93.439 30.0461 93.5432C29.9826 93.6474 30.0168 93.7826 30.1224 93.8452L41.9729 100.874C42.0784 100.936 42.2154 100.903 42.2789 100.798C42.3423 100.694 42.3081 100.559 42.2026 100.496L30.352 93.4679Z" fill="#33A2FF"/>
</g>
<defs>
<linearGradient id="paint0_linear_97_1164" x1="705.842" y1="113.103" x2="706.115" y2="113.051" gradientUnits="userSpaceOnUse">
<stop stop-color="white" stop-opacity="0.678"/>
<stop offset="1" stop-color="white" stop-opacity="0.482"/>
</linearGradient>
<linearGradient id="paint1_linear_97_1164" x1="63.5655" y1="6.39336" x2="-4.72085" y2="48.328" gradientUnits="userSpaceOnUse">
<stop stop-color="white" stop-opacity="0.878"/>
<stop offset="1" stop-color="white" stop-opacity="0.141"/>
</linearGradient>
<linearGradient id="paint2_linear_97_1164" x1="87.5052" y1="124.92" x2="95.5516" y2="119.207" gradientUnits="userSpaceOnUse">
<stop stop-color="#0059E1"/>
<stop offset="1" stop-color="#015AE2"/>
</linearGradient>
<linearGradient id="paint3_linear_97_1164" x1="33.5028" y1="138.804" x2="24.6306" y2="132.504" gradientUnits="userSpaceOnUse">
<stop stop-color="#0059E1"/>
<stop offset="1" stop-color="#226FFF" stop-opacity="0.537"/>
</linearGradient>
<clipPath id="clip0_97_1164">
<rect width="106" height="142" fill="white"/>
</clipPath>
</defs>
</svg>
