<svg width="371" height="400" viewBox="0 0 371 400" fill="none" xmlns="http://www.w3.org/2000/svg">
<rect x="0.0078125" width="370" height="400" rx="12" fill="#3900B4"/>
<mask id="mask0_113_164" style="mask-type:alpha" maskUnits="userSpaceOnUse" x="0" y="0" width="371" height="400">
<rect x="0.0078125" width="370" height="400" rx="12" fill="#3900B4"/>
</mask>
<g mask="url(#mask0_113_164)">
<path opacity="0.2" d="M148.901 411.278L91.4926 293.91C86.7299 284.173 90.5907 272.414 100.198 267.395L372.82 124.981C386.136 118.025 402.081 127.685 402.081 142.708V402.49C402.081 413.536 393.126 422.49 382.081 422.49H166.867C159.228 422.49 152.257 418.14 148.901 411.278Z" fill="#D9D9D9"/>
<path opacity="0.3" d="M164.93 401.647L115.713 301.025C110.95 291.288 114.811 279.529 124.418 274.51L360.455 151.208C373.771 144.252 389.715 153.911 389.715 168.935V392.86C389.715 403.905 380.761 412.86 369.715 412.86H182.896C175.258 412.86 168.286 408.509 164.93 401.647Z" fill="#D9D9D9"/>
<g opacity="0.1">
<path d="M350.89 46.9645C369.74 46.9645 385.02 32.2785 385.02 14.1625C385.02 -3.95347 369.74 -18.6394 350.89 -18.6394C332.041 -18.6394 316.761 -3.95347 316.761 14.1625C316.761 32.2785 332.041 46.9645 350.89 46.9645Z" fill="white"/>
<path d="M411.722 27.6191C419.459 -4.68492 398.482 -36.9001 364.87 -44.3355C331.259 -51.7709 297.739 -31.6109 290.003 0.693159C282.266 32.9972 303.242 65.2124 336.854 72.6478C370.466 80.0832 403.986 59.9232 411.722 27.6191Z" stroke="white" stroke-width="10" stroke-miterlimit="10"/>
<path d="M350.89 102.172C401.465 102.172 442.463 62.7689 442.463 14.1625C442.463 -34.4439 401.465 -73.8472 350.89 -73.8472C300.316 -73.8472 259.318 -34.4439 259.318 14.1625C259.318 62.7689 300.316 102.172 350.89 102.172Z" stroke="white" stroke-width="10" stroke-miterlimit="10"/>
</g>
</g>
<g opacity="0.5">
<path d="M36.3389 345.169H32.7803V348.728H36.3389V345.169Z" fill="white"/>
<path d="M49.8975 345.169H46.3389V348.728H49.8975V345.169Z" fill="white"/>
<path d="M63.456 345.169H59.8975V348.728H63.456V345.169Z" fill="white"/>
<path d="M77.0146 345.169H73.4561V348.728H77.0146V345.169Z" fill="white"/>
<path d="M90.5732 345.169H87.0146V348.728H90.5732V345.169Z" fill="white"/>
<path d="M36.3389 357.728H32.7803V361.287H36.3389V357.728Z" fill="white"/>
<path d="M49.8975 357.728H46.3389V361.287H49.8975V357.728Z" fill="white"/>
<path d="M63.456 357.728H59.8975V361.287H63.456V357.728Z" fill="white"/>
<path d="M77.0146 357.728H73.4561V361.287H77.0146V357.728Z" fill="white"/>
<path d="M90.5732 357.728H87.0146V361.287H90.5732V357.728Z" fill="white"/>
<path d="M36.3389 370.287H32.7803V373.845H36.3389V370.287Z" fill="white"/>
<path d="M49.8975 370.287H46.3389V373.845H49.8975V370.287Z" fill="white"/>
<path d="M63.456 370.287H59.8975V373.845H63.456V370.287Z" fill="white"/>
<path d="M77.0146 370.287H73.4561V373.845H77.0146V370.287Z" fill="white"/>
<path d="M90.5732 370.287H87.0146V373.845H90.5732V370.287Z" fill="white"/>
</g>
<path opacity="0.4" d="M200.717 195.044C203.751 202.328 204.055 203.542 200.717 211.736C197.378 219.93 206.786 219.323 206.786 226.606C206.786 233.89 201.324 236.318 202.841 242.387" stroke="white" stroke-linecap="round"/>
<path opacity="0.4" d="M204.11 195.044C207.144 202.328 207.448 203.542 204.11 211.736C200.771 219.93 210.179 219.323 210.179 226.606C210.179 233.89 204.717 236.318 206.234 242.387" stroke="white" stroke-linecap="round"/>
</svg>
